<svg xmlns="http://www.w3.org/2000/svg" viewBox="0 0 104.68 100"><defs><style>.cls-1{fill:#4d4d4f;}</style></defs><title>100perctgrey</title><g id="Layer_2" data-name="Layer 2"><g id="Layer_1-2" data-name="Layer 1"><path class="cls-1" d="M73,91.6q.12-1.66.12-2.46V77.21H70.75v22.5h2.38V93.78l1.8-1.56,5.61,7.49h2.9l-6.87-9.1L83,83.86H80.14L75,89.28a27.25,27.25,0,0,0-1.89,2.32Zm-6,7.58V97.05a10.66,10.66,0,0,1-4.06.86,4.09,4.09,0,0,1-3.5-1.57,7.36,7.36,0,0,1-1.18-4.48c0-4.11,1.62-6.17,4.84-6.17a8.45,8.45,0,0,1,1.66.21,11.48,11.48,0,0,1,1.74.53l.73-2a7.77,7.77,0,0,0-1.79-.59,11.06,11.06,0,0,0-2.29-.24,6.9,6.9,0,0,0-5.46,2.17,9,9,0,0,0-1.91,6.15,8.69,8.69,0,0,0,1.88,6A6.76,6.76,0,0,0,63,100a8.63,8.63,0,0,0,4-.82m-24.7-1.84a2.48,2.48,0,0,1-.78-2,2.66,2.66,0,0,1,1.26-2.45A8.7,8.7,0,0,1,46.9,92l2.4-.1v1.43A4.53,4.53,0,0,1,48,96.79,4.87,4.87,0,0,1,44.5,98a3.3,3.3,0,0,1-2.21-.68m9.41,2.37V88.89a5.2,5.2,0,0,0-1.37-4,6,6,0,0,0-4.2-1.26A11.5,11.5,0,0,0,40.77,85l.74,1.84A10.43,10.43,0,0,1,46,85.58a3.28,3.28,0,0,1,2.56.89,4,4,0,0,1,.81,2.76v1l-2.69.09c-5.13.15-7.68,1.83-7.68,5a4.43,4.43,0,0,0,1.33,3.46A5.32,5.32,0,0,0,44,100,7.2,7.2,0,0,0,47,99.48a6.77,6.77,0,0,0,2.37-2h.12l.47,2.25ZM32.41,87.13a8,8,0,0,1,1.08,4.61,8.33,8.33,0,0,1-1.08,4.64A3.73,3.73,0,0,1,29.11,98a4.26,4.26,0,0,1-3.58-1.44c-.74-1-1.11-2.55-1.11-4.78S24.78,88,25.5,87a4.21,4.21,0,0,1,3.55-1.41,3.87,3.87,0,0,1,3.36,1.52m-8-1.16h-.11c.07-1,.11-2.07.11-3.3V77.21H22v22.5h1.72l.5-2h.18a5.21,5.21,0,0,0,2.15,1.75,6.69,6.69,0,0,0,2.83.57,5.89,5.89,0,0,0,4.84-2.16A9.49,9.49,0,0,0,36,91.77a9.4,9.4,0,0,0-1.73-6A5.91,5.91,0,0,0,29.4,83.6a5.71,5.71,0,0,0-5,2.37"/><path class="cls-1" d="M94.48,35.42,77.61,65.82h4l16.87-30.4Zm8.43,14.21a5.8,5.8,0,0,0-5-2.46q-6.66,0-6.66,9.51c0,3.09.58,5.45,1.75,7.1a5.67,5.67,0,0,0,4.91,2.46,5.83,5.83,0,0,0,5-2.39c1.15-1.59,1.72-4,1.72-7.17s-.58-5.42-1.77-7m-7,2.45a2.07,2.07,0,0,1,2-1.5q2.71,0,2.72,6.1t-2.72,6.17a2.08,2.08,0,0,1-2-1.54,13.18,13.18,0,0,1-.61-4.63,12.88,12.88,0,0,1,.61-4.6M83.13,37.45a5.79,5.79,0,0,0-5-2.46c-4.43,0-6.63,3.17-6.63,9.5,0,3.08.57,5.44,1.73,7.1a5.62,5.62,0,0,0,4.9,2.48,5.79,5.79,0,0,0,5.06-2.4c1.14-1.6,1.72-4,1.72-7.18s-.59-5.4-1.76-7m-7,2.46a2.05,2.05,0,0,1,2-1.52q2.74,0,2.74,6.14t-2.74,6.14a2.05,2.05,0,0,1-2-1.52,13.08,13.08,0,0,1-.61-4.62,13,13,0,0,1,.61-4.62M53.48,41.73A4.24,4.24,0,0,1,57.56,39a4.29,4.29,0,0,1,4.11,2.74c.86,1.81,1.3,4.77,1.3,8.84s-.44,7-1.3,8.84a4.46,4.46,0,0,1-8.19,0q-1.27-2.66-1.28-8.88c0-4.14.43-7.11,1.28-8.89m11.8-2.8a8.65,8.65,0,0,0-7.72-4c-3.48,0-6.06,1.28-7.76,3.82s-2.55,6.5-2.55,11.86q0,7.68,2.62,11.65a8.63,8.63,0,0,0,7.69,4q5.23,0,7.79-3.85T67.9,50.62q0-7.69-2.62-11.69m-36.11,2.8A4.24,4.24,0,0,1,33.25,39a4.29,4.29,0,0,1,4.11,2.74c.87,1.81,1.3,4.77,1.3,8.84s-.43,7-1.3,8.84a4.46,4.46,0,0,1-8.19,0q-1.28-2.66-1.28-8.88c0-4.14.43-7.11,1.28-8.89M41,38.93a8.65,8.65,0,0,0-7.72-4c-3.48,0-6.06,1.28-7.76,3.82s-2.55,6.5-2.55,11.86q0,7.68,2.62,11.65a8.61,8.61,0,0,0,7.69,4c3.5,0,6.09-1.28,7.79-3.85s2.55-6.49,2.55-11.77q0-7.69-2.62-11.69M13,35.42H8.94L0,42.45l2.46,3.1q4-3.22,4.66-3.82c.47-.41.86-.78,1.18-1.11-.11,1.37-.17,3.23-.17,5.57V65.82H13Z"/><path class="cls-1" d="M75.27,7a4.19,4.19,0,0,1,3.55-1.55A4.27,4.27,0,0,1,82.43,7a7.3,7.3,0,0,1,1.23,4.59,7.48,7.48,0,0,1-1.23,4.64,4.82,4.82,0,0,1-7.15,0,7.54,7.54,0,0,1-1.21-4.63A7.44,7.44,0,0,1,75.27,7M84.18,5.6A6.66,6.66,0,0,0,78.9,3.39a6.85,6.85,0,0,0-5.38,2.16,8.73,8.73,0,0,0-1.94,6,10,10,0,0,0,.9,4.37A6.45,6.45,0,0,0,75,18.82a7.12,7.12,0,0,0,3.78,1,6.87,6.87,0,0,0,5.39-2.17,8.73,8.73,0,0,0,2-6.06,8.65,8.65,0,0,0-2-6M65.26,17.08a3.26,3.26,0,0,1-.68-2.21V5.54h4.6V3.68h-4.6V0H63.19l-1,3.39-2.27,1V5.54h2.27V15q0,4.84,4.61,4.85a8.85,8.85,0,0,0,1.36-.12,4.3,4.3,0,0,0,1.16-.31V17.55a7.25,7.25,0,0,1-1,.2,8.18,8.18,0,0,1-1.23.09,2.38,2.38,0,0,1-1.86-.76M46.46,7a7.66,7.66,0,0,1,1.16,4.55,8,8,0,0,1-1.16,4.59,3.72,3.72,0,0,1-3.22,1.66,4.26,4.26,0,0,1-3.58-1.44c-.74-1-1.11-2.55-1.11-4.78v-.54a7,7,0,0,1,1.11-4.28,4.26,4.26,0,0,1,3.52-1.34A3.83,3.83,0,0,1,46.46,7m1.91,10.65a9.45,9.45,0,0,0,1.74-6.07,9.53,9.53,0,0,0-1.71-6,5.88,5.88,0,0,0-4.87-2.15A6.49,6.49,0,0,0,40.71,4a5.54,5.54,0,0,0-2.16,1.88h-.11L38.1,3.68h-2v23h2.4V20.13a22.57,22.57,0,0,0-.17-2.64h.17a5.29,5.29,0,0,0,2.15,1.76,6.88,6.88,0,0,0,2.83.57,5.89,5.89,0,0,0,4.84-2.16m-30.58-14V14.05a5.87,5.87,0,0,0,1.44,4.4,6.09,6.09,0,0,0,4.34,1.37,6.93,6.93,0,0,0,3-.62,4.73,4.73,0,0,0,2.05-1.8h.13l.35,2.13h2V3.68h-2.4V12a6.85,6.85,0,0,1-1.15,4.44,4.5,4.5,0,0,1-3.64,1.36,3.58,3.58,0,0,1-2.76-1A4.1,4.1,0,0,1,20.22,14V3.68Z"/></g></g></svg>