<svg xmlns="http://www.w3.org/2000/svg" xmlns:xlink="http://www.w3.org/1999/xlink" viewBox="0 0 300 300"><defs><style>.cls-1{fill:none;}.cls-2{fill:#fff;}.cls-3{clip-path:url(#clip-path);}.cls-4{fill:url(#linear-gradient);}.cls-5{clip-path:url(#clip-path-2);}.cls-6{clip-path:url(#clip-path-3);}</style><clipPath id="clip-path"><path class="cls-1" d="M2.13,150A147.87,147.87,0,1,0,150,2.13,147.88,147.88,0,0,0,2.13,150"/></clipPath><linearGradient id="linear-gradient" x1="-4112.33" y1="1437.58" x2="-4102.1" y2="1437.58" gradientTransform="matrix(29.43, 0, 0, -29.43, 121017.05, 42455.13)" gradientUnits="userSpaceOnUse"><stop offset="0" stop-color="#065ca8"/><stop offset="1" stop-color="#44c5e9"/></linearGradient><clipPath id="clip-path-2"><path class="cls-2" d="M150,300C67.29,300,0,232.71,0,150S67.29,0,150,0,300,67.29,300,150,232.71,300,150,300ZM150,4.26C69.64,4.26,4.27,69.64,4.27,150S69.64,295.74,150,295.74,295.73,230.36,295.73,150,230.36,4.26,150,4.26Z"/></clipPath><clipPath id="clip-path-3"><rect class="cls-2" x="2.13" y="2.13" width="295.73" height="295.74"/></clipPath></defs><title>100perct</title><g id="Layer_2" data-name="Layer 2"><g id="Layer_1-2" data-name="Layer 1"><g class="cls-3"><rect class="cls-4" x="2.13" y="2.13" width="295.73" height="295.74"/></g><path class="cls-2" d="M150,300C67.29,300,0,232.71,0,150S67.29,0,150,0,300,67.29,300,150,232.71,300,150,300ZM150,4.26C69.64,4.26,4.27,69.64,4.27,150S69.64,295.74,150,295.74,295.73,230.36,295.73,150,230.36,4.26,150,4.26Z"/><g class="cls-5"><rect class="cls-2" x="2.13" y="2.13" width="295.73" height="295.74"/><g class="cls-6"><rect class="cls-2" x="2.13" y="2.13" width="147.87" height="295.74"/><rect class="cls-2" x="150" y="2.13" width="147.87" height="295.74"/></g><path class="cls-2" d="M300,300H0V0H300ZM4.27,295.74H295.73V4.26H4.27Z"/></g><path class="cls-2" d="M189.13,228.75c.14-2.1.22-3.65.22-4.66V201.5h-4.5v42.61h4.5V232.88l3.42-3,10.61,14.19h5.49l-13-17.23L208,214.1h-5.4l-9.69,10.26a52.73,52.73,0,0,0-3.59,4.39Zm-11.4,14.35v-4a20.11,20.11,0,0,1-7.68,1.62,7.74,7.74,0,0,1-6.62-3q-2.24-3-2.24-8.49,0-11.67,9.15-11.67a15.06,15.06,0,0,1,3.15.4,20.85,20.85,0,0,1,3.29,1l1.39-3.86a14,14,0,0,0-3.39-1.1,20.56,20.56,0,0,0-4.33-.46q-6.7,0-10.34,4.11c-2.42,2.73-3.62,6.62-3.62,11.63s1.18,8.68,3.57,11.36,5.75,4,10.09,4a16.39,16.39,0,0,0,7.58-1.56M131,239.62a4.7,4.7,0,0,1-1.48-3.75,5.06,5.06,0,0,1,2.39-4.64c1.6-1,4.2-1.55,7.82-1.68l4.54-.2v2.71a8.6,8.6,0,0,1-2.42,6.52,9.24,9.24,0,0,1-6.67,2.32,6.2,6.2,0,0,1-4.18-1.28m17.82,4.49V223.62c0-3.49-.86-6.05-2.59-7.63s-4.37-2.39-8-2.39a20.82,20.82,0,0,0-5.29.69,21.55,21.55,0,0,0-4.86,1.89l1.4,3.48a19.8,19.8,0,0,1,8.49-2.3c2.22,0,3.84.55,4.85,1.68s1.52,2.86,1.52,5.21v1.86l-5.09.18q-14.55.42-14.54,9.52a8.38,8.38,0,0,0,2.53,6.55,10,10,0,0,0,7,2.3,13.76,13.76,0,0,0,5.58-1,12.68,12.68,0,0,0,4.48-3.82h.22l.9,4.27Zm-36.53-23.82c1.37,1.91,2,4.83,2,8.73s-.68,6.74-2,8.78a7,7,0,0,1-6.24,3c-3.11,0-5.36-.91-6.77-2.73s-2.11-4.83-2.11-9,.68-7.22,2-9,3.61-2.67,6.72-2.67q4.29,0,6.35,2.88m-15.12-2.2h-.21c.14-1.83.21-3.92.21-6.24V201.5H92.6v42.61h3.26l1-3.86h.33a10,10,0,0,0,4.06,3.33,13,13,0,0,0,5.36,1.08,11.1,11.1,0,0,0,9.16-4.1q3.3-4.09,3.3-11.48t-3.27-11.43a11.15,11.15,0,0,0-9.19-4.05q-6.24,0-9.42,4.49"/><path class="cls-2" d="M229.76,122.4,197.83,180h7.64L237.4,122.4Zm16,26.89a11,11,0,0,0-9.43-4.65q-12.62,0-12.6,18,0,8.78,3.31,13.44a10.72,10.72,0,0,0,9.29,4.66q6.25,0,9.52-4.52c2.19-3,3.27-7.55,3.27-13.58q0-8.71-3.36-13.35m-13.2,4.64q1.17-2.84,3.77-2.83,5.14,0,5.15,11.54t-5.15,11.68q-2.6,0-3.77-2.9a25.29,25.29,0,0,1-1.15-8.78c0-3.92.38-6.81,1.15-8.71m-24.25-27.69a11,11,0,0,0-9.5-4.66q-12.57,0-12.56,18,0,8.74,3.29,13.44a10.62,10.62,0,0,0,9.27,4.71q6.34,0,9.59-4.55t3.25-13.6q0-8.66-3.34-13.32M195,130.9c.76-1.91,2-2.88,3.74-2.88,3.46,0,5.19,3.89,5.19,11.63s-1.73,11.61-5.19,11.61c-1.74,0-3-1-3.74-2.88s-1.14-4.83-1.14-8.73.37-6.84,1.14-8.75m-42.89,3.43a8.07,8.07,0,0,1,7.74-5.08q5.31,0,7.77,5.18t2.46,16.74q0,11.63-2.46,16.74T159.89,173a8.08,8.08,0,0,1-7.74-5.05q-2.42-5-2.42-16.81t2.42-16.84m22.34-5.28c-3.3-5-8.18-7.56-14.6-7.56q-9.88,0-14.71,7.23t-4.82,22.45q0,14.54,5,22.05t14.57,7.52q9.9,0,14.74-7.28t4.82-22.29q0-14.56-5-22.12m-68.36,5.28q2.43-5.09,7.73-5.08t7.78,5.18q2.46,5.16,2.46,16.74t-2.46,16.74q-2.46,5.11-7.78,5.12T106.13,168q-2.41-5-2.43-16.81t2.43-16.84m22.34-5.28q-4.95-7.56-14.61-7.56-9.87,0-14.7,7.23t-4.82,22.45q0,14.54,5,22.05t14.56,7.52q9.93,0,14.75-7.28t4.82-22.29q0-14.56-5-22.12M75.56,122.4H67.84L50.91,135.7l4.66,5.87q7.51-6.09,8.83-7.24c.87-.77,1.62-1.46,2.22-2.09-.2,2.6-.31,6.11-.31,10.55V180h9.25Z"/><path class="cls-2" d="M193.4,68.55a8,8,0,0,1,6.74-2.93,8.13,8.13,0,0,1,6.83,3q2.33,3,2.32,8.7c0,3.85-.77,6.78-2.32,8.77a9.12,9.12,0,0,1-13.54,0c-1.54-2-2.3-4.93-2.3-8.75s.76-6.78,2.27-8.74M210.28,66a12.66,12.66,0,0,0-10-4.19q-6.51,0-10.19,4.09c-2.43,2.73-3.66,6.54-3.66,11.44a18.75,18.75,0,0,0,1.7,8.26A12.32,12.32,0,0,0,192.94,91a13.49,13.49,0,0,0,7.14,1.9q6.51,0,10.21-4.12T214,77.29q0-7.16-3.71-11.34M174.45,87.67a6.14,6.14,0,0,1-1.28-4.17V65.83h8.7V62.3h-8.7v-7h-2.63l-1.93,6.42-4.3,1.89v2.18h4.3V83.69q0,9.18,8.72,9.18a15.76,15.76,0,0,0,2.58-.24A7.82,7.82,0,0,0,182.1,92V88.57a15.13,15.13,0,0,1-1.79.37,14.77,14.77,0,0,1-2.33.17,4.49,4.49,0,0,1-3.53-1.44M138.86,68.61c1.47,2,2.21,4.88,2.21,8.62s-.74,6.58-2.21,8.68a7,7,0,0,1-6.09,3.15q-4.65,0-6.77-2.73c-1.4-1.82-2.11-4.83-2.11-9v-1c0-3.7.74-6.41,2.11-8.11s3.59-2.54,6.66-2.54a7.24,7.24,0,0,1,6.2,3m3.62,20.16q3.3-4.09,3.29-11.48t-3.24-11.46q-3.24-4.06-9.22-4.07A12.35,12.35,0,0,0,128,62.85a10.63,10.63,0,0,0-4.09,3.56h-.21l-.63-4.11h-3.7v43.49h4.54V93.44a38.17,38.17,0,0,0-.33-5h.33A10.12,10.12,0,0,0,128,91.79a13.18,13.18,0,0,0,5.35,1.08,11.09,11.09,0,0,0,9.17-4.1M84.6,62.3V81.94q0,5.72,2.72,8.33c1.82,1.73,4.55,2.6,8.21,2.6a13.12,13.12,0,0,0,5.65-1.18,9,9,0,0,0,3.87-3.4h.25l.66,4h3.76v-30h-4.56V78.08q0,5.83-2.17,8.4T96.1,89.06q-3.55,0-5.23-1.81c-1.12-1.21-1.67-3-1.67-5.47V62.3Z"/></g></g></svg>