<svg xmlns="http://www.w3.org/2000/svg" viewBox="0 0 81.7 100"><defs><style>.cls-1{fill:#4d4d4f;}</style></defs><title>25perctgrey</title><g id="Layer_2" data-name="Layer 2"><g id="Layer_1-2" data-name="Layer 1"><path class="cls-1" d="M62.18,91.6q.12-1.66.12-2.46V77.21H59.92v22.5H62.3V93.78l1.8-1.56,5.61,7.49h2.9l-6.87-9.1,6.43-6.75H69.31L64.2,89.28a27.74,27.74,0,0,0-1.9,2.32Zm-6,7.58V97.05a10.66,10.66,0,0,1-4.06.86,4.06,4.06,0,0,1-3.49-1.57,7.29,7.29,0,0,1-1.19-4.48c0-4.11,1.62-6.17,4.84-6.17a8.45,8.45,0,0,1,1.66.21,11.48,11.48,0,0,1,1.74.53l.73-2a7.61,7.61,0,0,0-1.79-.59,11,11,0,0,0-2.28-.24,6.92,6.92,0,0,0-5.47,2.17,9,9,0,0,0-1.91,6.15,8.69,8.69,0,0,0,1.89,6A6.75,6.75,0,0,0,52.16,100a8.63,8.63,0,0,0,4-.82m-24.7-1.84a2.48,2.48,0,0,1-.78-2,2.68,2.68,0,0,1,1.26-2.45A8.7,8.7,0,0,1,36.07,92l2.4-.1v1.43a4.53,4.53,0,0,1-1.28,3.44A4.87,4.87,0,0,1,33.67,98a3.3,3.3,0,0,1-2.21-.68m9.41,2.37V88.89a5.23,5.23,0,0,0-1.36-4A6,6,0,0,0,35.3,83.6a11.07,11.07,0,0,0-2.79.36,11.45,11.45,0,0,0-2.57,1l.74,1.84a10.43,10.43,0,0,1,4.48-1.22,3.32,3.32,0,0,1,2.57.89,4,4,0,0,1,.8,2.76v1l-2.69.09q-7.68.23-7.68,5a4.4,4.4,0,0,0,1.34,3.46A5.28,5.28,0,0,0,33.19,100a7.2,7.2,0,0,0,2.94-.52,6.77,6.77,0,0,0,2.37-2h.12l.47,2.25ZM21.58,87.13a8,8,0,0,1,1.08,4.61,8.33,8.33,0,0,1-1.08,4.64A3.73,3.73,0,0,1,18.28,98a4.26,4.26,0,0,1-3.58-1.44c-.74-1-1.11-2.55-1.11-4.78S14,88,14.68,87a4.18,4.18,0,0,1,3.54-1.41,3.86,3.86,0,0,1,3.36,1.52m-8-1.16h-.11c.07-1,.11-2.07.11-3.3V77.21h-2.4v22.5h1.72l.51-2h.17a5.27,5.27,0,0,0,2.15,1.75,6.69,6.69,0,0,0,2.83.57,5.89,5.89,0,0,0,4.84-2.16,9.44,9.44,0,0,0,1.74-6.07,9.4,9.4,0,0,0-1.73-6,5.89,5.89,0,0,0-4.85-2.13,5.71,5.71,0,0,0-5,2.37"/><path class="cls-1" d="M71.49,35.42,54.63,65.82h4l16.87-30.4Zm8.44,14.2a5.83,5.83,0,0,0-5-2.45q-6.64,0-6.65,9.5,0,4.65,1.75,7.1a5.65,5.65,0,0,0,4.9,2.47,5.82,5.82,0,0,0,5-2.39q1.72-2.4,1.72-7.18,0-4.59-1.77-7.05m-7,2.46a2.07,2.07,0,0,1,2-1.5q2.73,0,2.73,6.09t-2.73,6.18a2.08,2.08,0,0,1-2-1.54,13.21,13.21,0,0,1-.61-4.64A12.85,12.85,0,0,1,73,52.08M60.15,37.45a5.82,5.82,0,0,0-5-2.47q-6.63,0-6.63,9.51c0,3.08.58,5.44,1.74,7.1a5.63,5.63,0,0,0,4.89,2.48,5.83,5.83,0,0,0,5.07-2.4c1.14-1.6,1.72-4,1.72-7.18s-.59-5.4-1.76-7m-7,2.46a2.06,2.06,0,0,1,2-1.52q2.75,0,2.75,6.14t-2.75,6.13a2,2,0,0,1-2-1.52,13.26,13.26,0,0,1-.6-4.61,13.36,13.36,0,0,1,.6-4.62M32.05,47l-1.77.3L31,39.77h11.5V35.42H26.65L25.49,50.27l2.19,1.29c.71-.17,1.56-.32,2.51-.45a18.59,18.59,0,0,1,2.41-.2q6.94,0,6.95,5.45a5.4,5.4,0,0,1-1.73,4.33,7.53,7.53,0,0,1-5,1.47,17.51,17.51,0,0,1-4.06-.52,14.35,14.35,0,0,1-3.86-1.47V64.6a16.42,16.42,0,0,0,8,1.64q5.63,0,8.67-2.73a9.71,9.71,0,0,0,3-7.61,8.49,8.49,0,0,0-2.68-6.63,10.43,10.43,0,0,0-7.28-2.43,18.55,18.55,0,0,0-2.57.16M20.61,61.52H6.17v-.21l5.29-5.11a52.61,52.61,0,0,0,5.08-5.32,16.18,16.18,0,0,0,2.27-3.81,10.53,10.53,0,0,0,.73-3.91,7.47,7.47,0,0,0-2.56-6A10,10,0,0,0,10.19,35a14.36,14.36,0,0,0-5.1.9,17.09,17.09,0,0,0-4.93,3l2.65,3.23a15.73,15.73,0,0,1,3.77-2.33A9.07,9.07,0,0,1,10,39.16a4.73,4.73,0,0,1,3.42,1.19,4.26,4.26,0,0,1,1.24,3.24,7.67,7.67,0,0,1-.52,2.81,12.11,12.11,0,0,1-1.66,2.8,66.36,66.36,0,0,1-4.6,5L0,62.12v3.7H20.61Z"/><path class="cls-1" d="M64.44,7A4.21,4.21,0,0,1,68,5.43,4.29,4.29,0,0,1,71.61,7a7.37,7.37,0,0,1,1.22,4.59,7.55,7.55,0,0,1-1.22,4.64A4.27,4.27,0,0,1,68,17.81a4.22,4.22,0,0,1-3.57-1.59,7.54,7.54,0,0,1-1.21-4.63A7.44,7.44,0,0,1,64.44,7M73.36,5.6a6.7,6.7,0,0,0-5.29-2.21,6.86,6.86,0,0,0-5.38,2.16,8.73,8.73,0,0,0-1.94,6,10,10,0,0,0,.9,4.37,6.47,6.47,0,0,0,2.55,2.86,7.06,7.06,0,0,0,3.77,1,6.87,6.87,0,0,0,5.39-2.17,8.73,8.73,0,0,0,2-6.06,8.7,8.7,0,0,0-2-6M54.43,17.08a3.26,3.26,0,0,1-.68-2.21V5.54h4.6V3.68h-4.6V0H52.36l-1,3.39-2.27,1V5.54h2.27V15q0,4.84,4.61,4.85a8.87,8.87,0,0,0,1.37-.12,4.32,4.32,0,0,0,1.15-.31V17.55a6.91,6.91,0,0,1-.95.2,8.09,8.09,0,0,1-1.23.09,2.38,2.38,0,0,1-1.86-.76M35.63,7a7.66,7.66,0,0,1,1.16,4.55,8,8,0,0,1-1.16,4.59,3.72,3.72,0,0,1-3.22,1.66,4.23,4.23,0,0,1-3.57-1.44c-.74-1-1.12-2.55-1.12-4.78v-.54a7,7,0,0,1,1.12-4.28,4.23,4.23,0,0,1,3.51-1.34A3.83,3.83,0,0,1,35.63,7m1.91,10.65a9.45,9.45,0,0,0,1.74-6.07,9.53,9.53,0,0,0-1.71-6A5.88,5.88,0,0,0,32.7,3.39,6.49,6.49,0,0,0,29.88,4a5.54,5.54,0,0,0-2.16,1.88h-.11l-.33-2.17h-2v23h2.4V20.13a20.59,20.59,0,0,0-.17-2.64h.17a5.36,5.36,0,0,0,2.15,1.76,6.91,6.91,0,0,0,2.83.57,5.86,5.86,0,0,0,4.84-2.16M7,3.68V14.05a5.87,5.87,0,0,0,1.44,4.4,6.08,6.08,0,0,0,4.33,1.37,7,7,0,0,0,3-.62,4.7,4.7,0,0,0,2-1.8h.13l.35,2.13h2V3.68h-2.4V12a6.85,6.85,0,0,1-1.15,4.44A4.5,4.5,0,0,1,13,17.81a3.58,3.58,0,0,1-2.76-1A4.1,4.1,0,0,1,9.39,14V3.68Z"/></g></g></svg>