<svg xmlns="http://www.w3.org/2000/svg" xmlns:xlink="http://www.w3.org/1999/xlink" viewBox="0 0 300 300"><defs><style>.cls-1{fill:none;}.cls-2{fill:#fff;}.cls-3{clip-path:url(#clip-path);}.cls-4{fill:url(#linear-gradient);}.cls-5{clip-path:url(#clip-path-2);}.cls-6{clip-path:url(#clip-path-3);}</style><clipPath id="clip-path"><path class="cls-1" d="M2.13,150A147.87,147.87,0,1,0,150,2.13,147.88,147.88,0,0,0,2.13,150"/></clipPath><linearGradient id="linear-gradient" x1="-4505.39" y1="1465.18" x2="-4495.17" y2="1465.18" gradientTransform="matrix(29.43, 0, 0, -29.43, 132584.13, 43267.16)" gradientUnits="userSpaceOnUse"><stop offset="0" stop-color="#065ca8"/><stop offset="1" stop-color="#44c5e9"/></linearGradient><clipPath id="clip-path-2"><path class="cls-2" d="M150,300C67.29,300,0,232.71,0,150S67.29,0,150,0,300,67.29,300,150,232.71,300,150,300ZM150,4.26C69.64,4.26,4.27,69.64,4.27,150S69.64,295.74,150,295.74,295.73,230.36,295.73,150,230.36,4.26,150,4.26Z"/></clipPath><clipPath id="clip-path-3"><rect class="cls-2" x="2.13" y="2.13" width="295.73" height="295.74"/></clipPath></defs><title>25perct</title><g id="Layer_2" data-name="Layer 2"><g id="Layer_1-2" data-name="Layer 1"><g class="cls-3"><rect class="cls-4" x="2.13" y="2.13" width="295.73" height="295.74"/></g><path class="cls-2" d="M150,300C67.29,300,0,232.71,0,150S67.29,0,150,0,300,67.29,300,150,232.71,300,150,300ZM150,4.26C69.64,4.26,4.27,69.64,4.27,150S69.64,295.74,150,295.74,295.73,230.36,295.73,150,230.36,4.26,150,4.26Z"/><g class="cls-5"><rect class="cls-2" x="2.13" y="2.13" width="295.73" height="295.74"/><g class="cls-6"><rect class="cls-2" x="2.13" y="2.13" width="147.87" height="295.74"/><rect class="cls-2" x="150" y="2.13" width="147.87" height="295.74"/></g><path class="cls-2" d="M300,300H0V0H300ZM4.27,295.74H295.73V4.26H4.27Z"/></g><path class="cls-2" d="M190.39,228.75c.14-2.1.21-3.65.21-4.66V201.5h-4.49v42.61h4.49V232.88l3.42-3,10.61,14.19h5.5l-13-17.23,12.16-12.78h-5.4l-9.68,10.26a53.24,53.24,0,0,0-3.6,4.39ZM179,243.1v-4a20.16,20.16,0,0,1-7.69,1.62,7.75,7.75,0,0,1-6.62-3c-1.48-2-2.23-4.8-2.23-8.49q0-11.67,9.15-11.67a14.89,14.89,0,0,1,3.14.4,21.3,21.3,0,0,1,3.3,1l1.39-3.86A14.32,14.32,0,0,0,176,214a20.63,20.63,0,0,0-4.33-.46c-4.47,0-7.93,1.37-10.34,4.11s-3.63,6.62-3.63,11.63,1.19,8.68,3.57,11.36,5.76,4,10.1,4A16.39,16.39,0,0,0,179,243.1m-46.76-3.48a4.67,4.67,0,0,1-1.49-3.75,5,5,0,0,1,2.4-4.64c1.59-1,4.2-1.55,7.81-1.68l4.55-.2v2.71a8.57,8.57,0,0,1-2.43,6.52,9.22,9.22,0,0,1-6.66,2.32,6.17,6.17,0,0,1-4.18-1.28M150,244.11V223.62c0-3.49-.85-6.05-2.58-7.63s-4.38-2.39-8-2.39a20.82,20.82,0,0,0-5.29.69,21.63,21.63,0,0,0-4.87,1.89l1.4,3.48a19.87,19.87,0,0,1,8.49-2.3c2.23,0,3.84.55,4.86,1.68s1.52,2.86,1.52,5.21v1.86l-5.09.18q-14.55.42-14.55,9.52a8.38,8.38,0,0,0,2.54,6.55,10,10,0,0,0,7,2.3,13.67,13.67,0,0,0,5.57-1,12.52,12.52,0,0,0,4.48-3.82h.23l.9,4.27Zm-36.52-23.82c1.37,1.91,2,4.83,2,8.73s-.68,6.74-2,8.78a7,7,0,0,1-6.25,3q-4.65,0-6.77-2.73c-1.4-1.8-2.1-4.83-2.1-9s.68-7.22,2-9,3.6-2.67,6.72-2.67q4.29,0,6.35,2.88m-15.12-2.2h-.22c.14-1.83.22-3.92.22-6.24V201.5H93.85v42.61h3.26l1-3.86h.33a10,10,0,0,0,4.06,3.33,13,13,0,0,0,5.36,1.08,11.1,11.1,0,0,0,9.16-4.1q3.28-4.09,3.29-11.48T117,217.65a11.13,11.13,0,0,0-9.18-4.05c-4.16,0-7.31,1.5-9.42,4.49"/><path class="cls-2" d="M208,122.4,176.08,180h7.63l31.93-57.55Zm16,26.89a11,11,0,0,0-9.43-4.65q-12.58,0-12.59,18,0,8.79,3.3,13.44a10.73,10.73,0,0,0,9.29,4.67c4.17,0,7.35-1.5,9.53-4.53s3.26-7.54,3.26-13.58c0-5.8-1.11-10.24-3.36-13.34m-13.19,4.65q1.17-2.85,3.76-2.85,5.16,0,5.16,11.54,0,11.7-5.16,11.7-2.59,0-3.76-2.92a25.17,25.17,0,0,1-1.16-8.78c0-3.9.39-6.81,1.16-8.69m-24.24-27.7a11,11,0,0,0-9.52-4.67q-12.56,0-12.55,18,0,8.73,3.28,13.44a10.66,10.66,0,0,0,9.27,4.7c4.24,0,7.42-1.52,9.59-4.54s3.25-7.57,3.25-13.6q0-8.67-3.32-13.33m-13.25,4.66Q174.43,128,177,128q5.21,0,5.2,11.61T177,151.25c-1.73,0-3-.95-3.73-2.87s-1.14-4.83-1.14-8.74.37-6.82,1.14-8.74m-39.94,13.42-3.37.56,1.3-14.25h21.77V122.4H123.13l-2.2,28.1,4.13,2.45c1.36-.32,3-.6,4.76-.85a34.7,34.7,0,0,1,4.57-.38q13.16,0,13.15,10.32c0,3.6-1.09,6.32-3.27,8.19s-5.35,2.79-9.53,2.79a33.74,33.74,0,0,1-7.68-1,27.66,27.66,0,0,1-7.31-2.79v8.38q5.5,3.12,15.15,3.11,10.64,0,16.4-5.17c3.84-3.45,5.77-8.26,5.77-14.39q0-8-5.08-12.56T138.21,144a33.12,33.12,0,0,0-4.86.31m-21.67,27.49H84.36v-.4l10-9.68A98.57,98.57,0,0,0,104,151.67a30.32,30.32,0,0,0,4.3-7.23,19.78,19.78,0,0,0,1.39-7.4,14.18,14.18,0,0,0-4.85-11.28Q100,121.57,92,121.57a27.29,27.29,0,0,0-9.65,1.7A32.06,32.06,0,0,0,73,129l5,6.11a29.87,29.87,0,0,1,7.15-4.42,17.28,17.28,0,0,1,6.39-1.22A9,9,0,0,1,98,131.73a8.09,8.09,0,0,1,2.34,6.14,14.36,14.36,0,0,1-1,5.31,22.9,22.9,0,0,1-3.13,5.3q-2.16,2.82-8.72,9.54L72.67,173v7h39Z"/><path class="cls-2" d="M194.65,68.55a8,8,0,0,1,6.74-2.93,8.11,8.11,0,0,1,6.83,3q2.33,3,2.32,8.7c0,3.85-.77,6.78-2.32,8.77a9.11,9.11,0,0,1-13.53,0c-1.54-2-2.3-4.93-2.3-8.75s.76-6.78,2.26-8.74M211.54,66a12.67,12.67,0,0,0-10-4.19q-6.51,0-10.19,4.09t-3.67,11.44a18.89,18.89,0,0,0,1.7,8.26A12.4,12.4,0,0,0,194.2,91a13.46,13.46,0,0,0,7.14,1.9q6.51,0,10.21-4.12t3.7-11.46q0-7.16-3.71-11.34M175.71,87.67a6.09,6.09,0,0,1-1.29-4.17V65.83h8.71V62.3h-8.71v-7h-2.63l-1.92,6.42-4.3,1.89v2.18h4.3V83.69q0,9.18,8.71,9.18a15.88,15.88,0,0,0,2.59-.24,7.74,7.74,0,0,0,2.18-.59V88.57a15.73,15.73,0,0,1-4.11.54,4.47,4.47,0,0,1-3.53-1.44M140.12,68.61c1.47,2,2.2,4.88,2.2,8.62s-.73,6.58-2.2,8.68A7,7,0,0,1,134,89.06c-3.11,0-5.36-.91-6.77-2.73s-2.11-4.83-2.11-9v-1c0-3.7.74-6.41,2.11-8.11s3.59-2.54,6.66-2.54a7.24,7.24,0,0,1,6.2,3m3.61,20.16c2.21-2.73,3.3-6.55,3.3-11.48s-1.08-8.73-3.24-11.46-5.24-4.07-9.22-4.07a12.35,12.35,0,0,0-5.33,1.09,10.56,10.56,0,0,0-4.09,3.56h-.21l-.63-4.11h-3.7v43.49h4.54V93.44a40,40,0,0,0-.33-5h.33a10.09,10.09,0,0,0,4.06,3.33,13.23,13.23,0,0,0,5.36,1.08,11.08,11.08,0,0,0,9.16-4.1M85.85,62.3V81.94q0,5.72,2.73,8.33t8.2,2.6a13.14,13.14,0,0,0,5.66-1.18,9,9,0,0,0,3.87-3.4h.25l.66,4H111v-30h-4.55V78.08q0,5.83-2.17,8.4t-6.89,2.58c-2.37,0-4.12-.6-5.23-1.81s-1.68-3-1.68-5.47V62.3Z"/></g></g></svg>