<svg xmlns="http://www.w3.org/2000/svg" xmlns:xlink="http://www.w3.org/1999/xlink" viewBox="0 0 300 300"><defs><style>.cls-1{fill:none;}.cls-2{fill:#fff;}.cls-3{clip-path:url(#clip-path);}.cls-4{fill:url(#linear-gradient);}.cls-5{clip-path:url(#clip-path-2);}.cls-6{clip-path:url(#clip-path-3);}</style><clipPath id="clip-path"><path class="cls-1" d="M2.13,150A147.87,147.87,0,1,0,150,2.13,147.88,147.88,0,0,0,2.13,150"/></clipPath><linearGradient id="linear-gradient" x1="-4791.16" y1="1299.03" x2="-4780.93" y2="1299.03" gradientTransform="matrix(29.43, 0, 0, -29.43, 140993.66, 38377.78)" gradientUnits="userSpaceOnUse"><stop offset="0" stop-color="#065ca8"/><stop offset="1" stop-color="#44c5e9"/></linearGradient><clipPath id="clip-path-2"><path class="cls-2" d="M150,300C67.29,300,0,232.71,0,150S67.29,0,150,0,300,67.29,300,150,232.71,300,150,300ZM150,4.26C69.64,4.26,4.27,69.64,4.27,150S69.64,295.74,150,295.74,295.73,230.36,295.73,150,230.36,4.26,150,4.26Z"/></clipPath><clipPath id="clip-path-3"><rect class="cls-2" x="2.13" y="2.13" width="295.73" height="295.74"/></clipPath></defs><title>75perct</title><g id="Layer_2" data-name="Layer 2"><g id="Layer_1-2" data-name="Layer 1"><g class="cls-3"><rect class="cls-4" x="2.13" y="2.13" width="295.73" height="295.74"/></g><path class="cls-2" d="M150,300C67.29,300,0,232.71,0,150S67.29,0,150,0,300,67.29,300,150,232.71,300,150,300ZM150,4.26C69.64,4.26,4.27,69.64,4.27,150S69.64,295.74,150,295.74,295.73,230.36,295.73,150,230.36,4.26,150,4.26Z"/><g class="cls-5"><rect class="cls-2" x="2.13" y="2.13" width="295.73" height="295.74"/><g class="cls-6"><rect class="cls-2" x="2.13" y="2.13" width="147.87" height="295.74"/><rect class="cls-2" x="150" y="2.13" width="147.87" height="295.74"/></g><path class="cls-2" d="M300,300H0V0H300ZM4.27,295.74H295.73V4.26H4.27Z"/></g><path class="cls-2" d="M190.7,228.75c.14-2.1.21-3.65.21-4.66V201.5h-4.49v42.61h4.49V232.88l3.43-3,10.6,14.19h5.5l-13-17.23L209.6,214.1h-5.4l-9.69,10.26a55.42,55.42,0,0,0-3.6,4.39ZM179.3,243.1v-4a20.12,20.12,0,0,1-7.69,1.62,7.75,7.75,0,0,1-6.62-3c-1.48-2-2.23-4.8-2.23-8.49q0-11.67,9.15-11.67a15.06,15.06,0,0,1,3.15.4,21.17,21.17,0,0,1,3.29,1l1.39-3.86a14.17,14.17,0,0,0-3.39-1.1,20.56,20.56,0,0,0-4.33-.46q-6.71,0-10.34,4.11c-2.42,2.73-3.62,6.62-3.62,11.63s1.18,8.68,3.57,11.36,5.75,4,10.09,4a16.39,16.39,0,0,0,7.58-1.56m-46.76-3.48a4.7,4.7,0,0,1-1.48-3.75,5.06,5.06,0,0,1,2.39-4.64c1.59-1,4.2-1.55,7.82-1.68l4.54-.2v2.71a8.57,8.57,0,0,1-2.43,6.52,9.2,9.2,0,0,1-6.66,2.32,6.2,6.2,0,0,1-4.18-1.28m17.82,4.49V223.62c0-3.49-.86-6.05-2.59-7.63s-4.38-2.39-8-2.39a20.82,20.82,0,0,0-5.29.69,21.82,21.82,0,0,0-4.87,1.89l1.41,3.48a19.8,19.8,0,0,1,8.49-2.3c2.22,0,3.83.55,4.85,1.68s1.52,2.86,1.52,5.21v1.86l-5.09.18q-14.55.42-14.54,9.52a8.38,8.38,0,0,0,2.53,6.55,10,10,0,0,0,7,2.3,13.67,13.67,0,0,0,5.57-1,12.62,12.62,0,0,0,4.49-3.82h.22l.9,4.27Zm-36.53-23.82c1.37,1.91,2,4.83,2,8.73s-.68,6.74-2,8.78a7,7,0,0,1-6.25,3q-4.65,0-6.76-2.73c-1.41-1.8-2.11-4.83-2.11-9s.68-7.22,2.05-9,3.61-2.67,6.72-2.67q4.29,0,6.35,2.88m-15.12-2.2H98.5c.13-1.83.21-3.92.21-6.24V201.5H94.16v42.61h3.27l.95-3.86h.33a10,10,0,0,0,4.06,3.33,13,13,0,0,0,5.36,1.08,11.1,11.1,0,0,0,9.16-4.1q3.3-4.09,3.3-11.48t-3.28-11.43a11.12,11.12,0,0,0-9.18-4.05q-6.24,0-9.42,4.49"/><path class="cls-2" d="M208.32,122.4,176.39,180H184L216,122.4Zm16,26.89a11,11,0,0,0-9.43-4.64q-12.58,0-12.59,18c0,5.85,1.1,10.34,3.3,13.44a10.74,10.74,0,0,0,9.29,4.68q6.26,0,9.53-4.54t3.27-13.58q0-8.69-3.37-13.34m-13.18,4.64c.77-1.88,2-2.84,3.75-2.84,3.45,0,5.16,3.85,5.16,11.54s-1.71,11.7-5.16,11.7q-2.59,0-3.75-2.92c-.78-1.95-1.17-4.86-1.17-8.78s.39-6.81,1.17-8.7m-24.25-27.7a11,11,0,0,0-9.51-4.66q-12.56,0-12.56,18,0,8.73,3.29,13.44a10.64,10.64,0,0,0,9.27,4.7q6.34,0,9.58-4.54t3.25-13.6q0-8.67-3.32-13.34m-13.25,4.68q1.14-2.88,3.74-2.88,5.21,0,5.2,11.61t-5.2,11.61c-1.73,0-3-.95-3.74-2.87s-1.14-4.82-1.14-8.74.38-6.82,1.14-8.73m-39.94,13.42-3.37.55,1.31-14.25h21.77V122.4H123.45l-2.21,28.11,4.13,2.43c1.37-.31,3-.58,4.76-.84a34.7,34.7,0,0,1,4.57-.38q13.16,0,13.15,10.32c0,3.6-1.09,6.32-3.26,8.19s-5.36,2.8-9.53,2.8a33.65,33.65,0,0,1-7.68-1,27.59,27.59,0,0,1-7.32-2.79v8.38q5.52,3.12,15.15,3.12c7.09,0,12.56-1.74,16.4-5.18s5.77-8.25,5.77-14.39c0-5.31-1.69-9.49-5.08-12.57s-8-4.59-13.77-4.59a31.83,31.83,0,0,0-4.87.31M89.51,180l22.64-51v-6.46H72.35v8.15h29.92L79.51,180Z"/><path class="cls-2" d="M195,68.55a8,8,0,0,1,6.73-2.93,8.13,8.13,0,0,1,6.84,3q2.33,3,2.32,8.7c0,3.85-.77,6.78-2.32,8.77A9.12,9.12,0,0,1,195,86c-1.54-2-2.3-4.93-2.3-8.75s.76-6.78,2.27-8.74M211.85,66a12.66,12.66,0,0,0-10-4.19q-6.51,0-10.19,4.09T188,77.29a18.89,18.89,0,0,0,1.7,8.26A12.4,12.4,0,0,0,194.51,91a13.49,13.49,0,0,0,7.14,1.9q6.51,0,10.21-4.12t3.7-11.46q0-7.16-3.71-11.34M176,87.67a6.09,6.09,0,0,1-1.28-4.17V65.83h8.7V62.3h-8.7v-7h-2.63l-1.93,6.42-4.3,1.89v2.18h4.3V83.69q0,9.18,8.72,9.18a15.76,15.76,0,0,0,2.58-.24,7.64,7.64,0,0,0,2.18-.59V88.57a14.48,14.48,0,0,1-1.78.37,14.77,14.77,0,0,1-2.33.17A4.47,4.47,0,0,1,176,87.67M140.43,68.61c1.47,2,2.21,4.88,2.21,8.62s-.74,6.58-2.21,8.68a7,7,0,0,1-6.09,3.15q-4.65,0-6.77-2.73c-1.4-1.82-2.11-4.83-2.11-9v-1c.05-3.7.74-6.41,2.11-8.11s3.59-2.54,6.66-2.54a7.24,7.24,0,0,1,6.2,3m3.62,20.16q3.3-4.09,3.29-11.48T144.1,65.83q-3.24-4.06-9.22-4.07a12.35,12.35,0,0,0-5.33,1.09,10.63,10.63,0,0,0-4.09,3.56h-.21l-.63-4.11h-3.7v43.49h4.54V93.44a38.17,38.17,0,0,0-.33-5h.33a10.05,10.05,0,0,0,4.07,3.33,13.18,13.18,0,0,0,5.35,1.08,11.1,11.1,0,0,0,9.17-4.1M86.17,62.3V81.94q0,5.72,2.72,8.33t8.2,2.6a13.14,13.14,0,0,0,5.66-1.18,9,9,0,0,0,3.87-3.4h.25l.66,4h3.75v-30h-4.55V78.08q0,5.83-2.17,8.4t-6.89,2.58q-3.56,0-5.23-1.81c-1.12-1.21-1.68-3-1.68-5.47V62.3Z"/></g></g></svg>