<svg xmlns="http://www.w3.org/2000/svg" viewBox="0 0 82.04 100"><defs><style>.cls-1{fill:#4d4d4f;}</style></defs><title>75perctgrey</title><g id="Layer_2" data-name="Layer 2"><g id="Layer_1-2" data-name="Layer 1"><path class="cls-1" d="M62.52,91.6c.07-1.11.11-1.93.11-2.46V77.21H60.26v22.5h2.37V93.78l1.81-1.56L70,99.71H73l-6.87-9.1,6.42-6.75H69.65l-5.12,5.42a29.93,29.93,0,0,0-1.9,2.32Zm-6,7.58V97.05a10.66,10.66,0,0,1-4.06.86,4.08,4.08,0,0,1-3.5-1.57,7.29,7.29,0,0,1-1.18-4.48q0-6.17,4.83-6.17a8.36,8.36,0,0,1,1.66.21,11.48,11.48,0,0,1,1.74.53l.74-2a7.94,7.94,0,0,0-1.79-.59,11.14,11.14,0,0,0-2.29-.24,6.9,6.9,0,0,0-5.46,2.17,9,9,0,0,0-1.92,6.15,8.69,8.69,0,0,0,1.89,6A6.75,6.75,0,0,0,52.49,100a8.67,8.67,0,0,0,4-.82M31.8,97.34a2.45,2.45,0,0,1-.79-2,2.66,2.66,0,0,1,1.27-2.45A8.7,8.7,0,0,1,36.41,92l2.4-.1v1.43a4.53,4.53,0,0,1-1.29,3.44A4.84,4.84,0,0,1,34,98a3.28,3.28,0,0,1-2.21-.68m9.41,2.37V88.89a5.2,5.2,0,0,0-1.37-4,6,6,0,0,0-4.2-1.26,11.2,11.2,0,0,0-2.8.36,11.45,11.45,0,0,0-2.57,1L31,86.8a10.47,10.47,0,0,1,4.49-1.22,3.31,3.31,0,0,1,2.56.89,4,4,0,0,1,.8,2.76v1l-2.69.09q-7.68.23-7.68,5a4.44,4.44,0,0,0,1.34,3.46,5.29,5.29,0,0,0,3.7,1.21,7.23,7.23,0,0,0,2.94-.52,6.75,6.75,0,0,0,2.36-2H39l.48,2.25ZM21.91,87.13A8,8,0,0,1,23,91.74a8.33,8.33,0,0,1-1.09,4.64A3.71,3.71,0,0,1,18.61,98,4.24,4.24,0,0,1,15,96.55c-.74-1-1.11-2.55-1.11-4.78S14.29,88,15,87a4.19,4.19,0,0,1,3.55-1.41,3.84,3.84,0,0,1,3.35,1.52m-8-1.16h-.12q.12-1.45.12-3.3V77.21H11.52v22.5h1.73l.5-2h.18a5.24,5.24,0,0,0,2.14,1.75,6.72,6.72,0,0,0,2.83.57,5.88,5.88,0,0,0,4.84-2.16,9.44,9.44,0,0,0,1.74-6.07,9.34,9.34,0,0,0-1.73-6A5.88,5.88,0,0,0,18.9,83.6a5.68,5.68,0,0,0-5,2.37"/><path class="cls-1" d="M71.83,35.42,55,65.82h4l16.87-30.4Zm8.43,14.2a5.82,5.82,0,0,0-5-2.45q-6.66,0-6.66,9.5c0,3.09.58,5.47,1.75,7.1a5.65,5.65,0,0,0,4.91,2.47,5.8,5.8,0,0,0,5-2.39Q82,61.45,82,56.67c0-3.06-.6-5.41-1.78-7.05m-7,2.46a2.07,2.07,0,0,1,2-1.5c1.82,0,2.72,2,2.72,6.09s-.9,6.18-2.72,6.18a2.08,2.08,0,0,1-2-1.54,13.24,13.24,0,0,1-.61-4.64,12.85,12.85,0,0,1,.61-4.59M60.48,37.45a5.8,5.8,0,0,0-5-2.47q-6.63,0-6.63,9.51,0,4.62,1.73,7.1a5.63,5.63,0,0,0,4.9,2.49,5.82,5.82,0,0,0,5.06-2.41q1.73-2.4,1.72-7.18,0-4.58-1.76-7m-7,2.46a2,2,0,0,1,2-1.51q2.74,0,2.75,6.13t-2.75,6.13a2,2,0,0,1-2-1.52,13,13,0,0,1-.61-4.61,13.08,13.08,0,0,1,.61-4.62M32.39,47l-1.78.3.69-7.53H42.8V35.42H27L25.82,50.27,28,51.56c.72-.17,1.56-.31,2.51-.45a18.73,18.73,0,0,1,2.42-.2q6.95,0,6.94,5.45a5.39,5.39,0,0,1-1.72,4.33,7.57,7.57,0,0,1-5,1.47,17.38,17.38,0,0,1-4.06-.52,14.55,14.55,0,0,1-3.87-1.47V64.6a16.46,16.46,0,0,0,8,1.64q5.61,0,8.66-2.73a9.71,9.71,0,0,0,3.05-7.6,8.52,8.52,0,0,0-2.69-6.64A10.4,10.4,0,0,0,35,46.84a18.33,18.33,0,0,0-2.57.16M9.07,65.82,21,38.88V35.46H0v4.31H15.8l-12,26Z"/><path class="cls-1" d="M64.77,7a4.21,4.21,0,0,1,3.56-1.55A4.28,4.28,0,0,1,71.94,7a7.3,7.3,0,0,1,1.23,4.59,7.48,7.48,0,0,1-1.23,4.64,4.82,4.82,0,0,1-7.15,0,7.54,7.54,0,0,1-1.22-4.63A7.51,7.51,0,0,1,64.77,7M73.69,5.6A6.68,6.68,0,0,0,68.4,3.39,6.86,6.86,0,0,0,63,5.55a8.73,8.73,0,0,0-1.94,6A10,10,0,0,0,62,16a6.53,6.53,0,0,0,2.55,2.86,7.08,7.08,0,0,0,3.77,1,6.88,6.88,0,0,0,5.4-2.17,8.78,8.78,0,0,0,2-6.06,8.7,8.7,0,0,0-2-6M54.76,17.08a3.26,3.26,0,0,1-.67-2.21V5.54h4.59V3.68H54.09V0H52.7l-1,3.39-2.27,1V5.54h2.27V15c0,3.23,1.54,4.85,4.6,4.85a8.87,8.87,0,0,0,1.37-.12,4.11,4.11,0,0,0,1.15-.31V17.55a7.05,7.05,0,0,1-.94.2,8.28,8.28,0,0,1-1.23.09,2.42,2.42,0,0,1-1.87-.76M36,7a7.66,7.66,0,0,1,1.16,4.55A8,8,0,0,1,36,16.15a3.73,3.73,0,0,1-3.22,1.66,4.26,4.26,0,0,1-3.58-1.44c-.74-1-1.11-2.55-1.11-4.78v-.54a7,7,0,0,1,1.11-4.28,4.25,4.25,0,0,1,3.52-1.34A3.83,3.83,0,0,1,36,7m1.9,10.65a9.4,9.4,0,0,0,1.74-6.07,9.53,9.53,0,0,0-1.71-6A5.88,5.88,0,0,0,33,3.39,6.41,6.41,0,0,0,30.22,4a5.47,5.47,0,0,0-2.16,1.88h-.12l-.33-2.17H25.66v23h2.4V20.13a20.67,20.67,0,0,0-.18-2.64h.18a5.33,5.33,0,0,0,2.14,1.76,6.91,6.91,0,0,0,2.83.57,5.86,5.86,0,0,0,4.84-2.16M7.3,3.68V14.05a5.87,5.87,0,0,0,1.44,4.4,6.08,6.08,0,0,0,4.33,1.37,7,7,0,0,0,3-.62,4.7,4.7,0,0,0,2-1.8h.13l.36,2.13h2V3.68H18.16V12A6.85,6.85,0,0,1,17,16.45a4.48,4.48,0,0,1-3.63,1.36,3.55,3.55,0,0,1-2.76-1A4.05,4.05,0,0,1,9.73,14V3.68Z"/></g></g></svg>