<svg xmlns="http://www.w3.org/2000/svg" viewBox="0 0 200 200"><defs><style>.cls-1{fill:none;}.cls-2{fill:#4d4d4f;}</style></defs><title>activeman</title><g id="Layer_2" data-name="Layer 2"><g id="Layer_1-2" data-name="Layer 1"><rect class="cls-1" width="200" height="200"/><path class="cls-2" d="M79.39,77.06C78,71.52,79.51,67.2,76.5,63c5.28-3,4.66-1,8.23-2.14.5-.17,1-.33,1.48-.51a19.06,19.06,0,0,1,.15,4.43c-.25,2-.82,3.85-.88,4.31-.37,2.43,0,5,0,7.6,0,1.55-1.16,3.13-1.69,4.57a19.06,19.06,0,0,0-1.92,2.06,30.75,30.75,0,0,1-2.45-6.26m98.66,112.77c-.16-.85-1.38-1-1.91-1-2.92,0-8.49,1.49-10.77.11-3.78-2.26-7.1-2.07-9.56-3.32-1.5-.78-2.28-2.43-3.75-2.65-1.4-5.61-11.62-27.53-13.09-43.26a2,2,0,0,0,.08-.22c1.09-2.83,1-5.11-2.3-8.08-1.95-5.39-6-9.41-9-13.33-3.52-4.54-5.46-9.26-10.38-14.72l2.44-.48c-3.07-2.21-.43-3.74-2.71-7.33a11.28,11.28,0,0,1-1.44-4.46,6.57,6.57,0,0,0,.67-.22,30.64,30.64,0,0,1,1-4.94c5.69,1,11.62.8,17.33,3.36a5.12,5.12,0,0,0,.68.31c1.23,1.25,1.82,2.6,3.15,3.73,1.87,1.61,2.65,1.46,3.73,2.14,1.75,1.13,3.9-.93,5.86-2.48,3.18-2.49,3.18-3.2,2.59-3.92l-.56-.46a2.9,2.9,0,0,0,.13-1.14,11.92,11.92,0,0,0-2.07-2.16c-1.1-.91-1.27-1.82-2.87-1.73a45.77,45.77,0,0,1-4.67.22,3,3,0,0,0-.4-.19,53.3,53.3,0,0,1-15.74-5.41,33.93,33.93,0,0,1-4.85-3.51l.8-4.28c.47-2.58,1.93-12,4.26-13.84,1.73-1.38,1.17-10.87-2.19-17a18.83,18.83,0,0,0-3.26-4.25c-.53-2.52-.26-4.39,2.66-5.31.7.24,1.44.49,2.26.8,3.1,1.17,4.66.76,5.31-.54a14,14,0,0,0,.3-2.45,1.14,1.14,0,0,1,.83-.63c.08-.4-.44-.79-.9-1.19.66-.19,1.74-.62,1.51-1a3.19,3.19,0,0,1,.28-2.63c.21-.34,1.33-.43,1.6-.54,2.6-1-1.85-4.93-1.83-7,0-.54,1.4-1,1-1.87-1-2.27-1-4.85-2.34-6,4.5.48,1.87-3.25-5.35-5.28A46.34,46.34,0,0,0,113.83,0C111,0,108,.63,106.54,4.62c-5.18,1-6.21,8.18-3.9,12.47.87,1.61,2.3,4.25,3.62,4.48l1.51.27a9.35,9.35,0,0,1-4.51,8.4,21.28,21.28,0,0,0-4.13,1.85c-.63.37-1.74.63-2.34,1.06-.93.7-2,1.85-3,2.58a18.17,18.17,0,0,0-2.41,2C87.83,39,85.82,41.18,82.84,44c-5.74.44-9.51,5.51-13,8.37-1.22,1-2.85,3.08-4.48,4.71-1.27,1.28-2.79,2-3.09,2.67-.74,1.79,1.25,5.54,2.11,10.22,1.61,8.81,10,12.79,13.47,20.83a13.89,13.89,0,0,0-.65,5.09c.22,2.79,0,6.56.93,9.27s3.23,5.59,1.52,8.72a8.71,8.71,0,0,0,4,0,100.25,100.25,0,0,0,2.69,14.6,16.81,16.81,0,0,0,.54,1.85c-4.3-2.15-8.59-2.45-14.17-2-5.09-.94-12-2.4-17.37-3.79a1.07,1.07,0,0,0,0-.63c-1-.76-3.33-2.6-4.83-4a26.12,26.12,0,0,1-3.6-4.79c-1.07-1.77-2-1-3.86-.19-4.39,2-9.24,7-10.53,8-3.72,2.81-7,4-9.41,8.52-1.2,2.32-2.23,8,.29,10,.71.57,1.74,0,2.16-.33,2.29-1.62,5.62-5.87,8.36-6.07,4.52-.33,7-2.33,9.79-2.7,1.32-.18,2.68.29,3.83.22,8,3.07,30.41,9.73,43.63,18.08,1.65,3.07,5.93,4.76,10.64,1.63,2.84-1.57,4.36-3.41,3.88-7.56,2.29-5.29,2-10.71,2.35-15.47,0-.32.08-.64.12-1l2,1.48c3.51,2.55,10.61,5.53,14.65,9.65,1.18,4.31-.85,6.92-.94,11.84-.12,6.92,2.58,10.89,7.78,15.56,3.31,5.47,8,13.82,9.77,18.42a1.43,1.43,0,0,0-.68.58c.25,1.15.81,3.89,1.05,5.79a24,24,0,0,1-.52,5.76c-.38,2,.91,1.91,2.9,2.29,4.8.91,12.09-.35,13.78-.39,4.87-.12,8.28.79,13.29-1.44,2.56-1.14,7.31-5,6.73-8"/></g></g></svg>