<svg xmlns="http://www.w3.org/2000/svg" viewBox="0 0 100 100"><defs><style>.cls-1{fill:none;}.cls-2{fill:#4d4d4f;}</style></defs><title>activemangrey</title><g id="Layer_2" data-name="Layer 2"><g id="Layer_1-2" data-name="Layer 1"><rect class="cls-1" width="100" height="100"/><path class="cls-2" d="M39.7,38.53c-.72-2.77.06-4.93-1.45-7,2.64-1.51,2.33-.49,4.11-1.07l.75-.25a9.48,9.48,0,0,1,.07,2.21c-.12,1-.41,1.92-.44,2.16a26.61,26.61,0,0,0,0,3.79,7.56,7.56,0,0,1-.85,2.29,9.56,9.56,0,0,0-1,1,14.62,14.62,0,0,1-1.22-3.13M89,94.92c-.09-.43-.7-.48-1-.48-1.46,0-4.24.75-5.39.06-1.89-1.13-3.54-1-4.77-1.67-.75-.38-1.14-1.21-1.88-1.32-.7-2.8-5.81-13.77-6.54-21.63a.49.49,0,0,1,0-.11c.54-1.42.49-2.56-1.16-4-1-2.69-3-4.7-4.52-6.67-1.76-2.27-2.73-4.63-5.19-7.35l1.22-.25c-1.54-1.1-.21-1.86-1.35-3.66a5.59,5.59,0,0,1-.73-2.23,2.72,2.72,0,0,0,.34-.11A16.41,16.41,0,0,1,58.62,43c2.85.49,5.81.4,8.67,1.68a1.47,1.47,0,0,0,.34.15c.62.63.91,1.3,1.58,1.87a7,7,0,0,0,1.86,1.07c.87.56,2-.47,2.93-1.24,1.59-1.24,1.59-1.6,1.29-2L75,44.33a1.48,1.48,0,0,0,.07-.57,6.17,6.17,0,0,0-1-1.08c-.55-.46-.63-.91-1.43-.86-.61,0-1.53.14-2.34.11l-.19-.1a26.45,26.45,0,0,1-7.87-2.7,17.55,17.55,0,0,1-2.43-1.76l.4-2.14c.24-1.29,1-6,2.13-6.92.87-.69.59-5.44-1.1-8.5a9.53,9.53,0,0,0-1.63-2.13c-.26-1.25-.12-2.19,1.34-2.65l1.13.4c1.55.58,2.32.38,2.65-.27a7.51,7.51,0,0,0,.15-1.22.57.57,0,0,1,.42-.32c0-.2-.23-.39-.46-.59.33-.1.87-.32.76-.49a1.65,1.65,0,0,1,.14-1.32c.11-.17.66-.22.8-.27,1.3-.51-.93-2.46-.91-3.51,0-.27.7-.49.5-.93-.49-1.14-.49-2.43-1.17-3,2.25.24.94-1.62-2.67-2.64A23,23,0,0,0,56.92,0c-1.41,0-3,.31-3.65,2.31-2.59.49-3.1,4.09-2,6.24.43.8,1.15,2.12,1.81,2.23l.76.14a4.71,4.71,0,0,1-2.26,4.2,10.48,10.48,0,0,0-2.06.93,11.27,11.27,0,0,0-1.17.53c-.47.34-1,.92-1.51,1.29a9.4,9.4,0,0,0-1.2,1c-1.77.64-2.78,1.71-4.27,3.14-2.87.22-4.76,2.76-6.51,4.18-.61.5-1.43,1.55-2.25,2.36-.63.64-1.39,1-1.54,1.34-.37.89.62,2.77,1.05,5.1.81,4.41,5,6.4,6.74,10.42A7,7,0,0,0,38.58,48a19,19,0,0,0,.47,4.64c.46,1.28,1.62,2.79.76,4.36a4.4,4.4,0,0,0,2,0,49.37,49.37,0,0,0,1.35,7.3,8.34,8.34,0,0,0,.27.92,12.71,12.71,0,0,0-7.08-1c-2.55-.47-6-1.21-8.69-1.9a.48.48,0,0,0,0-.31c-.49-.38-1.66-1.31-2.41-2a13.25,13.25,0,0,1-1.8-2.4c-.54-.89-1-.5-1.93-.09-2.19,1-4.62,3.5-5.26,4-1.87,1.4-3.52,2-4.71,4.26-.6,1.15-1.11,4,.14,5,.36.28.87,0,1.08-.17,1.15-.81,2.81-2.94,4.19-3,2.26-.16,3.49-1.16,4.89-1.35.66-.08,1.34.15,1.92.11,4,1.54,15.2,4.87,21.81,9,.83,1.53,3,2.38,5.32.81a3.3,3.3,0,0,0,1.94-3.78c1.14-2.64,1-5.35,1.18-7.74a4.19,4.19,0,0,1,.06-.48l1,.74c1.75,1.28,5.31,2.76,7.32,4.83C63,71.87,62,73.18,62,75.63c-.07,3.46,1.28,5.45,3.89,7.79a80.64,80.64,0,0,1,4.88,9.2.78.78,0,0,0-.34.3c.12.57.4,1.94.53,2.89a12,12,0,0,1-.26,2.88c-.2,1,.45,1,1.45,1.15,2.39.45,6-.18,6.88-.2,2.44-.06,4.14.4,6.65-.72,1.28-.57,3.65-2.52,3.37-4"/></g></g></svg>