<svg xmlns="http://www.w3.org/2000/svg" xmlns:xlink="http://www.w3.org/1999/xlink" viewBox="0 0 298.58 298.58"><defs><style>.cls-1{fill:none;}.cls-2{fill:#fff;}.cls-3{clip-path:url(#clip-path);}.cls-4{fill:url(#linear-gradient);}.cls-5{clip-path:url(#clip-path-2);}.cls-6{clip-path:url(#clip-path-3);}</style><clipPath id="clip-path"><path class="cls-1" d="M2.12,149.29A147.17,147.17,0,1,0,149.29,2.12,147.17,147.17,0,0,0,2.12,149.29"/></clipPath><linearGradient id="linear-gradient" x1="-4174.28" y1="845.19" x2="-4164.11" y2="845.19" gradientTransform="matrix(29.43, 0, 0, -29.43, 122840.25, 25021.56)" gradientUnits="userSpaceOnUse"><stop offset="0" stop-color="#065ca8"/><stop offset="1" stop-color="#44c5e9"/></linearGradient><clipPath id="clip-path-2"><path class="cls-2" d="M149.29,298.58C67,298.58,0,231.61,0,149.29S67,0,149.29,0,298.58,67,298.58,149.29,231.61,298.58,149.29,298.58Zm0-294.34c-80,0-145,65.07-145,145s65.06,145,145,145,145-65.07,145-145S229.27,4.24,149.29,4.24Z"/></clipPath><clipPath id="clip-path-3"><rect class="cls-2" x="2.12" y="2.12" width="294.34" height="294.34"/></clipPath></defs><title>card</title><g id="Layer_2" data-name="Layer 2"><g id="Layer_1-2" data-name="Layer 1"><g class="cls-3"><rect class="cls-4" x="2.12" y="2.12" width="294.34" height="294.34"/></g><path class="cls-2" d="M149.29,298.58C67,298.58,0,231.61,0,149.29S67,0,149.29,0,298.58,67,298.58,149.29,231.61,298.58,149.29,298.58Zm0-294.34c-80,0-145,65.07-145,145s65.06,145,145,145,145-65.07,145-145S229.27,4.24,149.29,4.24Z"/><g class="cls-5"><rect class="cls-2" x="2.12" y="2.12" width="294.34" height="294.34"/><g class="cls-6"><rect class="cls-2" x="2.12" y="2.12" width="147.17" height="294.34"/><rect class="cls-2" x="149.29" y="2.12" width="147.17" height="294.34"/></g><path class="cls-2" d="M298.58,298.58H0V0H298.58ZM4.25,294.34H294.34V4.24H4.25Z"/></g><rect class="cls-1" x="74.77" y="76.52" width="149.29" height="149.29"/><path class="cls-2" d="M218.64,188.72a5.5,5.5,0,0,1-5.49,5.5H85.68a5.51,5.51,0,0,1-5.51-5.5V143H206.1a2.6,2.6,0,1,0,0-5.19H80.17v-16H206.1a2.6,2.6,0,1,0,0-5.2H80.17v-3a5.51,5.51,0,0,1,5.51-5.51H213.15a5.5,5.5,0,0,1,5.49,5.51Zm-5.49-86H85.68a10.92,10.92,0,0,0-10.91,10.91v75.11a10.92,10.92,0,0,0,10.91,10.91H213.15a10.92,10.92,0,0,0,10.91-10.91V113.61a10.92,10.92,0,0,0-10.91-10.91"/><path class="cls-2" d="M120.35,159.34H98.23a2.71,2.71,0,0,0,0,5.41h22.12a2.71,2.71,0,1,0,0-5.41"/><path class="cls-2" d="M120.35,171.34H98.23a2.7,2.7,0,1,0,0,5.4h22.12a2.7,2.7,0,1,0,0-5.4"/></g></g></svg>