<svg xmlns="http://www.w3.org/2000/svg" viewBox="0 0 100 100"><defs><style>.cls-1{fill:none;}.cls-2{fill:#4d4d4f;}</style></defs><title>cardgrey</title><g id="Layer_2" data-name="Layer 2"><g id="Layer_1-2" data-name="Layer 1"><rect class="cls-1" width="100" height="100"/><path class="cls-2" d="M96.37,75.16a3.68,3.68,0,0,1-3.68,3.68H7.31a3.69,3.69,0,0,1-3.69-3.68V44.53H88a1.74,1.74,0,1,0,0-3.48H3.62V30.34H88a1.74,1.74,0,1,0,0-3.48H3.62v-2a3.69,3.69,0,0,1,3.69-3.68H92.69a3.68,3.68,0,0,1,3.68,3.68ZM92.69,17.54H7.31A7.3,7.3,0,0,0,0,24.84V75.16a7.3,7.3,0,0,0,7.31,7.3H92.69a7.31,7.31,0,0,0,7.31-7.3V24.84a7.31,7.31,0,0,0-7.31-7.3"/><path class="cls-2" d="M30.54,55.48H15.72a1.81,1.81,0,1,0,0,3.62H30.54a1.81,1.81,0,0,0,0-3.62"/><path class="cls-2" d="M30.54,63.51H15.72a1.82,1.82,0,0,0,0,3.63H30.54a1.82,1.82,0,0,0,0-3.63"/></g></g></svg>