<svg xmlns="http://www.w3.org/2000/svg" viewBox="0 0 100 100"><defs><style>.cls-1{fill:none;}.cls-2{fill:#4d4d4f;}</style></defs><title>coffeegrey</title><g id="Layer_2" data-name="Layer 2"><g id="Layer_1-2" data-name="Layer 1"><rect class="cls-1" width="100" height="100"/><path class="cls-2" d="M26.33,3.08H73.67V7.6H26.33ZM81.57,15.21H18.43V10.69H81.57ZM75.21,0H24.79a1.54,1.54,0,0,0-1.54,1.54V7.61H16.89a1.54,1.54,0,0,0-1.54,1.54v7.6a1.54,1.54,0,0,0,1.54,1.55H83.11a1.54,1.54,0,0,0,1.54-1.55V9.15a1.54,1.54,0,0,0-1.54-1.54H76.75V1.54A1.54,1.54,0,0,0,75.21,0"/><path class="cls-2" d="M25.16,76.22l-3.38-29H78.22l-3.38,29Zm6.52,20.7L29.63,79.3H70.37L68.32,96.92ZM18.9,44.64a1.54,1.54,0,0,0-.38,1.2l3.74,32.1a1.53,1.53,0,0,0,1.52,1.36h2.75l2.25,19.34A1.54,1.54,0,0,0,30.31,100H69.69a1.54,1.54,0,0,0,1.53-1.36L73.47,79.3h2.74a1.54,1.54,0,0,0,1.53-1.36l3.74-32.1A1.55,1.55,0,0,0,80,44.12H25.54l-2.21-19H76.67L75.18,37.92a1.54,1.54,0,0,0,3.06.36l1.69-14.5a1.55,1.55,0,0,0-1.53-1.72H21.6a1.53,1.53,0,0,0-1.15.52,1.56,1.56,0,0,0-.38,1.2l2.37,20.34H20.05a1.53,1.53,0,0,0-1.15.52"/></g></g></svg>