<svg xmlns="http://www.w3.org/2000/svg" xmlns:xlink="http://www.w3.org/1999/xlink" viewBox="0 0 300 300"><defs><style>.cls-1{fill:none;}.cls-2{fill:#fff;}.cls-3{clip-path:url(#clip-path);}.cls-4{fill:url(#linear-gradient);}.cls-5{clip-path:url(#clip-path-2);}.cls-6{clip-path:url(#clip-path-3);}</style><clipPath id="clip-path"><path class="cls-1" d="M2.13,150A147.87,147.87,0,1,0,150,2.13,147.88,147.88,0,0,0,2.13,150"/></clipPath><linearGradient id="linear-gradient" x1="-3363.75" y1="1430.91" x2="-3353.53" y2="1430.91" gradientTransform="matrix(29.43, 0, 0, -29.43, 98988.03, 42258.68)" gradientUnits="userSpaceOnUse"><stop offset="0" stop-color="#065ca8"/><stop offset="1" stop-color="#44c5e9"/></linearGradient><clipPath id="clip-path-2"><path class="cls-2" d="M150,300C67.29,300,0,232.71,0,150S67.29,0,150,0,300,67.29,300,150,232.71,300,150,300ZM150,4.26C69.64,4.26,4.27,69.64,4.27,150S69.64,295.74,150,295.74,295.73,230.36,295.73,150,230.36,4.26,150,4.26Z"/></clipPath><clipPath id="clip-path-3"><rect class="cls-2" x="2.13" y="2.13" width="295.73" height="295.74"/></clipPath></defs><title>coffee</title><g id="Layer_2" data-name="Layer 2"><g id="Layer_1-2" data-name="Layer 1"><g class="cls-3"><rect class="cls-4" x="2.13" y="2.13" width="295.73" height="295.74"/></g><path class="cls-2" d="M150,300C67.29,300,0,232.71,0,150S67.29,0,150,0,300,67.29,300,150,232.71,300,150,300ZM150,4.26C69.64,4.26,4.27,69.64,4.27,150S69.64,295.74,150,295.74,295.73,230.36,295.73,150,230.36,4.26,150,4.26Z"/><g class="cls-5"><rect class="cls-2" x="2.13" y="2.13" width="295.73" height="295.74"/><g class="cls-6"><rect class="cls-2" x="2.13" y="2.13" width="147.87" height="295.74"/><rect class="cls-2" x="150" y="2.13" width="147.87" height="295.74"/></g><path class="cls-2" d="M300,300H0V0H300ZM4.27,295.74H295.73V4.26H4.27Z"/></g><rect class="cls-1" x="56.12" y="56.12" width="187.76" height="187.76"/><path class="cls-2" d="M105.56,61.9h88.88v8.5H105.56ZM209.27,84.68H90.73V76.19H209.27ZM197.33,56.12H102.67A2.89,2.89,0,0,0,99.78,59v11.4H87.84a2.89,2.89,0,0,0-2.9,2.89V87.58a2.91,2.91,0,0,0,2.9,2.9H212.16a2.91,2.91,0,0,0,2.9-2.9V73.3a2.89,2.89,0,0,0-2.9-2.89H200.22V59a2.89,2.89,0,0,0-2.89-2.89"/><path class="cls-2" d="M103.35,199.23,97,144.74H203l-6.34,54.49ZM115.6,238.1,111.75,205h76.49L184.4,238.1Zm-24-98.17a2.92,2.92,0,0,0-.72,2.26l7,60.27a2.89,2.89,0,0,0,2.87,2.56h5.15l4.23,36.31a2.87,2.87,0,0,0,2.87,2.55H187a2.89,2.89,0,0,0,2.87-2.55L194.07,205h5.15a2.9,2.9,0,0,0,2.87-2.56l7-60.27a2.89,2.89,0,0,0-2.87-3.23H104.07l-4.14-35.63H200.07l-2.78,24A2.89,2.89,0,1,0,203,128l3.16-27.21a2.91,2.91,0,0,0-.7-2.26,2.94,2.94,0,0,0-2.17-1H96.68a2.9,2.9,0,0,0-2.16,1,2.84,2.84,0,0,0-.71,2.26L98.24,139H93.76a2.87,2.87,0,0,0-2.15,1"/></g></g></svg>