<svg xmlns="http://www.w3.org/2000/svg" xmlns:xlink="http://www.w3.org/1999/xlink" viewBox="0 0 300 300"><defs><style>.cls-1{fill:none;}.cls-2{fill:#fff;}.cls-3{clip-path:url(#clip-path);}.cls-4{fill:url(#linear-gradient);}.cls-5{clip-path:url(#clip-path-2);}.cls-6{clip-path:url(#clip-path-3);}</style><clipPath id="clip-path"><path class="cls-1" d="M2.13,150A147.87,147.87,0,1,0,150,2.13,147.88,147.88,0,0,0,2.13,150"/></clipPath><linearGradient id="linear-gradient" x1="-4171.08" y1="846.99" x2="-4160.86" y2="846.99" gradientTransform="matrix(29.43, 0, 0, -29.43, 122746.08, 25075.26)" gradientUnits="userSpaceOnUse"><stop offset="0" stop-color="#065ca8"/><stop offset="1" stop-color="#44c5e9"/></linearGradient><clipPath id="clip-path-2"><path class="cls-2" d="M150,300C67.29,300,0,232.71,0,150S67.29,0,150,0,300,67.29,300,150,232.71,300,150,300ZM150,4.26C69.64,4.26,4.27,69.64,4.27,150S69.64,295.74,150,295.74,295.73,230.36,295.73,150,230.36,4.26,150,4.26Z"/></clipPath><clipPath id="clip-path-3"><rect class="cls-2" x="2.13" y="2.13" width="295.73" height="295.74"/></clipPath></defs><title>dinnerset</title><g id="Layer_2" data-name="Layer 2"><g id="Layer_1-2" data-name="Layer 1"><g class="cls-3"><rect class="cls-4" x="2.13" y="2.13" width="295.73" height="295.74"/></g><path class="cls-2" d="M150,300C67.29,300,0,232.71,0,150S67.29,0,150,0,300,67.29,300,150,232.71,300,150,300ZM150,4.26C69.64,4.26,4.27,69.64,4.27,150S69.64,295.74,150,295.74,295.73,230.36,295.73,150,230.36,4.26,150,4.26Z"/><g class="cls-5"><rect class="cls-2" x="2.13" y="2.13" width="295.73" height="295.74"/><g class="cls-6"><rect class="cls-2" x="2.13" y="2.13" width="147.87" height="295.74"/><rect class="cls-2" x="150" y="2.13" width="147.87" height="295.74"/></g><path class="cls-2" d="M300,300H0V0H300ZM4.27,295.74H295.73V4.26H4.27Z"/></g><path class="cls-2" d="M151.3,178.87a28.63,28.63,0,1,1,28.64-28.63,28.67,28.67,0,0,1-28.64,28.63m33.26-28.63A33.26,33.26,0,1,0,151.3,183.5a33.3,33.3,0,0,0,33.26-33.26"/><path class="cls-2" d="M156.65,197.32h.27a47.46,47.46,0,1,0-12-.09,2.32,2.32,0,1,0,.61-4.59,42.85,42.85,0,1,1,10.84.09,2.31,2.31,0,0,0,.27,4.6"/><path class="cls-2" d="M223.6,103.14a2.32,2.32,0,0,0-2.51.46,45.05,45.05,0,0,0-9.49,15.32c-3.43,8.94-6,23.41,1.46,41.68a2.31,2.31,0,0,0,4.28-1.74c-9.38-23.06-2.1-39.39,3-47.05v81.36a2.31,2.31,0,1,0,4.62,0v-87.9a2.32,2.32,0,0,0-1.4-2.13"/><path class="cls-2" d="M84.66,193.17a2.31,2.31,0,1,0,4.62,0V139.05A12,12,0,0,0,99,127.3V108a2.32,2.32,0,0,0-4.63,0V127.3a7.35,7.35,0,1,1-14.7,0V108A2.31,2.31,0,1,0,75,108V127.3a12,12,0,0,0,9.66,11.75Z"/><path class="cls-2" d="M89.29,126.41V108a2.32,2.32,0,0,0-4.63,0v18.46a2.32,2.32,0,1,0,4.63,0"/></g></g></svg>