<svg xmlns="http://www.w3.org/2000/svg" viewBox="0 0 100 100"><defs><style>.cls-1{fill:none;}.cls-2{fill:#4d4d4f;}</style></defs><title>dinnersetgrey</title><g id="Layer_2" data-name="Layer 2"><g id="Layer_1-2" data-name="Layer 1"><rect class="cls-1" width="100" height="100"/><path class="cls-2" d="M50.87,69.25A19.09,19.09,0,1,1,70,50.16,19.11,19.11,0,0,1,50.87,69.25M73,50.16A22.17,22.17,0,1,0,50.87,72.33,22.2,22.2,0,0,0,73,50.16"/><path class="cls-2" d="M54.43,81.55h.19a31.65,31.65,0,1,0-8-.06A1.54,1.54,0,0,0,47,78.42a28.56,28.56,0,1,1,7.22.06,1.54,1.54,0,0,0,.18,3.07"/><path class="cls-2" d="M99.06,18.76a1.52,1.52,0,0,0-1.66.31,29.69,29.69,0,0,0-6.33,10.21c-2.29,6-4,15.61,1,27.78a1.54,1.54,0,1,0,2.85-1.16c-6.25-15.36-1.39-26.25,2-31.36V78.78a1.54,1.54,0,1,0,3.08,0V20.18a1.52,1.52,0,0,0-.94-1.42"/><path class="cls-2" d="M6.44,78.78a1.54,1.54,0,0,0,3.08,0V42.7A8,8,0,0,0,16,34.87V22a1.55,1.55,0,0,0-3.09,0v12.9a4.9,4.9,0,1,1-9.8,0V22A1.54,1.54,0,0,0,0,22v12.9A8,8,0,0,0,6.44,42.7Z"/><path class="cls-2" d="M9.52,34.27V22a1.54,1.54,0,0,0-3.08,0v12.3a1.54,1.54,0,1,0,3.08,0"/></g></g></svg>