<svg xmlns="http://www.w3.org/2000/svg" xmlns:xlink="http://www.w3.org/1999/xlink" viewBox="0 0 200 200"><defs><style>.cls-1{fill:none;}.cls-2{clip-path:url(#clip-path);}.cls-3{fill:#4d4d4f;}</style><clipPath id="clip-path"><rect class="cls-1" x="24.25" width="151.5" height="200"/></clipPath></defs><title>document</title><g id="Layer_2" data-name="Layer 2"><g id="Layer_1-2" data-name="Layer 1"><g class="cls-2"><path class="cls-3" d="M30.27,188.75V11.24A5.22,5.22,0,0,1,35.5,6h85.74V51.51a3,3,0,0,0,3,3h45.47V188.75a5.22,5.22,0,0,1-5.21,5.22H35.5a5.23,5.23,0,0,1-5.23-5.22m97-178.46,38.2,38.21h-38.2Zm48.48,178.46V51.51a3.05,3.05,0,0,0-.06-.6,2.26,2.26,0,0,0-.11-.37,1.06,1.06,0,0,0-.06-.19,2.82,2.82,0,0,0-.21-.38s0-.09-.07-.14a4,4,0,0,0-.37-.45L126.38.89a3.44,3.44,0,0,0-.46-.38l-.13-.07-.38-.21-.19-.05-.38-.12a2.88,2.88,0,0,0-.59,0H35.5A11.25,11.25,0,0,0,24.25,11.24V188.75A11.27,11.27,0,0,0,35.5,200h129a11.26,11.26,0,0,0,11.24-11.25"/><path class="cls-3" d="M142.69,124.16H77.39a3,3,0,0,0,0,6.06h65.3a3,3,0,0,0,0-6.06"/><path class="cls-3" d="M142.69,98.5H77.39a3,3,0,0,0,0,6.06h65.3a3,3,0,0,0,0-6.06"/><path class="cls-3" d="M77.39,78.89H142.7a3,3,0,0,0,0-6H77.39a3,3,0,0,0,0,6"/><path class="cls-3" d="M55.92,103.25A3.25,3.25,0,1,1,59.17,100a3.26,3.26,0,0,1-3.25,3.25m0-12.55a9.31,9.31,0,1,0,9.3,9.3,9.31,9.31,0,0,0-9.3-9.3"/><path class="cls-3" d="M55.92,79.12a3.25,3.25,0,1,1,3.25-3.25,3.26,3.26,0,0,1-3.25,3.25m0-12.55a9.31,9.31,0,1,0,9.3,9.3,9.31,9.31,0,0,0-9.3-9.3"/><path class="cls-3" d="M55.92,130.43a3.24,3.24,0,1,1,3.25-3.25,3.26,3.26,0,0,1-3.25,3.25m0-12.55a9.31,9.31,0,1,0,9.3,9.3,9.31,9.31,0,0,0-9.3-9.3"/></g><rect class="cls-1" width="200" height="200"/></g></g></svg>