<svg xmlns="http://www.w3.org/2000/svg" xmlns:xlink="http://www.w3.org/1999/xlink" viewBox="0 0 100 100"><defs><style>.cls-1{fill:none;}.cls-2{clip-path:url(#clip-path);}.cls-3{fill:#4d4d4f;}</style><clipPath id="clip-path"><rect class="cls-1" x="12.12" width="75.75" height="100"/></clipPath></defs><title>documentgrey</title><g id="Layer_2" data-name="Layer 2"><g id="Layer_1-2" data-name="Layer 1"><rect class="cls-1" width="100" height="100"/><g class="cls-2"><path class="cls-3" d="M15.13,94.38V5.62A2.62,2.62,0,0,1,17.75,3H60.62V25.76a1.51,1.51,0,0,0,1.51,1.5H84.86V94.38A2.62,2.62,0,0,1,82.25,97H17.75a2.63,2.63,0,0,1-2.62-2.61M63.63,5.15l19.1,19.1H63.63ZM87.88,94.38V25.76a1,1,0,0,0,0-.3,1.05,1.05,0,0,0,0-.19l0-.1-.1-.18a.16.16,0,0,0,0-.07,1.37,1.37,0,0,0-.19-.23L63.19.44A1.3,1.3,0,0,0,63,.26l-.06,0-.2-.1-.09,0L62.42,0a1.43,1.43,0,0,0-.29,0H17.75a5.62,5.62,0,0,0-5.62,5.62V94.38A5.62,5.62,0,0,0,17.75,100h64.5a5.63,5.63,0,0,0,5.63-5.62"/><path class="cls-3" d="M71.35,62.08H38.7a1.52,1.52,0,1,0,0,3H71.35a1.52,1.52,0,0,0,0-3"/><path class="cls-3" d="M71.35,49.25H38.7a1.52,1.52,0,1,0,0,3H71.35a1.52,1.52,0,0,0,0-3"/><path class="cls-3" d="M38.7,39.44H71.35a1.51,1.51,0,1,0,0-3H38.7a1.51,1.51,0,1,0,0,3"/><path class="cls-3" d="M28,51.62A1.62,1.62,0,1,1,29.59,50,1.62,1.62,0,0,1,28,51.62m0-6.27A4.65,4.65,0,1,0,32.61,50,4.65,4.65,0,0,0,28,45.35"/><path class="cls-3" d="M28,39.56a1.62,1.62,0,1,1,1.63-1.62A1.63,1.63,0,0,1,28,39.56m0-6.27a4.65,4.65,0,1,0,4.65,4.65A4.65,4.65,0,0,0,28,33.29"/><path class="cls-3" d="M28,65.22a1.63,1.63,0,1,1,1.63-1.63A1.63,1.63,0,0,1,28,65.22m0-6.28a4.66,4.66,0,1,0,4.65,4.65A4.65,4.65,0,0,0,28,58.94"/></g></g></g></svg>