<svg xmlns="http://www.w3.org/2000/svg" viewBox="0 0 100 100"><defs><style>.cls-1{fill:none;}.cls-2{fill:#4d4d4f;}</style></defs><title>familygrey</title><g id="Layer_2" data-name="Layer 2"><g id="Layer_1-2" data-name="Layer 1"><rect class="cls-1" width="100" height="100"/><path class="cls-2" d="M62.8,33.91a5.57,5.57,0,1,1,5.56-5.56,5.58,5.58,0,0,1-5.56,5.56m0-14a8.47,8.47,0,1,0,8.45,8.47,8.47,8.47,0,0,0-8.45-8.47"/><path class="cls-2" d="M87.81,46.32a3.41,3.41,0,1,1,3.41-3.41,3.41,3.41,0,0,1-3.41,3.41m0-9.71a6.3,6.3,0,1,0,6.31,6.3,6.31,6.31,0,0,0-6.31-6.3"/><path class="cls-2" d="M82.37,66.73,85.21,53H90.3l2.54,13.78ZM66.66,62.07H58.44l-2.29-21.2H69.41Zm-22.83,0H27.12L31.5,40.85h8.41ZM12.69,68.31H9.1L7.93,57.44h6.16ZM98,65.54l.28,0a1.45,1.45,0,0,0,1.42-1.18c1.44-7.4-2.93-11.07-7.22-13.91a1.42,1.42,0,0,0-1-.43H84a1.44,1.44,0,0,0-1.41,1.16l-.17.81c-.91,3.91-2.48,5.23-3.29,5.14-.58-.06-1.35-1-1.53-2.91,0-.24,0-.49,0-.76,0,0,0,0,0-.06,0-1.07-.06-2-.07-2.93,0-4.61-.08-7.65-5.18-12.11a1.45,1.45,0,0,0-.89-.36,1.34,1.34,0,0,0-.4-.06H54.54a1.43,1.43,0,0,0-1,.44,11.1,11.1,0,0,0-4.68,7,18.55,18.55,0,0,0-6.67-6.93,1.41,1.41,0,0,0-1-.48H30.32a1.51,1.51,0,0,0-.63.16,1.14,1.14,0,0,0-.29.15c-7,4.56-9.08,9.09-9.08,19.37,0,2.16-.73,3.15-1.16,3.4a.36.36,0,0,1-.42,0c-.53-.3-1.43-1.71-1.43-5a1.46,1.46,0,0,0-1.1-1.4,1.45,1.45,0,0,0-.47-.08H6.31a1.44,1.44,0,0,0-1,.46C1.09,57.89-1.6,63.15,1.06,67.2a1.45,1.45,0,0,0,1.21.65,1.45,1.45,0,0,0,1.21-2.24c-1.35-2-.13-4.75,1.69-6.71l1.19,11s0,0,0,.09v8.42a1.45,1.45,0,1,0,2.9,0V71.2h3.23v7.22a1.45,1.45,0,1,0,2.9,0V69.85l.92-7.09a4.4,4.4,0,0,0,1,.79,3.23,3.23,0,0,0,3.32,0c1.63-.94,2.61-3.15,2.61-5.91,0-8.22,1.48-11.86,4.92-14.84L23.92,63.21a1.5,1.5,0,0,0,.3,1.21,1.46,1.46,0,0,0,1.12.54h3.07V78.68a1.45,1.45,0,0,0,2.9,0V65h7.84V78.68a1.45,1.45,0,1,0,2.89,0V65h3.52a1.48,1.48,0,0,0,1.12-.53,1.4,1.4,0,0,0,.3-1.18L43.22,42.84c3.4,3,4.87,6.63,4.87,14.8,0,0,0,.06,0,.1s0,.1,0,.14l0,.14s0,.09,0,.13l.06.14a.75.75,0,0,0,.07.12l.08.11a.81.81,0,0,0,.09.1.47.47,0,0,0,.1.1l.11.09a.41.41,0,0,0,.11.07l.13.07.13,0,.13,0,.15,0,.1,0h.09l.29,0,.09,0,.17-.06.1,0a.39.39,0,0,0,.14-.08l.09-.06.13-.11s0-.05.07-.08a.64.64,0,0,0,.1-.13l.06-.09a1,1,0,0,0,.08-.14s0-.08,0-.12A1.21,1.21,0,0,0,51,58s0-.09,0-.14,0-.07,0-.11c.1-1.51.1-3,.11-4.46,0-4.49,0-8.21,2.31-10.91l2.3,21.33s0,0,0,0v15a1.45,1.45,0,1,0,2.9,0V65h7.84V78.68a1.45,1.45,0,1,0,2.89,0V63.78l0-.08,2.78-21.46c2.4,2.66,2.43,4.65,2.48,8.3,0,1.13,0,2.42.11,3.89l0,.18c.34,3.45,2.2,5.22,4.06,5.43a2.82,2.82,0,0,0,.41,0,3.9,3.9,0,0,0,1.62-.36l-1.69,8.19a1.41,1.41,0,0,0,.3,1.2,1.43,1.43,0,0,0,1.12.54h.71v9.05a1.45,1.45,0,1,0,2.9,0V69.63h5.49v9.05a1.45,1.45,0,1,0,2.9,0V69.63h2a1.47,1.47,0,0,0,1.12-.52A1.5,1.5,0,0,0,96,67.92L93.59,54.85c2.53,2.13,4.12,4.7,3.29,9A1.45,1.45,0,0,0,98,65.54"/><path class="cls-2" d="M35.69,33.9a5.57,5.57,0,1,1,5.57-5.57,5.57,5.57,0,0,1-5.57,5.57m0-14a8.46,8.46,0,1,0,8.46,8.46,8.48,8.48,0,0,0-8.46-8.46"/><path class="cls-2" d="M13.19,47.82a2.56,2.56,0,1,1-2.55-2.56,2.56,2.56,0,0,1,2.55,2.56m-8,0a5.46,5.46,0,1,0,5.46-5.45,5.46,5.46,0,0,0-5.46,5.45"/></g></g></svg>