<svg xmlns="http://www.w3.org/2000/svg" viewBox="0 0 100 100"><defs><style>.cls-1{fill:none;}.cls-2{fill:#4d4d4f;}</style></defs><title>flightgrey</title><g id="Layer_2" data-name="Layer 2"><g id="Layer_1-2" data-name="Layer 1"><rect class="cls-1" width="100" height="100"/><path class="cls-2" d="M59.44,80.68h-.22a3.49,3.49,0,0,1-2.55-1.55c-2.51-3.34-5-6.67-7.51-10A1.21,1.21,0,0,0,49,69L39,61.44a3.46,3.46,0,0,1-1.56-2.52,3.54,3.54,0,0,1,1.18-2.75l1.25-1.25c.76-.76,1.52-1.52,2.26-2.29a3.52,3.52,0,0,1,3.68-1c1.31.37,2.63.72,3.94,1.08l2.86.77c2.8-2.8,5.59-5.6,8.4-8.39-4.38-2.41-8.72-4.78-13.05-7.17l-5.77-3.16A3.76,3.76,0,0,1,40.36,33,3.06,3.06,0,0,1,41,29.55q2.73-2.75,5.47-5.45a3.06,3.06,0,0,1,3-.8q9.2,2.22,18.39,4.4l5.74,1.38,2.79.67,1.13-1.14c1.77-1.79,3.59-3.63,5.44-5.4a19.41,19.41,0,0,1,4.6-3.3c3.16-1.63,5.89-2.15,8.32-1.6,2.77.61,4.16,2.7,4.15,6.19a9.77,9.77,0,0,1-.07,1.07A15.12,15.12,0,0,1,98,31,21.35,21.35,0,0,1,94.17,36l-3.1,3.11-2.75,2.74q2.49,10.75,5,21.53L94,66.49c.26,1.16.52,2.32.8,3.47a3.18,3.18,0,0,1-1.21,3.41c-1.74,1.33-3.49,2.64-5.26,3.95a3.32,3.32,0,0,1-2.64.63,3.42,3.42,0,0,1-2.23-1.8L73,57.13l-1,1q-3.7,3.7-7.4,7.38c.31,1.12.62,2.23.92,3.34s.63,2.35,1,3.52a3.41,3.41,0,0,1-.94,3.57c-.76.74-1.5,1.5-2.26,2.25l-1.35,1.35a3.49,3.49,0,0,1-2.49,1.14M41.32,58.62,51.2,66a4.17,4.17,0,0,1,.89.89q3.69,5,7.41,9.88l1.19-1.19c.75-.76,1.5-1.51,2.26-2.25-.33-1.24-.65-2.4-1-3.55S61.3,67.28,61,66a2.62,2.62,0,0,1,.71-2.74q3.89-3.86,7.75-7.74l2.26-2.25a2.1,2.1,0,0,1,3.68.5L86.5,74.1c1.59-1.16,3.14-2.33,4.68-3.5-.26-1.11-.52-2.21-.76-3.32l-.71-3.12q-2.53-11-5.09-22.08a2.53,2.53,0,0,1,.75-2.5q1.56-1.55,3.11-3.1l3.12-3.12a17.9,17.9,0,0,0,3.14-4.11,11.91,11.91,0,0,0,1.56-4.14,4.44,4.44,0,0,0,0-.63c0-2.32-.71-2.47-1.29-2.6-1.55-.36-3.52.08-5.86,1.28a16.44,16.44,0,0,0-3.73,2.69c-1.82,1.74-3.63,3.57-5.37,5.33l-1.49,1.5a2.6,2.6,0,0,1-2.59.75l-3.28-.79L67,31.26,48.81,26.92c-1.58,1.57-3.17,3.14-4.74,4.72l5.62,3.09,14.73,8.09A2.08,2.08,0,0,1,65,46.33c-3.42,3.39-6.81,6.79-10.21,10.2a2.47,2.47,0,0,1-2.54.66l-3.42-.93-4-1.09,0,0L42.44,57.5ZM52.15,54Z"/><path class="cls-2" d="M46.26,81.9H1.83a1.83,1.83,0,1,1,0-3.66H46.26a1.83,1.83,0,1,1,0,3.66"/><path class="cls-2" d="M35.58,72H17.7a1.83,1.83,0,0,1,0-3.66H35.58a1.83,1.83,0,1,1,0,3.66"/></g></g></svg>