<svg xmlns="http://www.w3.org/2000/svg" xmlns:xlink="http://www.w3.org/1999/xlink" viewBox="0 0 298.58 298.58"><defs><style>.cls-1{fill:none;}.cls-2{fill:#fff;}.cls-3{clip-path:url(#clip-path);}.cls-4{fill:url(#linear-gradient);}.cls-5{clip-path:url(#clip-path-2);}.cls-6{clip-path:url(#clip-path-3);}</style><clipPath id="clip-path"><path class="cls-1" d="M2.12,149.29A147.17,147.17,0,1,0,149.29,2.12,147.17,147.17,0,0,0,2.12,149.29"/></clipPath><linearGradient id="linear-gradient" x1="-3998.33" y1="845.19" x2="-3988.16" y2="845.19" gradientTransform="matrix(29.43, 0, 0, -29.43, 117662.53, 25021.56)" gradientUnits="userSpaceOnUse"><stop offset="0" stop-color="#065ca8"/><stop offset="1" stop-color="#44c5e9"/></linearGradient><clipPath id="clip-path-2"><path class="cls-2" d="M149.29,298.58C67,298.58,0,231.61,0,149.29S67,0,149.29,0,298.58,67,298.58,149.29,231.61,298.58,149.29,298.58Zm0-294.34c-80,0-145,65.07-145,145s65.06,145,145,145,145-65.07,145-145S229.27,4.24,149.29,4.24Z"/></clipPath><clipPath id="clip-path-3"><rect class="cls-2" x="2.12" y="2.12" width="294.34" height="294.34"/></clipPath></defs><title>flight</title><g id="Layer_2" data-name="Layer 2"><g id="Layer_1-2" data-name="Layer 1"><g class="cls-3"><rect class="cls-4" x="2.12" y="2.12" width="294.34" height="294.34"/></g><path class="cls-2" d="M149.29,298.58C67,298.58,0,231.61,0,149.29S67,0,149.29,0,298.58,67,298.58,149.29,231.61,298.58,149.29,298.58Zm0-294.34c-80,0-145,65.07-145,145s65.06,145,145,145,145-65.07,145-145S229.27,4.24,149.29,4.24Z"/><g class="cls-5"><rect class="cls-2" x="2.12" y="2.12" width="294.34" height="294.34"/><g class="cls-6"><rect class="cls-2" x="2.12" y="2.12" width="147.17" height="294.34"/><rect class="cls-2" x="149.29" y="2.12" width="147.17" height="294.34"/></g><path class="cls-2" d="M298.58,298.58H0V0H298.58ZM4.25,294.34H294.34V4.24H4.25Z"/></g><rect class="cls-1" x="72.11" y="72.88" width="149.29" height="149.29"/><path class="cls-2" d="M160.84,193.33h-.32a5.19,5.19,0,0,1-3.81-2.31q-5.62-7.47-11.22-14.95a1.05,1.05,0,0,0-.23-.24l-15-11.22a5.19,5.19,0,0,1-2.33-3.76,5.28,5.28,0,0,1,1.77-4.11l1.86-1.86c1.13-1.14,2.26-2.28,3.37-3.43a5.28,5.28,0,0,1,5.5-1.46c1.95.55,3.92,1.08,5.88,1.61l4.27,1.16q6.25-6.27,12.53-12.53l-19.48-10.7-8.61-4.73a5.45,5.45,0,0,1-2.69-2.66,4.54,4.54,0,0,1,.94-5.13q4-4.09,8.15-8.15a4.61,4.61,0,0,1,4.45-1.19q13.72,3.32,27.46,6.57l8.57,2.06,4.16,1,1.69-1.71c2.64-2.66,5.36-5.41,8.13-8a29.64,29.64,0,0,1,6.85-4.94c4.72-2.42,8.8-3.2,12.44-2.38,4.12.92,6.2,4,6.19,9.24a12.41,12.41,0,0,1-.11,1.6,22.71,22.71,0,0,1-3,8.13,32.36,32.36,0,0,1-5.63,7.38q-2.32,2.31-4.63,4.64L204,135.3q3.72,16,7.4,32.13l1.06,4.7c.39,1.74.78,3.47,1.2,5.2a4.74,4.74,0,0,1-1.8,5.08c-2.61,2-5.22,4-7.86,5.89a4.86,4.86,0,0,1-4,.94,5,5,0,0,1-3.32-2.68l-15.6-28.4-1.5,1.5q-5.52,5.52-11,11c.46,1.66.92,3.33,1.37,5s.94,3.5,1.43,5.25a5.12,5.12,0,0,1-1.39,5.33c-1.14,1.11-2.26,2.24-3.38,3.35l-2,2a5.23,5.23,0,0,1-3.72,1.7M133.79,160.4l14.75,11a6.17,6.17,0,0,1,1.32,1.33l11.07,14.76,1.78-1.79c1.12-1.12,2.24-2.25,3.38-3.36-.51-1.84-1-3.58-1.45-5.3-.51-1.88-1-3.77-1.54-5.65a3.91,3.91,0,0,1,1.06-4.09q5.81-5.76,11.57-11.55l3.38-3.37a3.13,3.13,0,0,1,5.49.76l16.65,30.32c2.36-1.75,4.68-3.48,7-5.24-.4-1.65-.77-3.29-1.14-5L206,168.66q-3.78-16.49-7.59-33a3.8,3.8,0,0,1,1.11-3.73q2.32-2.31,4.64-4.63c1.56-1.56,3.1-3.11,4.67-4.65a27.76,27.76,0,0,0,4.69-6.14,18,18,0,0,0,2.32-6.19,7.26,7.26,0,0,0,.06-.93c0-3.46-1.06-3.7-1.92-3.89-2.32-.53-5.25.12-8.75,1.91a24.58,24.58,0,0,0-5.57,4c-2.71,2.58-5.42,5.31-8,7.94l-2.22,2.24a3.88,3.88,0,0,1-3.87,1.13c-1.64-.41-3.27-.8-4.9-1.19l-8.59-2L145,113.06q-3.54,3.52-7.07,7.06l8.39,4.61q11,6,22,12.07a3.12,3.12,0,0,1,.79,5.25q-7.65,7.57-15.24,15.22a3.7,3.7,0,0,1-3.8,1l-5.1-1.39c-2-.54-4-1.08-5.94-1.64,0,0-.05,0-.05,0-1.22,1.24-2.34,2.38-3.48,3.51Zm16.17-7Z"/><path class="cls-2" d="M141.17,195.15H74.84a2.73,2.73,0,1,1,0-5.46h66.33a2.73,2.73,0,1,1,0,5.46"/><path class="cls-2" d="M125.23,180.38H98.53a2.74,2.74,0,0,1,0-5.47h26.7a2.74,2.74,0,0,1,0,5.47"/></g></g></svg>