<svg xmlns="http://www.w3.org/2000/svg" xmlns:xlink="http://www.w3.org/1999/xlink" viewBox="0 0 298.58 298.58"><defs><style>.cls-1{fill:none;}.cls-2{fill:#fff;}.cls-3{clip-path:url(#clip-path);}.cls-4{fill:url(#linear-gradient);}.cls-5{clip-path:url(#clip-path-2);}.cls-6{clip-path:url(#clip-path-3);}</style><clipPath id="clip-path"><path class="cls-1" d="M2.12,149.29A147.17,147.17,0,1,0,149.29,2.12,147.17,147.17,0,0,0,2.12,149.29"/></clipPath><linearGradient id="linear-gradient" x1="-3458.45" y1="846.66" x2="-3448.28" y2="846.66" gradientTransform="matrix(29.43, 0, 0, -29.43, 101774.92, 25064.72)" gradientUnits="userSpaceOnUse"><stop offset="0" stop-color="#065ca8"/><stop offset="1" stop-color="#44c5e9"/></linearGradient><clipPath id="clip-path-2"><path class="cls-2" d="M149.29,298.58C67,298.58,0,231.61,0,149.29S67,0,149.29,0,298.58,67,298.58,149.29,231.61,298.58,149.29,298.58Zm0-294.34c-80,0-145,65.07-145,145s65.06,145,145,145,145-65.07,145-145S229.27,4.24,149.29,4.24Z"/></clipPath><clipPath id="clip-path-3"><rect class="cls-2" x="2.12" y="2.12" width="294.34" height="294.34"/></clipPath></defs><title>healthyfood</title><g id="Layer_2" data-name="Layer 2"><g id="Layer_1-2" data-name="Layer 1"><g class="cls-3"><rect class="cls-4" x="2.12" y="2.12" width="294.34" height="294.34"/></g><path class="cls-2" d="M149.29,298.58C67,298.58,0,231.61,0,149.29S67,0,149.29,0,298.58,67,298.58,149.29,231.61,298.58,149.29,298.58Zm0-294.34c-80,0-145,65.07-145,145s65.06,145,145,145,145-65.07,145-145S229.27,4.24,149.29,4.24Z"/><g class="cls-5"><rect class="cls-2" x="2.12" y="2.12" width="294.34" height="294.34"/><g class="cls-6"><rect class="cls-2" x="2.12" y="2.12" width="147.17" height="294.34"/><rect class="cls-2" x="149.29" y="2.12" width="147.17" height="294.34"/></g><path class="cls-2" d="M298.58,298.58H0V0H298.58ZM4.25,294.34H294.34V4.24H4.25Z"/></g><rect class="cls-1" x="74.43" y="71.28" width="149.29" height="149.29"/><path class="cls-2" d="M204.58,173.35a11.81,11.81,0,0,1-4.12-.77,1.3,1.3,0,0,1,.91-2.44,9.24,9.24,0,0,0,3.21.6c2.9,0,6-1.64,8.84-4.62,5.35-5.69,8.2-14.65,7.62-24-.48-7.7-4.09-13.3-8.59-13.3a6.2,6.2,0,0,0-4,1.61,1.3,1.3,0,1,1-1.68-2,8.87,8.87,0,0,1,5.73-2.22c5.92,0,10.63,6.62,11.19,15.74.62,10-2.49,19.71-8.32,25.92-3.3,3.51-7.11,5.44-10.74,5.44"/><path class="cls-2" d="M136.85,135a1.31,1.31,0,0,1-1.3-1.3c-.06-9.7-.3-11.57-.39-11.92l-.08-.29c-1-3.49-1.65-6-4.8-9.77-3.42-4.08-9.07-12-9.3-12.33a1.29,1.29,0,0,1-.25-.8l.34-9.53a1.3,1.3,0,0,1,2.6.09l-.32,9.09c1.16,1.61,6,8.3,8.93,11.8,3.51,4.2,4.31,7.1,5.31,10.76l.08.29c.19.7.42,2.77.49,12.6a1.31,1.31,0,0,1-1.3,1.31Z"/><path class="cls-2" d="M117.67,191.78h-1a1.31,1.31,0,0,1-1.27-1.34,1.29,1.29,0,0,1,1.33-1.27,50.29,50.29,0,0,0,9.39-.77,1.3,1.3,0,1,1,.4,2.57,56,56,0,0,1-8.84.82"/><path class="cls-2" d="M95,165.68a1.3,1.3,0,0,1-1.3-1.29c-.46-40.44.13-42.61.33-43.32l.08-.29c1-3.66,1.8-6.55,5.32-10.75,3-3.52,7.76-10.2,8.93-11.82l-.33-9.07a1.3,1.3,0,1,1,2.6-.1l.35,9.53a1.35,1.35,0,0,1-.25.8c-.23.34-5.89,8.25-9.3,12.33-3.16,3.76-3.85,6.28-4.8,9.77l-.08.29c-.21.76-.65,6.44-.25,42.6a1.3,1.3,0,0,1-1.29,1.32Z"/><path class="cls-2" d="M126.64,87.54h0Zm-20-.49a37.11,37.11,0,0,0,9.42,1,37.11,37.11,0,0,0,9.42-1,37.46,37.46,0,0,0-9.42-1,37.46,37.46,0,0,0-9.42,1m9.42,3.56c-4.87,0-13-.46-13-3.56s8.15-3.56,13-3.56,13,.46,13,3.56-8.16,3.56-13,3.56"/><path class="cls-2" d="M103.82,130.37h-.12a1.28,1.28,0,0,1-1.17-1.42,39.08,39.08,0,0,1,2.27-9.84,20.91,20.91,0,0,1,5.26-7,1.3,1.3,0,0,1,1.66,2,18.66,18.66,0,0,0-4.53,6,37.36,37.36,0,0,0-2.07,9,1.31,1.31,0,0,1-1.3,1.18"/><path class="cls-2" d="M96.31,208a21.73,21.73,0,0,1-9-41.58,1.3,1.3,0,1,1,1.06,2.38,19.28,19.28,0,1,0,16.13.13,1.3,1.3,0,1,1,1.11-2.36A21.73,21.73,0,0,1,96.31,208"/><path class="cls-2" d="M88.81,166.57l.49.18a2.79,2.79,0,0,1,1.53,4.09l-.24.43,3.82-2.6a4.14,4.14,0,0,1,4.52.05l3.54,2.53-.16-.3a2.94,2.94,0,0,1,1.55-4.13l.47-.18h-3.76a3.26,3.26,0,0,1-3.22-3.09l-.07-1.49c0-.36-.27-.6-.43-.6s-.33.22-.33.54v1.37a3.17,3.17,0,0,1-3.14,3.16ZM87.55,176a1.41,1.41,0,0,1-1-.39c-.43-.4-.79-1.13-.06-2.43l2.07-3.65a.39.39,0,0,0,0-.22.29.29,0,0,0-.18-.13l-5.74-2c-1.16-.41-1.68-1-1.54-1.88S82,164,83.22,164l10.14-.09a.57.57,0,0,0,.55-.56V162a3.06,3.06,0,0,1,2.94-3.15,3.18,3.18,0,0,1,3,3.09l.07,1.49a.64.64,0,0,0,.62.6h8.81c1.52,0,2,.69,2.08,1.26s-.06,1.38-1.48,1.94l-5.17,2a.34.34,0,0,0-.22.2.4.4,0,0,0,0,.3l1.81,3.47c.73,1.38.23,2.12-.14,2.43s-1.15.7-2.42-.2l-6.45-4.61a1.58,1.58,0,0,0-1.55,0L89,175.5a2.51,2.51,0,0,1-1.43.53"/><path class="cls-2" d="M197.85,173.35c-3.72,0-7.42-2.46-10.42-6.91a1.3,1.3,0,0,1,2.16-1.46c2.46,3.66,5.47,5.76,8.26,5.76,2,0,4.28-1.2,6.36-3.39,4-4.2,8-12.87,7.38-24.6-.39-7.41-3.43-13-7.07-13a5.14,5.14,0,0,0-3.74,2l-.51.58-.76-.16a7.39,7.39,0,0,0-3.56.06l-.79.2-.53-.62a5.19,5.19,0,0,0-3.79-2.1c-3.18,0-6.13,4.19-6.88,9.75a1.31,1.31,0,0,1-1.47,1.11,1.29,1.29,0,0,1-1.11-1.46c1-7.07,4.84-12,9.46-12a7.28,7.28,0,0,1,5.24,2.42,10.07,10.07,0,0,1,3.24-.05,7.26,7.26,0,0,1,5.2-2.37c5.2,0,9.19,6.35,9.67,15.45.68,12.55-3.73,21.93-8.09,26.53-2.61,2.76-5.47,4.21-8.25,4.21"/><path class="cls-2" d="M172.61,144.36h0a1.32,1.32,0,0,1-1.26-1.35c0-.34,0-.68.05-1,.57-9.12,5.27-15.75,11.19-15.75a8.92,8.92,0,0,1,5.74,2.23,1.3,1.3,0,0,1-1.68,2,6.29,6.29,0,0,0-4.06-1.61c-4.5,0-8.11,5.6-8.59,13.31,0,.31,0,.62,0,.93a1.32,1.32,0,0,1-1.31,1.27"/><path class="cls-2" d="M190.41,173.35a11.36,11.36,0,0,1-3.9-.72,1.3,1.3,0,1,1,.89-2.45,8.64,8.64,0,0,0,6.23,0,1.3,1.3,0,0,1,.91,2.44,11.83,11.83,0,0,1-4.13.77"/><path class="cls-2" d="M185.94,121.83h0m10.56,10.31h-.13a1.29,1.29,0,0,1-1.17-1.41c.39-4.18.38-7.43,0-8.5S193.31,121,192,121a4.8,4.8,0,0,0-3.91,2.31,1.49,1.49,0,0,1-1.81.57c-1.1-.4-3.11-3.3-3-4.31a9.61,9.61,0,0,1,9.77-8.16c5.42,0,9.83,4.13,9.83,9.19,0,.41-.09,5.48-.16,8.68v.23a1.31,1.31,0,0,1-1.33,1.28,1.29,1.29,0,0,1-1.27-1.33v-.24c.07-3.17.17-8.21.17-8.62,0-3.63-3.25-6.58-7.23-6.58a7,7,0,0,0-7.14,5.56,11.68,11.68,0,0,0,.81,1.26,7.13,7.13,0,0,1,5.28-2.45c2.85,0,4.89,1.07,5.6,2.93s.5,6.31.18,9.67a1.3,1.3,0,0,1-1.29,1.18"/><path class="cls-2" d="M131,199a1.32,1.32,0,0,1-1-.47,1.31,1.31,0,0,1,.17-1.83c4.76-4,4.46-10.58,4.45-10.64a1.31,1.31,0,0,1,1.23-1.37,1.28,1.28,0,0,1,1.37,1.23c0,.32.37,8-5.38,12.78a1.3,1.3,0,0,1-.83.3m2.31,4.46a19.61,19.61,0,0,0,8.85,2.3,4.77,4.77,0,0,0,5.18-4.8c.07-2.38-1.36-4.87-4.19-5a15.15,15.15,0,0,1-3.91-.7,27.53,27.53,0,0,1-3.19,5.21,16.37,16.37,0,0,0,6.31,1.23,1.27,1.27,0,0,1,1.36,1.23,1.31,1.31,0,0,1-1.23,1.37,18.46,18.46,0,0,1-8.21-1.77c-.32.33-.64.65-1,1m8.85,4.91a22.64,22.64,0,0,1-11-3.1,16.4,16.4,0,0,1-5.56,2.81,7.75,7.75,0,0,1-9-3.64c-1.68-3.16-.89-6.87,2-9.47a1.31,1.31,0,0,1,1.85.11,1.29,1.29,0,0,1-.11,1.83,5,5,0,0,0-1.44,6.3,5.09,5.09,0,0,0,6,2.34,14.27,14.27,0,0,0,5.23-2.8l.11-.1a23.65,23.65,0,0,0,2.66-2.56l.11-.14a24.53,24.53,0,0,0,4.2-6.74.44.44,0,0,1,.06-.16l0-.09a18.29,18.29,0,0,0,1.37-6.72,4.77,4.77,0,0,0-4.85-5.12c-2.41-.07-4.93,1.34-5.08,4.15-.43,7.89-5.82,10.22-6,10.31a1.3,1.3,0,1,1-1-2.39c.19-.09,4.12-1.89,4.46-8.05.24-4.44,4.16-6.77,7.76-6.62a7.36,7.36,0,0,1,7.37,7.72,20.48,20.48,0,0,1-1.13,6.57,13.21,13.21,0,0,0,3.06.52c4.46.25,6.76,4.15,6.67,7.7a7.39,7.39,0,0,1-7.79,7.34"/><path class="cls-2" d="M154,196.14a35.82,35.82,0,0,1-15-3.24,1.3,1.3,0,1,1,1.08-2.37,33.69,33.69,0,0,0,29-.6,1.3,1.3,0,1,1,1.18,2.32A36.19,36.19,0,0,1,154,196.14"/><path class="cls-2" d="M127.68,184.15a1.28,1.28,0,0,1-1-.45A35.67,35.67,0,0,1,118,160.37a1.3,1.3,0,0,1,1.31-1.3h69.36a1.31,1.31,0,0,1,1.31,1.3,35.1,35.1,0,0,1-3.31,15,1.3,1.3,0,1,1-2.35-1.1,32.74,32.74,0,0,0,3-12.58H120.62a33.17,33.17,0,0,0,8,20.33,1.3,1.3,0,0,1-1,2.15"/><path class="cls-2" d="M165.64,161.67a1.53,1.53,0,0,1-.3,0,1.31,1.31,0,0,1-1-1.57,14.11,14.11,0,0,0,.39-3.3,14.48,14.48,0,0,0-28.95,0,14,14,0,0,0,.3,2.89,1.31,1.31,0,1,1-2.56.52,16.86,16.86,0,0,1-.34-3.41,17.08,17.08,0,0,1,34.15,0,16.57,16.57,0,0,1-.46,3.9,1.28,1.28,0,0,1-1.26,1"/><path class="cls-2" d="M141.05,161.07l-.24,0a1.31,1.31,0,0,1-1-1.53,10.74,10.74,0,0,1,21.28,0,1.3,1.3,0,0,1-2.56.49,8.14,8.14,0,0,0-16.16,0,1.31,1.31,0,0,1-1.28,1.06"/><path class="cls-2" d="M123.9,144.83a1.3,1.3,0,0,1-1.3-1.3,11,11,0,0,1,21.89-1.61,1.3,1.3,0,1,1-2.58.38,8.4,8.4,0,0,0-16.7,1.23,1.31,1.31,0,0,1-1.31,1.3"/><path class="cls-2" d="M124.1,161.67a1.5,1.5,0,0,1-.37,0c-.13,0-13.28-4.1-11-19.12a1.36,1.36,0,0,1,.65-.95c.75-.43,7.7-.87,13.42,2.47,3.76,2.2,8.22,6.83,8.14,16.36a1.32,1.32,0,0,1-1.31,1.29,1.29,1.29,0,0,1-1.29-1.31c0-5.69-1.64-10-5-12.81-4.32-3.58-10.05-3.76-12.14-3.67-.51,4.94.83,9,4,12a14.8,14.8,0,0,0,5.31,3.25,1.3,1.3,0,0,1-.36,2.55"/><path class="cls-2" d="M171.2,146.15a1.32,1.32,0,0,1-.51-.1,1.3,1.3,0,0,1-.69-1.71c3.54-8.43-.79-14.14-2.35-15.83-9.53,3.25-11.43,12.73-11.45,12.83a1.3,1.3,0,0,1-2.56-.49c.09-.48,2.33-11.63,14-15.06a1.3,1.3,0,0,1,1.24.27,17.14,17.14,0,0,1,3.52,19.3,1.31,1.31,0,0,1-1.2.79"/><path class="cls-2" d="M183.05,161.67a1.3,1.3,0,0,1-.66-2.42c10.35-6.12,9.85-15.51,9.45-18.24-20.82-2.69-24.37,11.82-24.51,12.44a1.3,1.3,0,1,1-2.54-.56c0-.18,4.26-17.93,28.34-14.33a1.37,1.37,0,0,1,1.08,1c0,.14,3.32,13.79-10.49,22a1.4,1.4,0,0,1-.67.18"/><path class="cls-2" d="M161.72,147.28a1.29,1.29,0,0,1-1.29-1.17c0-.36-.84-8.9,4.95-12.46a1.3,1.3,0,0,1,1.36,2.22c-4.4,2.7-3.73,9.9-3.72,10a1.3,1.3,0,0,1-1.17,1.43h-.13"/><path class="cls-2" d="M172.66,160.87a1.32,1.32,0,0,1-1.31-1.25c0-.33-.21-8.29,10.78-14.21a1.31,1.31,0,0,1,1.24,2.3c-9.48,5.09-9.42,11.54-9.41,11.81a1.32,1.32,0,0,1-1.26,1.35Z"/><path class="cls-2" d="M132.4,171H120.58a1.31,1.31,0,0,1,0-2.61H132.4a1.31,1.31,0,1,1,0,2.61"/><path class="cls-2" d="M186.92,171H141.41a1.31,1.31,0,1,1,0-2.61h45.51a1.31,1.31,0,1,1,0,2.61"/><path class="cls-2" d="M180.19,203.65c-6.26,0-11-4.63-11.42-8.78a20.38,20.38,0,0,1-.11-4.08c.31-5.36,2.76-12,2.87-12.28,1.28-3.24,4.73-6.65,8.66-6.65,3.78,0,7.36,2.9,8.73,7.06a38.31,38.31,0,0,1,1.35,3.89,1.3,1.3,0,1,1-2.5.73,32.4,32.4,0,0,0-1.27-3.64.61.61,0,0,0-.05-.12c-1-3.08-3.62-5.31-6.26-5.31s-5.28,2.58-6.23,5c0,.05-2.41,6.54-2.7,11.5a18.81,18.81,0,0,0,.09,3.6c.26,2.78,3.73,6.5,8.84,6.5a9.47,9.47,0,0,0,5.36-1.76,1.3,1.3,0,1,1,1.5,2.13,12,12,0,0,1-6.86,2.24"/><path class="cls-2" d="M176.31,181l-.23,0a1.29,1.29,0,0,1-1.05-1.49,6.14,6.14,0,0,1,1.08-2.37,5.86,5.86,0,0,1,2.84-2,1.3,1.3,0,0,1,1,2.42,3.18,3.18,0,0,0-1.68,1.16,3.49,3.49,0,0,0-.64,1.29,1.32,1.32,0,0,1-1.28,1.06"/><path class="cls-2" d="M194.67,202h.19a36.84,36.84,0,0,0,11.07-1.84l.13,0c3.15-.78,5.57-3.24,5.74-5.86s-2.25-5.39-4.59-6.49c0,0-6.4-2.82-11.37-3.43a18.9,18.9,0,0,0-3.63-.14c-2.8.07-6.78,3.26-7.11,8.32-.32,4.77,3.62,8.79,5.86,9.15l.37.08a11.27,11.27,0,0,0,3.34.25m.19,2.61h-.21a14.56,14.56,0,0,1-3.89-.31l-.29-.07c-3.4-.55-8.38-5.58-8-11.88s5.36-10.65,9.55-10.75a20.41,20.41,0,0,1,4.11.15c5.35.66,11.86,3.53,12.13,3.65,3.17,1.48,6.37,5.14,6.11,9s-3.39,7.13-7.65,8.2a38.91,38.91,0,0,1-11.89,2"/><path class="cls-2" d="M210,194.72a1.31,1.31,0,0,1-1.24-.9,3.21,3.21,0,0,0-1-1.74,4.31,4.31,0,0,0-1.26-.72,1.3,1.3,0,0,1,.6-2.53,6,6,0,0,1,2.3,1.23,5.77,5.77,0,0,1,1.88,2.95,1.3,1.3,0,0,1-.83,1.64,1.22,1.22,0,0,1-.41.07"/></g></g></svg>