<svg xmlns="http://www.w3.org/2000/svg" viewBox="0 0 100 100"><defs><style>.cls-1{fill:none;}.cls-2{fill:#4d4d4f;}</style></defs><title>healthyfoodgrey</title><g id="Layer_2" data-name="Layer 2"><g id="Layer_1-2" data-name="Layer 1"><rect class="cls-1" width="100" height="100"/><path class="cls-2" d="M87.18,68.37a7.75,7.75,0,0,1-2.76-.52A.87.87,0,1,1,85,66.22a6.14,6.14,0,0,0,2.15.4c1.94,0,4-1.1,5.92-3.09,3.58-3.82,5.49-9.82,5.11-16.06-.33-5.16-2.74-8.91-5.76-8.91a4.12,4.12,0,0,0-2.71,1.08.88.88,0,0,1-1.24-.11.87.87,0,0,1,.11-1.22,5.92,5.92,0,0,1,3.84-1.49c4,0,7.12,4.43,7.5,10.55.41,6.71-1.67,13.19-5.58,17.35-2.21,2.35-4.76,3.65-7.19,3.65"/><path class="cls-2" d="M41.81,42.66a.87.87,0,0,1-.87-.86c0-6.5-.2-7.75-.26-8l0-.19a14.56,14.56,0,0,0-3.22-6.55c-2.29-2.73-6.07-8-6.23-8.25a.89.89,0,0,1-.17-.54l.23-6.39A.88.88,0,0,1,33,12L32.77,18c.78,1.08,4,5.56,6,7.91a16.05,16.05,0,0,1,3.56,7.21l0,.19c.13.47.28,1.85.33,8.44a.87.87,0,0,1-.87.87Z"/><path class="cls-2" d="M29,80.72h-.67a.89.89,0,0,1-.86-.9.87.87,0,0,1,.9-.85,33.16,33.16,0,0,0,6.29-.52.88.88,0,0,1,.27,1.73,37.93,37.93,0,0,1-5.93.55"/><path class="cls-2" d="M13.81,63.23a.88.88,0,0,1-.88-.86c-.3-27.09.09-28.54.23-29l.05-.19A16,16,0,0,1,16.77,26c2-2.35,5.2-6.82,6-7.91L22.53,12a.87.87,0,0,1,1.74-.07l.24,6.39a.9.9,0,0,1-.17.53c-.15.23-3.94,5.53-6.23,8.26a14.46,14.46,0,0,0-3.22,6.55l-.05.19c-.14.51-.44,4.31-.16,28.54a.87.87,0,0,1-.87.88Z"/><path class="cls-2" d="M35,10.89h0Zm-13.4-.33a25,25,0,0,0,6.31.64,25,25,0,0,0,6.31-.64,25,25,0,0,0-6.31-.64,25,25,0,0,0-6.31.64M27.88,13c-3.26,0-8.72-.31-8.72-2.39s5.46-2.38,8.72-2.38,8.72.31,8.72,2.38S31.14,13,27.88,13"/><path class="cls-2" d="M19.69,39.58H19.6a.86.86,0,0,1-.78-1A26.28,26.28,0,0,1,20.35,32a14.17,14.17,0,0,1,3.51-4.67A.88.88,0,0,1,25,28.71a12.36,12.36,0,0,0-3,4,24.49,24.49,0,0,0-1.39,6.07.88.88,0,0,1-.87.79"/><path class="cls-2" d="M14.65,91.58a14.56,14.56,0,0,1-6-27.85.87.87,0,1,1,.71,1.59,12.91,12.91,0,1,0,10.81.09.87.87,0,0,1,.74-1.58,14.55,14.55,0,0,1-6.24,27.75"/><path class="cls-2" d="M9.63,63.83l.33.11a2,2,0,0,1,1.17,1.13A1.93,1.93,0,0,1,11,66.69l-.17.28,2.56-1.74a2.79,2.79,0,0,1,3,0L18.78,67l-.1-.2a2,2,0,0,1,1-2.76l.32-.13H17.51a2.18,2.18,0,0,1-2.16-2.06l0-1c0-.23-.17-.4-.28-.4s-.22.15-.22.37v.91a2.13,2.13,0,0,1-2.11,2.12Zm-.84,6.34a1,1,0,0,1-.67-.27c-.28-.26-.53-.76,0-1.63l1.39-2.44a.22.22,0,0,0,0-.15.31.31,0,0,0-.12-.09L5.54,64.24c-.78-.28-1.13-.7-1-1.27s.56-.84,1.39-.85l6.79-.06a.38.38,0,0,0,.37-.38v-.91a2,2,0,0,1,2-2.11,2.12,2.12,0,0,1,2,2.07l.05,1a.44.44,0,0,0,.42.4h5.9c1,0,1.32.46,1.4.84s0,.92-1,1.3l-3.46,1.35a.23.23,0,0,0-.15.14.29.29,0,0,0,0,.2l1.22,2.32c.48.93.15,1.42-.1,1.63s-.77.47-1.62-.14L15.4,66.69a1.07,1.07,0,0,0-1,0L9.75,69.81a1.77,1.77,0,0,1-1,.36"/><path class="cls-2" d="M82.67,68.37c-2.49,0-5-1.65-7-4.63a.88.88,0,0,1,1.45-1c1.64,2.46,3.66,3.86,5.53,3.86a6.22,6.22,0,0,0,4.26-2.27c2.67-2.82,5.37-8.62,4.95-16.48-.27-5-2.3-8.7-4.74-8.7a3.47,3.47,0,0,0-2.51,1.36l-.34.4-.51-.11a4.91,4.91,0,0,0-2.38,0l-.53.13-.36-.42A3.46,3.46,0,0,0,78,39.17c-2.13,0-4.11,2.81-4.61,6.53a.89.89,0,0,1-1,.75.87.87,0,0,1-.74-1c.64-4.73,3.24-8,6.34-8a4.91,4.91,0,0,1,3.51,1.62,6.53,6.53,0,0,1,2.16,0,4.87,4.87,0,0,1,3.49-1.59c3.48,0,6.15,4.25,6.48,10.35.45,8.4-2.51,14.69-5.42,17.77a7.85,7.85,0,0,1-5.53,2.82"/><path class="cls-2" d="M65.77,49h0a.89.89,0,0,1-.85-.9c0-.23,0-.46,0-.69.38-6.11,3.53-10.54,7.49-10.54a5.94,5.94,0,0,1,3.85,1.49.87.87,0,0,1-1.13,1.33,4.22,4.22,0,0,0-2.72-1.08c-3,0-5.43,3.75-5.75,8.91,0,.22,0,.42,0,.63a.89.89,0,0,1-.87.85"/><path class="cls-2" d="M77.69,68.37a7.56,7.56,0,0,1-2.61-.48.88.88,0,0,1-.53-1.12.87.87,0,0,1,1.12-.52,5.77,5.77,0,0,0,4.17,0,.87.87,0,0,1,.61,1.63,7.71,7.71,0,0,1-2.76.52"/><path class="cls-2" d="M74.7,33.86h0m7.06,6.9h-.08a.87.87,0,0,1-.78-.95,18.7,18.7,0,0,0,0-5.69c-.24-.62-1.25-.84-2.12-.84a3.2,3.2,0,0,0-2.62,1.55,1,1,0,0,1-1.22.38,4.75,4.75,0,0,1-2-2.88A6.62,6.62,0,0,1,86.05,33c0,.27-.07,3.66-.11,5.81V39a.87.87,0,0,1-.9.85.86.86,0,0,1-.85-.89v-.16c0-2.13.11-5.5.11-5.77a4.65,4.65,0,0,0-4.84-4.41,4.71,4.71,0,0,0-4.78,3.72,6.44,6.44,0,0,0,.54.85,4.76,4.76,0,0,1,3.54-1.65c1.91,0,3.27.72,3.75,2s.33,4.22.12,6.47a.87.87,0,0,1-.87.79"/><path class="cls-2" d="M37.89,85.55a.91.91,0,0,1-.68-.31A.87.87,0,0,1,37.33,84c3.18-2.65,3-7.09,3-7.13a.87.87,0,1,1,1.74-.09c0,.21.24,5.35-3.61,8.56a.89.89,0,0,1-.55.2m1.54,3a13.16,13.16,0,0,0,5.93,1.54,3.19,3.19,0,0,0,3.47-3.22A3.09,3.09,0,0,0,46,83.49,10,10,0,0,1,43.4,83a18.72,18.72,0,0,1-2.13,3.49,11.23,11.23,0,0,0,4.23.82.85.85,0,0,1,.91.82.87.87,0,0,1-.83.92,12.25,12.25,0,0,1-5.5-1.19c-.21.23-.43.44-.65.65m5.93,3.28A15.17,15.17,0,0,1,38,89.75a11,11,0,0,1-3.72,1.88,5.19,5.19,0,0,1-6-2.44,5.12,5.12,0,0,1,1.34-6.34.87.87,0,0,1,1.16,1.3,3.37,3.37,0,0,0-1,4.22,3.41,3.41,0,0,0,4,1.57,9.63,9.63,0,0,0,3.5-1.88l.07-.06a16,16,0,0,0,1.78-1.72l.08-.09a16.52,16.52,0,0,0,2.81-4.52.49.49,0,0,1,0-.11l0,0A12.28,12.28,0,0,0,43.08,77a3.2,3.2,0,0,0-3.25-3.43,3.08,3.08,0,0,0-3.4,2.79c-.3,5.28-3.9,6.84-4.06,6.9a.87.87,0,1,1-.67-1.6c.12-.06,2.75-1.27,3-5.4a4.81,4.81,0,0,1,5.2-4.43A4.93,4.93,0,0,1,44.82,77a13.8,13.8,0,0,1-.76,4.4,8.78,8.78,0,0,0,2,.35,4.84,4.84,0,0,1,4.47,5.16,5,5,0,0,1-5.22,4.91"/><path class="cls-2" d="M53.29,83.63a24,24,0,0,1-10-2.17A.87.87,0,1,1,44,79.88a22.55,22.55,0,0,0,19.47-.41A.87.87,0,0,1,64.22,81a24.33,24.33,0,0,1-10.93,2.6"/><path class="cls-2" d="M35.67,75.6a.87.87,0,0,1-.66-.3,23.87,23.87,0,0,1-5.83-15.63.87.87,0,0,1,.87-.87H76.52a.87.87,0,0,1,.87.87,23.57,23.57,0,0,1-2.21,10A.87.87,0,1,1,73.6,69a21.92,21.92,0,0,0,2-8.42H30.94a22.13,22.13,0,0,0,5.39,13.61.86.86,0,0,1-.09,1.23.87.87,0,0,1-.57.21"/><path class="cls-2" d="M61.1,60.54a.75.75,0,0,1-.21,0,.88.88,0,0,1-.65-1.05,9.15,9.15,0,0,0,.26-2.21A9.69,9.69,0,1,0,41.31,59.2a.87.87,0,0,1-.68,1,.88.88,0,0,1-1-.68,11.7,11.7,0,0,1-.23-2.29,11.44,11.44,0,0,1,22.88,0,10.9,10.9,0,0,1-.31,2.61.85.85,0,0,1-.84.67"/><path class="cls-2" d="M44.63,60.14h-.17a.87.87,0,0,1-.69-1,7.19,7.19,0,0,1,14.25,0,.86.86,0,0,1-.69,1,.87.87,0,0,1-1-.69,5.46,5.46,0,0,0-10.83,0,.87.87,0,0,1-.85.71"/><path class="cls-2" d="M33.14,49.27a.87.87,0,0,1-.87-.88,7.37,7.37,0,0,1,14.66-1.08.87.87,0,1,1-1.73.26A5.63,5.63,0,0,0,34,48.39a.87.87,0,0,1-.87.88"/><path class="cls-2" d="M33.27,60.55a1,1,0,0,1-.25,0A11.18,11.18,0,0,1,25.63,47.7a.89.89,0,0,1,.44-.63c.5-.29,5.16-.59,9,1.65,2.52,1.48,5.51,4.58,5.45,11a.89.89,0,0,1-.88.87.87.87,0,0,1-.86-.89c0-3.81-1.1-6.69-3.36-8.57a12.46,12.46,0,0,0-8.13-2.46,9.17,9.17,0,0,0,2.68,8,9.9,9.9,0,0,0,3.55,2.18.87.87,0,0,1,.6,1.08.89.89,0,0,1-.84.63"/><path class="cls-2" d="M64.82,50.15a.8.8,0,0,1-.34-.07A.87.87,0,0,1,64,48.94a9.62,9.62,0,0,0-1.58-10.61,12.16,12.16,0,0,0-7.67,8.59.87.87,0,1,1-1.71-.32,13.68,13.68,0,0,1,9.38-10.09.85.85,0,0,1,.82.18,11.47,11.47,0,0,1,2.36,12.93.86.86,0,0,1-.8.53"/><path class="cls-2" d="M72.76,60.54a.87.87,0,0,1-.75-.42.88.88,0,0,1,.3-1.2c6.94-4.09,6.6-10.38,6.33-12.22C64.7,44.9,62.32,54.62,62.23,55a.87.87,0,0,1-1,.66.88.88,0,0,1-.67-1c0-.12,2.86-12,19-9.6a.93.93,0,0,1,.72.66c0,.1,2.22,9.24-7,14.7a.79.79,0,0,1-.44.12"/><path class="cls-2" d="M58.47,50.9a.88.88,0,0,1-.87-.78c0-.24-.56-6,3.32-8.34a.86.86,0,0,1,1.2.28.88.88,0,0,1-.29,1.2c-2.94,1.81-2.5,6.63-2.49,6.68a.88.88,0,0,1-.78,1h-.09"/><path class="cls-2" d="M65.8,60a.88.88,0,0,1-.88-.84c0-.22-.14-5.55,7.22-9.52a.88.88,0,0,1,1.18.36A.87.87,0,0,1,73,51.19c-6.35,3.41-6.31,7.74-6.3,7.92a.88.88,0,0,1-.84.9Z"/><path class="cls-2" d="M38.83,66.77H30.91a.87.87,0,0,1,0-1.74h7.92a.87.87,0,1,1,0,1.74"/><path class="cls-2" d="M75.35,66.77H44.86a.87.87,0,1,1,0-1.74H75.35a.87.87,0,1,1,0,1.74"/><path class="cls-2" d="M70.84,88.66c-4.19,0-7.4-3.1-7.65-5.87a14,14,0,0,1-.07-2.74A34,34,0,0,1,65,71.83c.86-2.17,3.17-4.46,5.8-4.46a6.51,6.51,0,0,1,5.85,4.73,23.6,23.6,0,0,1,.9,2.61A.87.87,0,0,1,77,75.79a.88.88,0,0,1-1.08-.6,23.33,23.33,0,0,0-.85-2.43l0-.09a4.82,4.82,0,0,0-4.2-3.55c-1.77,0-3.54,1.72-4.17,3.33a32.82,32.82,0,0,0-1.81,7.7,12.29,12.29,0,0,0,.06,2.41c.17,1.86,2.5,4.36,5.92,4.36a6.38,6.38,0,0,0,3.59-1.18.87.87,0,0,1,1.22.21.86.86,0,0,1-.22,1.21,8,8,0,0,1-4.59,1.5"/><path class="cls-2" d="M68.24,73.48l-.15,0a.87.87,0,0,1-.71-1,4.33,4.33,0,0,1,.73-1.59A3.91,3.91,0,0,1,70,69.51a.87.87,0,0,1,.64,1.62,2.14,2.14,0,0,0-1.12.77,2.5,2.5,0,0,0-.43.87.89.89,0,0,1-.86.71"/><path class="cls-2" d="M80.54,87.57h.13a24.8,24.8,0,0,0,7.41-1.23l.09,0c2.11-.53,3.73-2.18,3.85-3.93S90.51,78.77,88.94,78a34.18,34.18,0,0,0-7.62-2.3,12.5,12.5,0,0,0-2.43-.09c-1.87,0-4.54,2.19-4.76,5.57-.21,3.2,2.42,5.89,3.93,6.13l.24.05a7.56,7.56,0,0,0,2.24.17m.13,1.75h-.14a9.51,9.51,0,0,1-2.61-.21l-.19,0c-2.28-.37-5.62-3.74-5.34-8S76,74,78.79,73.91a13.4,13.4,0,0,1,2.75.1,35,35,0,0,1,8.12,2.44c2.12,1,4.27,3.44,4.1,6A6.5,6.5,0,0,1,88.63,88a26.45,26.45,0,0,1-8,1.32"/><path class="cls-2" d="M90.84,82.68a.87.87,0,0,1-.83-.6,2.13,2.13,0,0,0-.7-1.16,3,3,0,0,0-.84-.49.87.87,0,0,1,.39-1.7,4.18,4.18,0,0,1,1.55.83,3.92,3.92,0,0,1,1.25,2,.86.86,0,0,1-.82,1.14"/></g></g></svg>