<svg xmlns="http://www.w3.org/2000/svg" viewBox="0 0 100 100"><defs><style>.cls-1{fill:none;}.cls-2{fill:#4d4d4f;}</style></defs><title>iwatchgrey</title><g id="Layer_2" data-name="Layer 2"><g id="Layer_1-2" data-name="Layer 1"><rect class="cls-1" width="100" height="100"/><path class="cls-2" d="M78.56,49a4.67,4.67,0,0,1-3.15,4.41V44.55A4.69,4.69,0,0,1,78.56,49m-6.24,24.4a8.55,8.55,0,0,1-8.54,8.54H30a8.55,8.55,0,0,1-8.54-8.54V26.74A8.55,8.55,0,0,1,30,18.2h33.8a8.55,8.55,0,0,1,8.54,8.54V73.37ZM61.22,86.76l-1.5,8.44a2.06,2.06,0,0,1-2,1.7H36.07a2.07,2.07,0,0,1-2-1.7l-1.5-8.45c-.13-.72-.22-1.21-.28-1.75H61.5a17.37,17.37,0,0,1-.28,1.76M32.57,13.06,34,4.8a2.07,2.07,0,0,1,2-1.7H57.69a2.07,2.07,0,0,1,2,1.7l1.47,8.25c.15.86.26,1.43.31,2.06H32.26c.06-.64.16-1.21.31-2m32.05,2.09a23.15,23.15,0,0,0-.38-2.65L62.78,4.26A5.16,5.16,0,0,0,57.69,0H36.08A5.16,5.16,0,0,0,31,4.26l-1.47,8.25a22.86,22.86,0,0,0-.37,2.64A11.64,11.64,0,0,0,18.34,26.74V73.37A11.64,11.64,0,0,0,29.15,85a20.86,20.86,0,0,0,.33,2.34L31,95.74A5.16,5.16,0,0,0,36.07,100H57.68a5.17,5.17,0,0,0,5.09-4.26l1.5-8.42A19.44,19.44,0,0,0,64.61,85a11.63,11.63,0,0,0,10.8-11.59V56.57a7.75,7.75,0,0,0,0-15.21V26.74A11.64,11.64,0,0,0,64.62,15.15"/><path class="cls-2" d="M59.85,22.07H33.91a8.29,8.29,0,0,0-8.28,8.28V69.77A8.29,8.29,0,0,0,33.91,78a1.55,1.55,0,1,0,0-3.1,5.18,5.18,0,0,1-5.18-5.17V30.35a5.18,5.18,0,0,1,5.18-5.18H59.85A5.19,5.19,0,0,1,65,30.35V69.77a5.19,5.19,0,0,1-5.18,5.17H44A1.55,1.55,0,0,0,44,78H59.85a8.28,8.28,0,0,0,8.27-8.27V30.35a8.28,8.28,0,0,0-8.27-8.28"/></g></g></svg>