<svg xmlns="http://www.w3.org/2000/svg" xmlns:xlink="http://www.w3.org/1999/xlink" viewBox="0 0 300 300"><defs><style>.cls-1{fill:none;}.cls-2{fill:#fff;}.cls-3{clip-path:url(#clip-path);}.cls-4{fill:url(#linear-gradient);}.cls-5{clip-path:url(#clip-path-2);}.cls-6{clip-path:url(#clip-path-3);}</style><clipPath id="clip-path"><path class="cls-1" d="M2.13,150A147.87,147.87,0,1,0,150,2.13,147.88,147.88,0,0,0,2.13,150"/></clipPath><linearGradient id="linear-gradient" x1="-3706.63" y1="1428.29" x2="-3696.41" y2="1428.29" gradientTransform="matrix(29.43, 0, 0, -29.43, 109078.39, 42181.74)" gradientUnits="userSpaceOnUse"><stop offset="0" stop-color="#065ca8"/><stop offset="1" stop-color="#44c5e9"/></linearGradient><clipPath id="clip-path-2"><path class="cls-2" d="M150,300C67.29,300,0,232.71,0,150S67.29,0,150,0,300,67.29,300,150,232.71,300,150,300ZM150,4.26C69.64,4.26,4.27,69.64,4.27,150S69.64,295.74,150,295.74,295.73,230.36,295.73,150,230.36,4.26,150,4.26Z"/></clipPath><clipPath id="clip-path-3"><rect class="cls-2" x="2.13" y="2.13" width="295.73" height="295.74"/></clipPath></defs><title>iwatch</title><g id="Layer_2" data-name="Layer 2"><g id="Layer_1-2" data-name="Layer 1"><g class="cls-3"><rect class="cls-4" x="2.13" y="2.13" width="295.73" height="295.74"/></g><path class="cls-2" d="M150,300C67.29,300,0,232.71,0,150S67.29,0,150,0,300,67.29,300,150,232.71,300,150,300ZM150,4.26C69.64,4.26,4.27,69.64,4.27,150S69.64,295.74,150,295.74,295.73,230.36,295.73,150,230.36,4.26,150,4.26Z"/><g class="cls-5"><rect class="cls-2" x="2.13" y="2.13" width="295.73" height="295.74"/><g class="cls-6"><rect class="cls-2" x="2.13" y="2.13" width="147.87" height="295.74"/><rect class="cls-2" x="150" y="2.13" width="147.87" height="295.74"/></g><path class="cls-2" d="M300,300H0V0H300ZM4.27,295.74H295.73V4.26H4.27Z"/></g><rect class="cls-1" x="58.14" y="54.51" width="192.77" height="192.77"/><path class="cls-2" d="M209.58,148.9a9,9,0,0,1-6.06,8.51v-17a9,9,0,0,1,6.06,8.5m-12,47a16.48,16.48,0,0,1-16.46,16.45H115.92A16.47,16.47,0,0,1,99.47,196v-89.9A16.47,16.47,0,0,1,115.92,89.6h65.17a16.48,16.48,0,0,1,16.46,16.45V196Zm-21.39,25.81L173.26,238a4,4,0,0,1-3.93,3.29H127.68a4,4,0,0,1-3.94-3.28l-2.9-16.29c-.25-1.4-.42-2.34-.53-3.37h56.38c-.1,1-.27,2-.53,3.39M120.93,79.68l2.83-15.91a4,4,0,0,1,3.93-3.3h41.66a4,4,0,0,1,3.92,3.3l2.84,15.89c.3,1.67.5,2.76.61,4h-56.4c.12-1.24.31-2.33.61-3.95m61.78,4A47.36,47.36,0,0,0,182,78.6l-2.82-15.89a10,10,0,0,0-9.81-8.2H127.69a10,10,0,0,0-9.81,8.21l-2.83,15.9a44.25,44.25,0,0,0-.72,5.1A22.42,22.42,0,0,0,93.5,106.05V196a22.42,22.42,0,0,0,20.82,22.33,39,39,0,0,0,.65,4.52l2.9,16.28a10,10,0,0,0,9.81,8.2h41.65a10,10,0,0,0,9.81-8.2L182,222.85a38.13,38.13,0,0,0,.66-4.57A22.42,22.42,0,0,0,203.52,196V163.56a14.95,14.95,0,0,0,0-29.32V106.05a22.43,22.43,0,0,0-20.81-22.33"/><path class="cls-2" d="M173.51,97.05h-50a16,16,0,0,0-16,16v76a16,16,0,0,0,16,15.94,3,3,0,0,0,0-6,10,10,0,0,1-10-10V113a10,10,0,0,1,10-10h50a10,10,0,0,1,10,10v76a10,10,0,0,1-10,10H143a3,3,0,0,0,0,6h30.47a16,16,0,0,0,16-15.94V113a16,16,0,0,0-16-16"/></g></g></svg>