<svg xmlns="http://www.w3.org/2000/svg" xmlns:xlink="http://www.w3.org/1999/xlink" viewBox="0 0 300 300"><defs><style>.cls-1{fill:none;}.cls-2{fill:#fff;}.cls-3{clip-path:url(#clip-path);}.cls-4{fill:url(#linear-gradient);}.cls-5{clip-path:url(#clip-path-2);}.cls-6{clip-path:url(#clip-path-3);}</style><clipPath id="clip-path"><path class="cls-1" d="M2.13,150A147.87,147.87,0,1,0,150,2.13,147.88,147.88,0,0,0,2.13,150"/></clipPath><linearGradient id="linear-gradient" x1="-3026.56" y1="1264.92" x2="-3016.33" y2="1264.92" gradientTransform="matrix(29.43, 0, 0, -29.43, 89065.09, 37374.11)" gradientUnits="userSpaceOnUse"><stop offset="0" stop-color="#065ca8"/><stop offset="1" stop-color="#44c5e9"/></linearGradient><clipPath id="clip-path-2"><path class="cls-2" d="M150,300C67.29,300,0,232.71,0,150S67.29,0,150,0,300,67.29,300,150,232.71,300,150,300ZM150,4.26C69.64,4.26,4.27,69.64,4.27,150S69.64,295.74,150,295.74,295.73,230.36,295.73,150,230.36,4.26,150,4.26Z"/></clipPath><clipPath id="clip-path-3"><rect class="cls-2" x="2.13" y="2.13" width="295.73" height="295.74"/></clipPath></defs><title>moneybag_1</title><g id="Layer_2" data-name="Layer 2"><g id="Layer_1-2" data-name="Layer 1"><g class="cls-3"><rect class="cls-4" x="2.13" y="2.13" width="295.73" height="295.74"/></g><path class="cls-2" d="M150,300C67.29,300,0,232.71,0,150S67.29,0,150,0,300,67.29,300,150,232.71,300,150,300ZM150,4.26C69.64,4.26,4.27,69.64,4.27,150S69.64,295.74,150,295.74,295.73,230.36,295.73,150,230.36,4.26,150,4.26Z"/><g class="cls-5"><rect class="cls-2" x="2.13" y="2.13" width="295.73" height="295.74"/><g class="cls-6"><rect class="cls-2" x="2.13" y="2.13" width="147.87" height="295.74"/><rect class="cls-2" x="150" y="2.13" width="147.87" height="295.74"/></g><path class="cls-2" d="M300,300H0V0H300ZM4.27,295.74H295.73V4.26H4.27Z"/></g><rect class="cls-1" x="53.86" y="56.48" width="187.04" height="187.04"/><path class="cls-2" d="M178,106.5c14.75,0,42.85,37.7,42.85,63.07,0,25.14-21.52,36.4-42.85,36.4-.57,0-1.11,0-1.68,0a18.77,18.77,0,0,1,1.39,4.94h12.06c22.55-4,37-19.57,37-41.3,0-27.09-29.63-69-48.77-69-17,0-42.26,33-47.7,59.41l5.14,4.89c3-25.07,28.69-58.38,42.56-58.38"/><path class="cls-2" d="M197,66.19a3,3,0,0,0-2.05-1.76l-32.63-7.87a3,3,0,0,0-3.46,3.91l7.92,21.43a3,3,0,0,0,2.77,1.94,3,3,0,0,0,1-.19,2.94,2.94,0,0,0,1.93-2.77,2.78,2.78,0,0,0-.18-1l-6-16.25,23.23,5.6-6.34,10.1a2.89,2.89,0,0,0-.45,1.57,2.95,2.95,0,0,0,5.45,1.57l8.55-13.57a3,3,0,0,0,.23-2.69"/><path class="cls-2" d="M165.91,89a3,3,0,0,0,0,5.92H190A3,3,0,1,0,190,89Z"/><path class="cls-2" d="M171.26,144.52h5.83c3.33,0,5.74.58,7.25,1.7s2.25,3,2.25,5.52a7,7,0,0,1-2.21,5.65c-1.48,1.27-3.8,1.89-7,1.89h-6.15ZM169,179.18a2.24,2.24,0,0,0,2.24-2.25v-13.8h8.05L188,178.05a2.26,2.26,0,1,0,3.88-2.3l-8.4-13.92q7.76-2.69,7.76-10.33,0-5.46-3.39-8.19c-2.27-1.81-5.76-2.71-10.5-2.71h-8.61a2,2,0,0,0-2,2v34.36a2.24,2.24,0,0,0,2.24,2.25"/><path class="cls-2" d="M222.1,216.34H185.18a2.73,2.73,0,1,0,0,5.46H222.1a8.13,8.13,0,1,1,0,16.25H144.94a25,25,0,0,1-14.95-5L81.88,196.84a2.64,2.64,0,0,0-1.64-.55H54.56V163h63l46.83,44.58a8.31,8.31,0,0,1-11.27,12.21l-21.28-19.12a2.73,2.73,0,0,0-3.65,4.07l21.28,19.1a13.77,13.77,0,0,0,18.69-20.22l-47.62-45.33a2.8,2.8,0,0,0-1.9-.76H51.82a2.73,2.73,0,0,0-2.72,2.74V199a2.73,2.73,0,0,0,2.72,2.74h27.5l47.38,35.68a30.44,30.44,0,0,0,18.24,6.09H222.1a13.59,13.59,0,1,0,0-27.18"/></g></g></svg>