<svg xmlns="http://www.w3.org/2000/svg" viewBox="0 0 100 100"><defs><style>.cls-1{fill:none;}.cls-2{fill:#4d4d4f;}</style></defs><title>moneybaggrey</title><g id="Layer_2" data-name="Layer 2"><g id="Layer_1-2" data-name="Layer 1"><rect class="cls-1" width="100" height="100"/><path class="cls-2" d="M69,26.74c7.89,0,22.92,20.16,22.92,33.72S80.43,79.92,69,79.92l-.89,0a10.29,10.29,0,0,1,.74,2.64h6.45C87.37,80.42,95.1,72.08,95.1,60.46,95.1,46,79.26,23.58,69,23.58c-9.09,0-22.59,17.66-25.5,31.76L46.27,58C47.89,44.55,61.61,26.74,69,26.74"/><path class="cls-2" d="M79.19,5.19a1.6,1.6,0,0,0-1.1-.94L60.65.05A1.55,1.55,0,0,0,59.1.53a1.59,1.59,0,0,0-.3,1.6L63,13.59a1.58,1.58,0,0,0,1.48,1,1.78,1.78,0,0,0,.55-.1,1.58,1.58,0,0,0,1-1.48,1.45,1.45,0,0,0-.1-.55l-3.2-8.69,12.42,3L71.82,12.2a1.63,1.63,0,0,0-.24.85,1.58,1.58,0,0,0,2.92.84l4.56-7.26a1.6,1.6,0,0,0,.13-1.44"/><path class="cls-2" d="M62.57,17.36a1.58,1.58,0,1,0,0,3.16h12.9a1.58,1.58,0,0,0,0-3.16Z"/><path class="cls-2" d="M65.43,47.07h3.12a6.52,6.52,0,0,1,3.87.91,3.42,3.42,0,0,1,1.21,3,3.74,3.74,0,0,1-1.18,3,5.67,5.67,0,0,1-3.73,1H65.43ZM64.23,65.6a1.2,1.2,0,0,0,1.2-1.2V57h4.31l4.64,8a1.21,1.21,0,1,0,2.08-1.24L72,56.33c2.76-1,4.15-2.8,4.15-5.53a5.26,5.26,0,0,0-1.82-4.37Q72.49,45,68.69,45h-4.6A1.05,1.05,0,0,0,63,46V64.4a1.2,1.2,0,0,0,1.2,1.2"/><path class="cls-2" d="M92.62,85.47H72.87a1.46,1.46,0,0,0,0,2.92H92.62a4.35,4.35,0,0,1,0,8.69H51.36a13.35,13.35,0,0,1-8-2.67L17.64,75a1.42,1.42,0,0,0-.87-.29H3V56.94H36.73l25,23.83a4.44,4.44,0,0,1-6,6.53L44.37,77.08a1.46,1.46,0,1,0-1.95,2.18L53.79,89.47a7.36,7.36,0,0,0,10-10.81L38.32,54.42a1.45,1.45,0,0,0-1-.4H1.58A1.46,1.46,0,0,0,.12,55.48V76.21a1.46,1.46,0,0,0,1.46,1.46H16.27L41.61,96.74A16.24,16.24,0,0,0,51.36,100H92.62a7.27,7.27,0,0,0,0-14.53"/></g></g></svg>