<svg xmlns="http://www.w3.org/2000/svg" viewBox="0 0 100 100"><defs><style>.cls-1{fill:none;}.cls-2{fill:#4d4d4f;}</style></defs><title>popcorngrey</title><g id="Layer_2" data-name="Layer 2"><g id="Layer_1-2" data-name="Layer 1"><rect class="cls-1" width="100" height="100"/><path class="cls-2" d="M69.09,37.74H80.94a1.83,1.83,0,0,1,1.39.64,1.79,1.79,0,0,1,.42,1.47L74.61,94.17A3.33,3.33,0,0,1,71.31,97H63.88Zm8.47,56.88L85.71,40.3a4.87,4.87,0,0,0-1.12-3.86,4.81,4.81,0,0,0-3.65-1.68H60.43a1.49,1.49,0,0,0,0,3H66.1L60.89,97H51V42.14a1.5,1.5,0,0,0,0-.22,7,7,0,0,0,3.56-2.35,1.48,1.48,0,0,0-.22-2.09,1.5,1.5,0,0,0-2.1.22,4,4,0,0,1-5.65.61,1.49,1.49,0,0,0-1.87,2.32A7,7,0,0,0,48,42.1V97H38.23L33.07,46.79a1.51,1.51,0,0,0-1.64-1.33,1.5,1.5,0,0,0-1.34,1.64L35.23,97H29.11a3.33,3.33,0,0,1-3.3-2.82L17.25,39.87a1.85,1.85,0,0,1,1.81-2.13H30.58a1.49,1.49,0,1,0,0-3H27.12a6.11,6.11,0,1,1,0-12.21,1.5,1.5,0,0,0,0-3,9.07,9.07,0,0,0-6.72,15.2H19.06a4.83,4.83,0,0,0-4.76,5.57l8.56,54.33A6.3,6.3,0,0,0,29.11,100h42.2a6.29,6.29,0,0,0,6.25-5.38"/><path class="cls-2" d="M82.91,31.48a1.52,1.52,0,0,0,.42.06,1.49,1.49,0,0,0,1.43-1.08A9.84,9.84,0,0,0,78,18.31a9.85,9.85,0,0,0-12.15,6.75,1.49,1.49,0,0,0,1,1.84,1.5,1.5,0,0,0,1.85-1,6.84,6.84,0,0,1,13.15,3.76,1.48,1.48,0,0,0,1,1.84"/><path class="cls-2" d="M57.73,8.06a1.49,1.49,0,0,0,2.88-.78,9.82,9.82,0,0,0-19,5.09,1.48,1.48,0,0,0,1.43,1.11,1.27,1.27,0,0,0,.39-.06,1.48,1.48,0,0,0,1.06-1.82,6.84,6.84,0,0,1,10-7.7,6.85,6.85,0,0,1,3.19,4.16"/><path class="cls-2" d="M74.5,16.3h.12a1.49,1.49,0,0,0,1.48-1.38A9.83,9.83,0,0,0,67,4.4a1.49,1.49,0,0,0-.22,3,6.85,6.85,0,0,1,6.32,7.32,1.49,1.49,0,0,0,1.37,1.6"/><path class="cls-2" d="M49.85,30.69H50a1.49,1.49,0,0,0,1.49-1.38,9.83,9.83,0,0,0-9.08-10.52,1.5,1.5,0,0,0-1.59,1.38,1.48,1.48,0,0,0,1.38,1.59,6.85,6.85,0,0,1,6.31,7.33,1.5,1.5,0,0,0,1.38,1.6"/><path class="cls-2" d="M25.18,11.64a1.48,1.48,0,0,0,1.15,1.76,1.06,1.06,0,0,0,.31,0,1.5,1.5,0,0,0,1.46-1.19,4,4,0,0,1,4.75-3.1,1.49,1.49,0,0,0,.62-2.92,7,7,0,0,0-8.29,5.41"/><path class="cls-2" d="M61.21,17.47a2,2,0,1,0,2-1.95,2,2,0,0,0-2,1.95"/><path class="cls-2" d="M40.31,27.34a2,2,0,1,0,2,1.95,1.95,1.95,0,0,0-2-1.95"/></g></g></svg>