<svg xmlns="http://www.w3.org/2000/svg" xmlns:xlink="http://www.w3.org/1999/xlink" viewBox="0 0 298.58 298.58"><defs><style>.cls-1{fill:none;}.cls-2{fill:#fff;}.cls-3{clip-path:url(#clip-path);}.cls-4{fill:url(#linear-gradient);}.cls-5{clip-path:url(#clip-path-2);}.cls-6{clip-path:url(#clip-path-3);}</style><clipPath id="clip-path"><path class="cls-1" d="M2.12,149.29A147.17,147.17,0,1,0,149.29,2.12,147.17,147.17,0,0,0,2.12,149.29"/></clipPath><linearGradient id="linear-gradient" x1="-3822.39" y1="845.19" x2="-3812.21" y2="845.19" gradientTransform="matrix(29.43, 0, 0, -29.43, 112484.8, 25021.56)" gradientUnits="userSpaceOnUse"><stop offset="0" stop-color="#065ca8"/><stop offset="1" stop-color="#44c5e9"/></linearGradient><clipPath id="clip-path-2"><path class="cls-2" d="M149.29,298.58C67,298.58,0,231.61,0,149.29S67,0,149.29,0,298.58,67,298.58,149.29,231.61,298.58,149.29,298.58Zm0-294.34c-80,0-145,65.07-145,145s65.06,145,145,145,145-65.07,145-145S229.27,4.24,149.29,4.24Z"/></clipPath><clipPath id="clip-path-3"><rect class="cls-2" x="2.12" y="2.12" width="294.34" height="294.34"/></clipPath></defs><title>popcorn</title><g id="Layer_2" data-name="Layer 2"><g id="Layer_1-2" data-name="Layer 1"><g class="cls-3"><rect class="cls-4" x="2.12" y="2.12" width="294.34" height="294.34"/></g><path class="cls-2" d="M149.29,298.58C67,298.58,0,231.61,0,149.29S67,0,149.29,0,298.58,67,298.58,149.29,231.61,298.58,149.29,298.58Zm0-294.34c-80,0-145,65.07-145,145s65.06,145,145,145,145-65.07,145-145S229.27,4.24,149.29,4.24Z"/><g class="cls-5"><rect class="cls-2" x="2.12" y="2.12" width="294.34" height="294.34"/><g class="cls-6"><rect class="cls-2" x="2.12" y="2.12" width="147.17" height="294.34"/><rect class="cls-2" x="149.29" y="2.12" width="147.17" height="294.34"/></g><path class="cls-2" d="M298.58,298.58H0V0H298.58ZM4.25,294.34H294.34V4.24H4.25Z"/></g><rect class="cls-1" x="74.71" y="73.53" width="149.29" height="149.29"/><path class="cls-2" d="M177.86,129.88h17.69a2.73,2.73,0,0,1,2.71,3.15l-12.17,81.09a5,5,0,0,1-4.92,4.25H170.08Zm12.64,84.91,12.17-81.1a7.2,7.2,0,0,0-7.12-8.26H164.93a2.23,2.23,0,1,0,0,4.45h8.46l-7.78,88.49H150.82V136.44a1.66,1.66,0,0,0,0-.32,10.42,10.42,0,0,0,5.32-3.51,2.23,2.23,0,0,0-3.47-2.79,6,6,0,0,1-8.43.91,2.23,2.23,0,0,0-2.8,3.47,10.5,10.5,0,0,0,5,2.18v82H131.79l-7.71-75a2.27,2.27,0,0,0-2.45-2,2.24,2.24,0,0,0-2,2.45l7.67,74.52h-9.14a5,5,0,0,1-4.92-4.21l-12.79-81.11a2.75,2.75,0,0,1,2.71-3.17h17.2a2.23,2.23,0,1,0,0-4.45H115.2a9.12,9.12,0,1,1,0-18.23,2.23,2.23,0,0,0,0-4.46,13.55,13.55,0,0,0-10,22.69h-2a7.18,7.18,0,0,0-7.11,8.31l12.79,81.12a9.4,9.4,0,0,0,9.32,8h63a9.39,9.39,0,0,0,9.33-8"/><path class="cls-2" d="M198.49,120.54a2.26,2.26,0,0,0,2.76-1.53,14.67,14.67,0,0,0-10.06-18.13,14.69,14.69,0,0,0-18.14,10.06,2.23,2.23,0,0,0,4.28,1.23,10.22,10.22,0,0,1,12.63-7,10.21,10.21,0,0,1,7,12.62,2.24,2.24,0,0,0,1.53,2.76"/><path class="cls-2" d="M160.9,85.56a2.23,2.23,0,1,0,4.3-1.15A14.66,14.66,0,1,0,136.87,92,2.23,2.23,0,0,0,139,93.65a2.3,2.3,0,0,0,.58-.07,2.22,2.22,0,0,0,1.57-2.73,10.21,10.21,0,0,1,19.73-5.29"/><path class="cls-2" d="M185.94,97.87h.17a2.23,2.23,0,0,0,2.22-2.07,14.68,14.68,0,0,0-13.55-15.7,2.23,2.23,0,0,0-.33,4.44,10.22,10.22,0,0,1,9.43,10.93,2.23,2.23,0,0,0,2.06,2.39"/><path class="cls-2" d="M149.14,119.35h.16a2.23,2.23,0,0,0,2.23-2.06A14.7,14.7,0,0,0,138,101.58a2.25,2.25,0,0,0-2.38,2.06,2.23,2.23,0,0,0,2.06,2.39A10.22,10.22,0,0,1,147.08,117a2.23,2.23,0,0,0,2.06,2.39"/><path class="cls-2" d="M112.3,90.91A2.2,2.2,0,0,0,114,93.54a1.88,1.88,0,0,0,.46.06,2.24,2.24,0,0,0,2.18-1.77,6,6,0,0,1,7.1-4.63,2.23,2.23,0,0,0,.92-4.36,10.47,10.47,0,0,0-12.38,8.07"/><path class="cls-2" d="M166.1,99.62A2.91,2.91,0,1,0,169,96.71a2.92,2.92,0,0,0-2.92,2.91"/><path class="cls-2" d="M134.9,114.34a2.92,2.92,0,1,0,2.91,2.92,2.92,2.92,0,0,0-2.91-2.92"/></g></g></svg>