<svg xmlns="http://www.w3.org/2000/svg" viewBox="0 0 200.5 200"><defs><style>.cls-1{fill:none;}.cls-2{fill:#4d4d4f;}</style></defs><title>salad</title><g id="Layer_2" data-name="Layer 2"><g id="Layer_1-2" data-name="Layer 1"><rect class="cls-1" x="50.25" y="50" width="100" height="100"/><path class="cls-2" d="M189.37,97.37h-7.09c4.09-8.44,4.47-23.86,4.5-25.87a2.88,2.88,0,0,0-2.84-2.92h-.05A2.88,2.88,0,0,0,181,71.42c-.11,8-1.64,21.91-5.24,25.51a2.57,2.57,0,0,0-.29.44H173a47,47,0,0,0-15.3-31.55,128.53,128.53,0,0,1,36.26-11c.45,6.74.91,24.38-4.57,42.58m-33.9,0a29.63,29.63,0,0,0-58.91,0H84.85a41.29,41.29,0,0,1,82.32,0Zm-53.09,0a23.86,23.86,0,0,1,47.27,0Zm-23.32,0H20.26a130.33,130.33,0,0,1-13.76-29C16.4,66,50.72,59.3,78,74.53a71.8,71.8,0,0,1,6.44,4.1,46.66,46.66,0,0,0-5.35,18.74M50.42,6.87c8.66,5.34,37.5,25,45.87,55.17.16.58.3,1.17.44,1.76a48.07,48.07,0,0,0-9.31,9.9,71.76,71.76,0,0,0-6.64-4.19C66.46,61.51,50.66,59.08,37,59c-.17-23.54,9.73-45,13.44-52.12m147.2,90.5h-2.17a127.84,127.84,0,0,0,4-46.16,2.88,2.88,0,0,0-3.1-2.51,128,128,0,0,0-43.67,13.12,47,47,0,0,0-50.87-1.53C91.21,22.65,52.33,1.24,50.67.35a2.87,2.87,0,0,0-3.84,1.06c-.79,1.33-16,27.48-15.64,57.68A127.18,127.18,0,0,0,2,63.58,2.89,2.89,0,0,0,.09,67.07a128.63,128.63,0,0,0,13.29,30.3H2.88A2.88,2.88,0,0,0,0,100.25,101.2,101.2,0,0,0,2.59,123a.06.06,0,0,0,0,0A100.06,100.06,0,0,0,89,199.88a2.9,2.9,0,0,0,3.18-2.54c0-.11,0-.21,0-.31a2.86,2.86,0,0,0-2.54-2.87A94.29,94.29,0,0,1,9.12,125.27H40.79a2.88,2.88,0,1,0,0-5.75h-33a95.34,95.34,0,0,1-1.94-16.4H194.71a97.35,97.35,0,0,1-1.93,16.4H75.33a2.88,2.88,0,1,0,0,5.75H191.41a94.1,94.1,0,0,1-81.49,69,2.87,2.87,0,0,0-2.58,2.84c0,.11,0,.21,0,.31A2.9,2.9,0,0,0,110.2,200l.29,0a99.89,99.89,0,0,0,90-99.73,2.88,2.88,0,0,0-2.88-2.88"/><path class="cls-2" d="M82.55,61.49a2.88,2.88,0,0,0,1.54-3.77A94,94,0,0,0,57.4,22.4,2.88,2.88,0,0,0,53.92,27c.16.12,16.32,12.61,24.86,33a2.88,2.88,0,0,0,2.66,1.77,2.76,2.76,0,0,0,1.11-.23"/><path class="cls-2" d="M66.84,77.92c-18.34-7.71-43.93-5.59-45-5.49a2.88,2.88,0,1,0,.49,5.73c.26,0,25.24-2.09,42.28,5.06a2.76,2.76,0,0,0,1.11.23,2.88,2.88,0,0,0,1.12-5.53"/><rect class="cls-1" x="0.25" width="200" height="200"/></g></g></svg>