<svg xmlns="http://www.w3.org/2000/svg" viewBox="0 0 100 100"><defs><style>.cls-1{fill:none;}.cls-2{fill:#4d4d4f;}</style></defs><title>saladgrey</title><g id="Layer_2" data-name="Layer 2"><g id="Layer_1-2" data-name="Layer 1"><rect class="cls-1" width="100" height="100"/><path class="cls-2" d="M94.45,48.69H90.91c2-4.21,2.23-11.9,2.25-12.91a1.44,1.44,0,0,0-1.42-1.45h0a1.45,1.45,0,0,0-1.44,1.41c0,4-.81,10.93-2.61,12.73a1.18,1.18,0,0,0-.14.22H86.27A23.44,23.44,0,0,0,78.64,33a64.49,64.49,0,0,1,18.09-5.5,63.06,63.06,0,0,1-2.28,21.24m-16.91,0a14.78,14.78,0,0,0-29.38,0H42.32a20.59,20.59,0,0,1,41.06,0Zm-26.48,0a11.9,11.9,0,0,1,23.58,0Zm-11.63,0H10.1A65.62,65.62,0,0,1,3.24,34.22c4.94-1.2,22-4.52,35.65,3.07a36.46,36.46,0,0,1,3.21,2.05,23.31,23.31,0,0,0-2.67,9.35M25.15,3.55C29.47,6.21,43.85,16,48,31.06c.08.3.16.59.23.89a23.65,23.65,0,0,0-4.65,4.93,35.67,35.67,0,0,0-3.31-2.09c-7.14-4-15-5.2-21.84-5.25-.09-11.74,4.85-22.42,6.7-26M98.57,48.69H97.48a63.79,63.79,0,0,0,2-23,1.44,1.44,0,0,0-1.54-1.26A64,64,0,0,0,76.13,31a23.42,23.42,0,0,0-25.37-.77C45.49,11.42,26.1.74,25.27.3a1.42,1.42,0,0,0-1.91.53c-.4.66-8,13.71-7.8,28.76A62.85,62.85,0,0,0,1,31.84a1.42,1.42,0,0,0-1,1.73A63.57,63.57,0,0,0,6.67,48.69H1.44A1.43,1.43,0,0,0,0,50.12,50.45,50.45,0,0,0,1.29,61.45v0A49.89,49.89,0,0,0,44.38,99.81,1.44,1.44,0,0,0,46,98.55a.75.75,0,0,0,0-.15A1.42,1.42,0,0,0,44.7,97,47,47,0,0,1,4.55,62.6H20.34a1.44,1.44,0,1,0,0-2.87H3.86a47.76,47.76,0,0,1-1-8.17H97.11a47.76,47.76,0,0,1-1,8.17H37.57a1.44,1.44,0,0,0,0,2.87h57.9A46.93,46.93,0,0,1,54.82,97a1.44,1.44,0,0,0-1.28,1.42.75.75,0,0,0,0,.15A1.44,1.44,0,0,0,55,99.88h.15A49.84,49.84,0,0,0,100,50.12a1.43,1.43,0,0,0-1.43-1.43"/><path class="cls-2" d="M41.17,30.8a1.44,1.44,0,0,0,.77-1.89A46.81,46.81,0,0,0,28.63,11.3a1.43,1.43,0,1,0-1.74,2.28A44.65,44.65,0,0,1,39.29,30a1.44,1.44,0,0,0,1.33.89,1.54,1.54,0,0,0,.55-.11"/><path class="cls-2" d="M33.34,39c-9.15-3.85-21.91-2.79-22.45-2.74a1.44,1.44,0,1,0,.25,2.86c.13,0,12.59-1,21.09,2.52a1.35,1.35,0,0,0,.55.11A1.43,1.43,0,0,0,33.34,39"/></g></g></svg>