<svg xmlns="http://www.w3.org/2000/svg" viewBox="0 0 100 100"><defs><style>.cls-1{fill:none;}.cls-2{fill:#4d4d4f;}</style></defs><title>weightgrey</title><g id="Layer_2" data-name="Layer 2"><g id="Layer_1-2" data-name="Layer 1"><rect class="cls-1" width="100" height="100"/><path class="cls-2" d="M21.31,50a1.77,1.77,0,0,0,1.77,1.77H76.64a1.77,1.77,0,0,0,0-3.54H23.08A1.77,1.77,0,0,0,21.31,50"/><path class="cls-2" d="M85.42,76.78V23.22a1.77,1.77,0,1,0-3.54,0V76.78a1.77,1.77,0,1,0,3.54,0"/><path class="cls-2" d="M90.66,70.66a1.77,1.77,0,0,0,1.77-1.77V31.1a1.77,1.77,0,0,0-3.54,0V68.89a1.77,1.77,0,0,0,1.77,1.77"/><path class="cls-2" d="M98.23,63.72A1.77,1.77,0,0,0,100,62V38.05a1.77,1.77,0,1,0-3.54,0V62a1.77,1.77,0,0,0,1.77,1.77"/><path class="cls-2" d="M14.58,23.22V76.78a1.77,1.77,0,0,0,3.54,0V23.22a1.77,1.77,0,0,0-3.54,0"/><path class="cls-2" d="M9.34,70.66a1.77,1.77,0,0,0,1.77-1.77V31.1a1.77,1.77,0,1,0-3.54,0V68.89a1.77,1.77,0,0,0,1.77,1.77"/><path class="cls-2" d="M1.77,63.72A1.77,1.77,0,0,0,3.54,62V38.05a1.77,1.77,0,0,0-3.54,0V62a1.77,1.77,0,0,0,1.77,1.77"/></g></g></svg>