<svg xmlns="http://www.w3.org/2000/svg" xmlns:xlink="http://www.w3.org/1999/xlink" viewBox="0 0 298.58 298.58"><defs><style>.cls-1{fill:none;}.cls-2{fill:#fff;}.cls-3{clip-path:url(#clip-path);}.cls-4{fill:url(#linear-gradient);}.cls-5{clip-path:url(#clip-path-2);}.cls-6{clip-path:url(#clip-path-3);}</style><clipPath id="clip-path"><path class="cls-1" d="M2.12,149.29A147.17,147.17,0,1,0,149.29,2.12,147.17,147.17,0,0,0,2.12,149.29"/></clipPath><linearGradient id="linear-gradient" x1="-3640.67" y1="845.19" x2="-3630.5" y2="845.19" gradientTransform="matrix(29.43, 0, 0, -29.43, 107137.32, 25021.56)" gradientUnits="userSpaceOnUse"><stop offset="0" stop-color="#065ca8"/><stop offset="1" stop-color="#44c5e9"/></linearGradient><clipPath id="clip-path-2"><path class="cls-2" d="M149.29,298.58C67,298.58,0,231.61,0,149.29S67,0,149.29,0,298.58,67,298.58,149.29,231.61,298.58,149.29,298.58Zm0-294.34c-80,0-145,65.07-145,145s65.06,145,145,145,145-65.07,145-145S229.27,4.24,149.29,4.24Z"/></clipPath><clipPath id="clip-path-3"><rect class="cls-2" x="2.12" y="2.12" width="294.34" height="294.34"/></clipPath></defs><title>weight</title><g id="Layer_2" data-name="Layer 2"><g id="Layer_1-2" data-name="Layer 1"><g class="cls-3"><rect class="cls-4" x="2.12" y="2.12" width="294.34" height="294.34"/></g><path class="cls-2" d="M149.29,298.58C67,298.58,0,231.61,0,149.29S67,0,149.29,0,298.58,67,298.58,149.29,231.61,298.58,149.29,298.58Zm0-294.34c-80,0-145,65.07-145,145s65.06,145,145,145,145-65.07,145-145S229.27,4.24,149.29,4.24Z"/><g class="cls-5"><rect class="cls-2" x="2.12" y="2.12" width="294.34" height="294.34"/><g class="cls-6"><rect class="cls-2" x="2.12" y="2.12" width="147.17" height="294.34"/><rect class="cls-2" x="149.29" y="2.12" width="147.17" height="294.34"/></g><path class="cls-2" d="M298.58,298.58H0V0H298.58ZM4.25,294.34H294.34V4.24H4.25Z"/></g><rect class="cls-1" x="74.65" y="74.65" width="149.29" height="149.29"/><path class="cls-2" d="M106.46,149.29a2.64,2.64,0,0,0,2.64,2.64h80a2.64,2.64,0,0,0,0-5.28h-80a2.64,2.64,0,0,0-2.64,2.64"/><path class="cls-2" d="M202.17,189.28v-80a2.64,2.64,0,1,0-5.28,0v80a2.64,2.64,0,1,0,5.28,0"/><path class="cls-2" d="M210,180.14a2.64,2.64,0,0,0,2.64-2.64V121.08a2.64,2.64,0,1,0-5.28,0V177.5a2.64,2.64,0,0,0,2.64,2.64"/><path class="cls-2" d="M221.3,169.77a2.64,2.64,0,0,0,2.64-2.64V131.46a2.65,2.65,0,0,0-5.29,0v35.67a2.65,2.65,0,0,0,2.65,2.64"/><path class="cls-2" d="M96.41,109.31v80a2.65,2.65,0,0,0,5.29,0v-80a2.65,2.65,0,0,0-5.29,0"/><path class="cls-2" d="M88.59,180.14a2.64,2.64,0,0,0,2.64-2.64V121.08a2.64,2.64,0,1,0-5.28,0V177.5a2.64,2.64,0,0,0,2.64,2.64"/><path class="cls-2" d="M77.29,169.77a2.64,2.64,0,0,0,2.64-2.64V131.46a2.64,2.64,0,1,0-5.28,0v35.67a2.64,2.64,0,0,0,2.64,2.64"/></g></g></svg>