<svg id="Layer_1" data-name="Layer 1" xmlns="http://www.w3.org/2000/svg" xmlns:xlink="http://www.w3.org/1999/xlink" viewBox="0 0 100 100"><defs><style>.cls-1{fill:none;}.cls-2{clip-path:url(#clip-path);}.cls-3{clip-path:url(#clip-path-2);}.cls-4{fill:#fff;}.cls-5{fill:#b1b3b6;}.cls-6{fill:#9180b9;}</style><clipPath id="clip-path"><rect class="cls-1" x="4.62" y="1.97" width="90.76" height="96.06"/></clipPath><clipPath id="clip-path-2"><rect class="cls-1" x="4.62" y="1.97" width="90.76" height="96.06"/></clipPath></defs><title>ring</title><g class="cls-2"><g class="cls-3"><path class="cls-4" d="M50,96.69a14.43,14.43,0,0,1-7-1.81L13.39,78.47A14.42,14.42,0,0,1,6,65.86V34.14a14.42,14.42,0,0,1,7.43-12.61L43,5.12a14.42,14.42,0,0,1,14,0L86.61,21.53A14.42,14.42,0,0,1,94,34.14V65.86a14.42,14.42,0,0,1-7.43,12.61L57,94.88a14.43,14.43,0,0,1-7,1.81"/><path class="cls-5" d="M50,2a15.75,15.75,0,0,0-7.64,2L12.74,20.35A15.76,15.76,0,0,0,4.62,34.14V65.86a15.76,15.76,0,0,0,8.12,13.78L42.36,96.06a15.77,15.77,0,0,0,15.28,0L87.26,79.64a15.76,15.76,0,0,0,8.12-13.78V34.14a15.76,15.76,0,0,0-8.12-13.78L57.64,3.94A15.75,15.75,0,0,0,50,2m0,2.69a13.1,13.1,0,0,1,6.34,1.64L86,22.71a13.08,13.08,0,0,1,6.74,11.43V65.86A13.08,13.08,0,0,1,86,77.3L56.34,93.71a13.07,13.07,0,0,1-12.67,0L14,77.3A13.08,13.08,0,0,1,7.31,65.86V34.14A13.08,13.08,0,0,1,14,22.71L43.66,6.29A13.1,13.1,0,0,1,50,4.65"/><path class="cls-6" d="M50.23,67.8H50A17.81,17.81,0,0,1,32.49,50,17.25,17.25,0,0,1,49.77,32.77H50A17.81,17.81,0,0,1,67.51,50.52,17.24,17.24,0,0,1,50.23,67.8Zm-.46-33.63A15.84,15.84,0,0,0,33.89,50,16.4,16.4,0,0,0,50,66.4s.15,0,.23,0A15.84,15.84,0,0,0,66.11,50.52,16.4,16.4,0,0,0,50,34.17Zm.42,31.16H50A15.32,15.32,0,0,1,35.44,53.85a.71.71,0,0,1-.07-.28A15.08,15.08,0,0,1,35,50.08,14.81,14.81,0,0,1,50,35.25a15.23,15.23,0,0,1,14.62,18.7.72.72,0,0,1-.08.33A14.82,14.82,0,0,1,50.2,65.32ZM50,63.92a13.19,13.19,0,0,0,3-.28,9,9,0,0,1-1.7-5.77,10.6,10.6,0,0,1-1.29.07l-.44,0a9.11,9.11,0,0,1-1.84,5.78,13.82,13.82,0,0,0,2.29.22ZM36.85,53.74a14,14,0,0,0,9.35,9.6,7.7,7.7,0,0,0,1.93-5.6,8.57,8.57,0,0,1-6.48-5.29A6.1,6.1,0,0,0,36.85,53.74ZM52.7,57.6a7.61,7.61,0,0,0,1.76,5.65,13.43,13.43,0,0,0,8.69-9.13,6.17,6.17,0,0,0-4.81-1.45,7.33,7.33,0,0,1-1.77,2.75A8.77,8.77,0,0,1,52.7,57.6Zm-3.62-1.12a8.36,8.36,0,0,0,.93.06h.12a7.77,7.77,0,0,0,5.45-2.12,5.89,5.89,0,0,0,1.48-2.35.7.7,0,0,1,.13-.47,5.27,5.27,0,0,0,.14-1.21C57.33,46.94,54,44.09,50,44h-.12a7.77,7.77,0,0,0-5.45,2.12,5.64,5.64,0,0,0-1.75,4,5.33,5.33,0,0,0,.14,1.22.71.71,0,0,1,.14.5,7.17,7.17,0,0,0,5.73,4.53h0A.72.72,0,0,1,49.08,56.47Zm9.83-5.22a7.79,7.79,0,0,1,4.57,1.34,13.93,13.93,0,0,0,.16-2.1,13.65,13.65,0,0,0-.12-1.82,7.23,7.23,0,0,1-4.82,1.13c0,.2,0,.41,0,.61a6.81,6.81,0,0,1-.06.86Zm-22.43-3a13.81,13.81,0,0,0-.12,1.81,13.49,13.49,0,0,0,.17,2.14A7.83,7.83,0,0,1,41.32,51a6.76,6.76,0,0,1-.05-.85c0-.21,0-.41,0-.61A7.45,7.45,0,0,1,36.48,48.27Zm21.94.08c3.14.34,4.5-.93,4.8-1.27A13.9,13.9,0,0,0,50,36.65a13.15,13.15,0,0,0-9.64,3.85,13.3,13.3,0,0,0-3.57,6.2c.44.47,1.88,1.66,4.8,1.44a7.27,7.27,0,0,1,1.85-3,9.18,9.18,0,0,1,6.44-2.52H50A8.78,8.78,0,0,1,58.42,48.36Z"/><path class="cls-6" d="M58.88,73.82a4.76,4.76,0,0,1-1.9-.34,2.93,2.93,0,0,1-1.73-2.27l-.65.09a.69.69,0,0,1-.78-.61.7.7,0,0,1,.61-.78,19.62,19.62,0,0,0,8.51-3.12,2.9,2.9,0,0,1,.52-.35,19.76,19.76,0,0,0,8.35-16.13A19.75,19.75,0,0,0,60,32.21l0,0a2.94,2.94,0,0,1-1.08-.84,2.9,2.9,0,0,1-.53-1.08,6.6,6.6,0,0,1,.33-3.39,1.06,1.06,0,0,1,.74-.66,1.1,1.1,0,0,1,1,.22,8.77,8.77,0,0,1,1,1.08h0a4.75,4.75,0,0,1,.91,1.71,2.89,2.89,0,0,1-.38,2.36A21.35,21.35,0,0,1,64.2,33a7.14,7.14,0,0,1,1.12-2.83,1.08,1.08,0,0,1,.87-.47,1.09,1.09,0,0,1,.89.45,8.69,8.69,0,0,1,.74,1.31,4.77,4.77,0,0,1,.48,1.88,2.88,2.88,0,0,1-1,2.28,21.22,21.22,0,0,1,2,2.44A7.4,7.4,0,0,1,71,35.83a1.09,1.09,0,0,1,1-.24,1.06,1.06,0,0,1,.75.66,8.34,8.34,0,0,1,.39,1.44h0a4.83,4.83,0,0,1,0,1.93,2.94,2.94,0,0,1-1.72,2,21,21,0,0,1,1.2,3.45,7.38,7.38,0,0,1,2.12-1.63,1.07,1.07,0,0,1,1.55.85,8.34,8.34,0,0,1,0,1.49h0a4.77,4.77,0,0,1-.49,1.87,2.94,2.94,0,0,1-2.57,1.55q0,.54,0,1.09c0,.53,0,1.07-.06,1.6a7.81,7.81,0,0,1,2.23-.77,1.08,1.08,0,0,1,1.24,1.26,8.55,8.55,0,0,1-.43,1.43,4.77,4.77,0,0,1-1,1.64,2.94,2.94,0,0,1-2.8.75,21,21,0,0,1-1.29,3.35,8,8,0,0,1,2.24-.09A1.07,1.07,0,0,1,74.17,61a8.33,8.33,0,0,1-.81,1.25,4.72,4.72,0,0,1-1.44,1.28,2.92,2.92,0,0,1-3.07-.18l-.1-.08q-.43.56-.91,1.09A21,21,0,0,1,66,66.25a8.07,8.07,0,0,1,1.92.79A1.08,1.08,0,0,1,68,68.79a8.21,8.21,0,0,1-1.25.83h0a4.7,4.7,0,0,1-1.84.6,3,3,0,0,1-2.71-1.35,21.18,21.18,0,0,1-2.85,1.29,7.64,7.64,0,0,1,1.71,1.92,1.08,1.08,0,0,1,.06,1,1.09,1.09,0,0,1-.78.63A8.21,8.21,0,0,1,58.88,73.82Zm-2.24-2.73a1.54,1.54,0,0,0,.89,1.11,4.9,4.9,0,0,0,2.06.18A4.55,4.55,0,0,0,58.06,71,1.69,1.69,0,0,0,56.64,71.09Zm3.44,1.22h0ZM66.44,69h0Zm-2.93-.74a1.48,1.48,0,0,0,1.31.55,3.35,3.35,0,0,0,1.29-.43h0a6.82,6.82,0,0,0,.62-.38,4.16,4.16,0,0,0-2-.5,1.49,1.49,0,0,0-.53.14l-.38.26A1.75,1.75,0,0,0,63.51,68.26Zm3.66,0h0Zm2.65-5.88a1.51,1.51,0,0,0,1.42,0,3.35,3.35,0,0,0,1-.92h0a7,7,0,0,0,.41-.59,4.9,4.9,0,0,0-2,.35,1.55,1.55,0,0,0-.48.4A1.63,1.63,0,0,0,69.83,62.36Zm3.09-2h0Zm-.09-5.52a1.52,1.52,0,0,0,1.36-.42,3.42,3.42,0,0,0,.7-1.16h0a7,7,0,0,0,.23-.68,4.48,4.48,0,0,0-1.86.9,1.5,1.5,0,0,0-.35.52A1.63,1.63,0,0,0,72.82,54.89Zm2-9.92a4.55,4.55,0,0,0-1.51,1.42,1.48,1.48,0,0,0-.18.6,1.64,1.64,0,0,0,.16.83,1.54,1.54,0,0,0,1.18-.8,3.45,3.45,0,0,0,.33-1.32h0A6.76,6.76,0,0,0,74.86,45Zm.45-.26h0Zm-.48-.24h0Zm-3.3-7.24A4.49,4.49,0,0,0,70.44,39a1.48,1.48,0,0,0,0,.63,1.62,1.62,0,0,0,.37.76,1.53,1.53,0,0,0,.93-1.07,3.45,3.45,0,0,0,0-1.37h0A7,7,0,0,0,71.54,37.23Zm-.15-.46h0Zm-5.17-5.38a4.54,4.54,0,0,0-.63,2,1.51,1.51,0,0,0,.13.61,1.63,1.63,0,0,0,.54.64,1.53,1.53,0,0,0,.64-1.27A3.35,3.35,0,0,0,66.55,32h0A6.9,6.9,0,0,0,66.22,31.39Zm-6.43-3.54a4.5,4.5,0,0,0-.13,2.06,1.48,1.48,0,0,0,.28.56,1.6,1.6,0,0,0,.68.49,1.52,1.52,0,0,0,.31-1.39,3.4,3.4,0,0,0-.66-1.19A7,7,0,0,0,59.79,27.85Zm.15-.49h0ZM41.12,73.82a8.39,8.39,0,0,1-1.48-.14h0a1.07,1.07,0,0,1-.71-1.61,7.58,7.58,0,0,1,1.71-1.92,21,21,0,0,1-2.85-1.29,3,3,0,0,1-2.71,1.35,4.73,4.73,0,0,1-1.84-.59A8.59,8.59,0,0,1,32,68.79,1.08,1.08,0,0,1,32.12,67,8,8,0,0,1,34,66.25a21,21,0,0,1-1.87-1.85q-.47-.53-.91-1.09l-.12.1a3,3,0,0,1-3.05.17,4.74,4.74,0,0,1-1.44-1.28A8.49,8.49,0,0,1,25.83,61a1.07,1.07,0,0,1,.83-1.56,7.85,7.85,0,0,1,2.25.09,21.17,21.17,0,0,1-1.29-3.35,2.93,2.93,0,0,1-2.79-.74,4.84,4.84,0,0,1-1-1.64,8.46,8.46,0,0,1-.43-1.42h0a1.08,1.08,0,0,1,1.23-1.27,7.87,7.87,0,0,1,2.24.77c0-.53-.06-1.06-.06-1.6q0-.54,0-1.09a2.94,2.94,0,0,1-2.57-1.55,4.75,4.75,0,0,1-.49-1.88,8.28,8.28,0,0,1,0-1.49h0a1.08,1.08,0,0,1,1.56-.83h0a7.39,7.39,0,0,1,2.1,1.62,21,21,0,0,1,1.2-3.45,2.93,2.93,0,0,1-1.72-2,4.84,4.84,0,0,1,0-1.94,8.54,8.54,0,0,1,.39-1.44A1.07,1.07,0,0,1,29,35.83,7.37,7.37,0,0,1,30.71,38a21.1,21.1,0,0,1,2-2.45,2.88,2.88,0,0,1-1-2.27,4.76,4.76,0,0,1,.48-1.87,8.66,8.66,0,0,1,.73-1.29v0a1.07,1.07,0,0,1,1.76,0A7.12,7.12,0,0,1,35.8,33a21,21,0,0,1,2.31-1.41,2.92,2.92,0,0,1-.38-2.37,4.82,4.82,0,0,1,.91-1.7,8.27,8.27,0,0,1,1-1.08h0a1.09,1.09,0,0,1,1-.23,1.07,1.07,0,0,1,.74.68h0a6.64,6.64,0,0,1,.32,3.38,2.89,2.89,0,0,1-.53,1.08,3,3,0,0,1-1.1.85h0a19.75,19.75,0,0,0-3.5,34.23h0a2.78,2.78,0,0,1,.52.36,19.63,19.63,0,0,0,8.51,3.11.7.7,0,1,1-.16,1.39l-.65-.09A2.93,2.93,0,0,1,43,73.48,4.78,4.78,0,0,1,41.12,73.82Zm-.72-1.44a5,5,0,0,0,2.06-.18,1.53,1.53,0,0,0,.89-1.11A1.66,1.66,0,0,0,41.93,71,4.56,4.56,0,0,0,40.4,72.39ZM33.27,68a6.82,6.82,0,0,0,.62.38,3.39,3.39,0,0,0,1.29.43,1.47,1.47,0,0,0,1.31-.56,1.69,1.69,0,0,0-.28-.35l-.39-.27a1.58,1.58,0,0,0-.53-.14A4.45,4.45,0,0,0,33.27,68Zm3.3.41h0Zm-3.74-.18h0Zm-5.5-7.4a7,7,0,0,0,.41.59,3.37,3.37,0,0,0,1,.92,1.54,1.54,0,0,0,1.42,0,1.63,1.63,0,0,0-.32-.78,1.56,1.56,0,0,0-.48-.4A4.6,4.6,0,0,0,27.33,60.84Zm-.26-.44h0Zm.06-5.33Zm-2.26-2.43c.06.19.13.43.23.68a3.52,3.52,0,0,0,.71,1.17,1.52,1.52,0,0,0,1.36.41,1.6,1.6,0,0,0-.09-.84,1.49,1.49,0,0,0-.35-.52A4.49,4.49,0,0,0,24.88,52.63ZM25.14,45a6.79,6.79,0,0,0,0,.72A3.41,3.41,0,0,0,25.48,47a1.54,1.54,0,0,0,1.18.8,1.64,1.64,0,0,0,.16-.82,1.51,1.51,0,0,0-.18-.6A4.57,4.57,0,0,0,25.14,45Zm-.43-.25h0Zm.46-.26h0Zm-.69-.08h0Zm4-7.15c-.06.2-.12.44-.16.7a3.46,3.46,0,0,0,0,1.37,1.52,1.52,0,0,0,.94,1.07,1.61,1.61,0,0,0,.36-.76,1.5,1.5,0,0,0,0-.63A4.5,4.5,0,0,0,28.46,37.23ZM28,36.5h0Zm5.82-5.11a6.56,6.56,0,0,0-.33.64,3.38,3.38,0,0,0-.35,1.31,1.52,1.52,0,0,0,.64,1.27,1.65,1.65,0,0,0,.54-.64,1.5,1.5,0,0,0,.13-.61A4.54,4.54,0,0,0,33.78,31.39Zm6.43-3.54c-.14.15-.31.33-.48.54a3.44,3.44,0,0,0-.66,1.19A1.53,1.53,0,0,0,39.39,31a1.64,1.64,0,0,0,.68-.49,1.49,1.49,0,0,0,.28-.56A4.52,4.52,0,0,0,40.21,27.85Zm-.14-.47h0Zm.06-.41h0Z"/></g></g></svg>