<svg id="Layer_1" data-name="Layer 1" xmlns="http://www.w3.org/2000/svg" xmlns:xlink="http://www.w3.org/1999/xlink" viewBox="0 0 100 100"><defs><style>.cls-1{fill:none;}.cls-2{clip-path:url(#clip-path);}.cls-3{clip-path:url(#clip-path-2);}.cls-4{fill:#fff;}.cls-5{fill:#4cba96;}</style><clipPath id="clip-path"><rect class="cls-1" x="4.14" y="1.45" width="91.73" height="97.09"/></clipPath><clipPath id="clip-path-2"><rect class="cls-1" x="4.14" y="1.45" width="91.73" height="97.09"/></clipPath></defs><title>ring</title><g class="cls-2"><g class="cls-3"><path class="cls-4" d="M50,97.19a14.58,14.58,0,0,1-7.06-1.83L13,78.78A14.58,14.58,0,0,1,5.49,66V34A14.57,14.57,0,0,1,13,21.23L42.94,4.64a14.58,14.58,0,0,1,14.12,0L87,21.23A14.57,14.57,0,0,1,94.51,34V66A14.58,14.58,0,0,1,87,78.78L57.06,95.36A14.59,14.59,0,0,1,50,97.19"/><path class="cls-5" d="M50,1.45a15.94,15.94,0,0,0-7.72,2L12.34,20A15.93,15.93,0,0,0,4.14,34V66A15.93,15.93,0,0,0,12.34,80L42.28,96.55a15.93,15.93,0,0,0,15.44,0L87.66,80A15.93,15.93,0,0,0,95.86,66V34A15.93,15.93,0,0,0,87.66,20L57.72,3.45a15.93,15.93,0,0,0-7.72-2m0,2.71a13.25,13.25,0,0,1,6.4,1.66L86.34,22.41A13.21,13.21,0,0,1,93.15,34V66a13.22,13.22,0,0,1-6.81,11.56L56.4,94.18a13.23,13.23,0,0,1-12.81,0L13.66,77.59A13.22,13.22,0,0,1,6.85,66V34a13.21,13.21,0,0,1,6.81-11.55L43.6,5.83A13.25,13.25,0,0,1,50,4.17"/><path class="cls-4" d="M66.33,67H46.46a11.81,11.81,0,1,1,0-23.62H66.33a11.81,11.81,0,1,1,0,23.62"/><path class="cls-5" d="M46.46,43.82a11.4,11.4,0,0,0,0,22.81H66.33a11.4,11.4,0,0,0,0-22.81ZM66.33,67.44H46.46a12.22,12.22,0,0,1,0-24.43H66.33a12.22,12.22,0,1,1,0,24.43"/><path class="cls-4" d="M56.39,47.3H46.46a7.92,7.92,0,1,0,0,15.84h9.93Z"/><path class="cls-5" d="M46.46,47.71a7.51,7.51,0,1,0,0,15H56v-15ZM56.8,63.55H46.46a8.33,8.33,0,0,1,0-16.65H56.8Z"/><path class="cls-4" d="M25.32,46l14-14a11.81,11.81,0,0,1,16.7,16.7l-14,14A11.81,11.81,0,0,1,25.32,46"/><path class="cls-5" d="M25.61,46.26A11.4,11.4,0,0,0,41.74,62.39l14-14A11.4,11.4,0,1,0,39.66,32.21Zm8.06,20.27A12.21,12.21,0,0,1,25,45.69l14-14A12.22,12.22,0,0,1,56.36,48.92l-14,14a12.18,12.18,0,0,1-8.64,3.57"/><path class="cls-4" d="M46.3,52.9l7-7a7.92,7.92,0,0,0-11.2-11.2l-7,7Z"/><path class="cls-5" d="M35.67,41.7,46.3,52.32,53,45.59A7.51,7.51,0,0,0,42.41,35ZM46.3,53.48,34.52,41.7l7.31-7.31A8.33,8.33,0,1,1,53.61,46.16Z"/></g></g></svg>