<?xml version="1.0" encoding="utf-8"?>
<!-- Generator: Adobe Illustrator 22.1.0, SVG Export Plug-In . SVG Version: 6.00 Build 0)  -->
<svg version="1.1" id="Layer_1" xmlns="http://www.w3.org/2000/svg" xmlns:xlink="http://www.w3.org/1999/xlink" x="0px" y="0px"
	 viewBox="0 0 87.5 99.7" style="enable-background:new 0 0 87.5 99.7;" xml:space="preserve">
<style type="text/css">
	.st0{fill:#EC266E;}
	.st1{fill:#FFFFFF;stroke:#EC266E;stroke-width:2;}
</style>
<title>icn/health-checks-completed</title>
<desc>Created with Sketch.</desc>
<g id="icn_x2F_health-checks-completed">
	<g id="Group-2" transform="translate(-20.000000, -1.000000)">
		<path id="Polygon" class="st0" d="M20.1,72.6L20,28.7c0-2.1,1.1-4.1,3-5.1L60.7,1.8c1.8-1.1,4.1-1.1,5.9,0l37.9,22.1
			c1.8,1.1,2.9,3,2.9,5.1l0.1,43.9c0,2.1-1.1,4.1-3,5.1L66.9,99.8c-1.8,1.1-4.1,1.1-5.9,0L23,77.7C21.2,76.7,20.1,74.7,20.1,72.6z"
			/>
		<g id="icn_x2F_health-checks-large" transform="translate(41.000000, 38.000000)">
			<path id="Shape" class="st1" d="M40.9-4.5L40.8,9.8c0.7,0.2,0.7,0.4,0.6,0.9c-0.1,1.4-0.2,2.9-1,4.2c-1.3,2.2-3.5,4.1-5.8,5.1
				c-0.6,0.2-1.2,0.4-2,0.5v1.1c0,0.8-0.7,1.5-1.5,1.5h-0.3c0,2-0.2,3.5-1.5,5.5c-4.6,7.1-16.2,6.8-20.6-1c-1.8-3.2-1-10-1-14.8
				c-2.6-1.5-3.2-2.4-3.3-5.4c0-5.7,9.4-6.7,10.1,0c0.5,4.6-3.3,4.8-3.3,6.1l-0.1,9.1c0,5.3,4.5,7.7,8.9,7.5
				c3.8-0.2,7.3-2.4,7.3-6.3v-0.6H27c-0.8,0-1.5-0.7-1.4-1.6v-1c-1.2-0.2-3.2-1.2-4.3-2c-1.2-1-2.5-2.5-3.1-3.9
				c-0.4-0.8-1-2.7-1-3.4c0-0.3,0.1-0.5,0.5-0.7c0-0.2,0-0.4,0-0.6c0-2.9-0.4-14.4,0.2-16.3c0.6-1.6,2.5-2.6,4-2.9
				c0.4-0.1,0.8,0,1-0.3c0.7-0.7,1-0.8,2.3-0.9c1.8,0.1,3.1,2.9,1.4,4.5c-1.1,1.1-3,0.9-3.8-0.4c-0.7,0-1.6,0.1-1.6,0.9v0.1l0,0
				l-0.1,2.6L21-0.6c0,3.1-0.4,7.5,0,10.5c0.7,0,0.6,1.1,1.1,2.3c0.5,1,1.6,2,2.6,2.6c1.2,0.7,2.8,1.1,4.1,1.2
				c1.6,0.1,3.2-0.3,4.6-1c1.1-0.5,2.2-1.3,2.7-2.5c0.4-1,0.4-2.2,0.7-3c0.1-0.2,0.1-0.3,0.4-0.3c0.1-3.1,0-7.6,0-9.5l-0.1-4.6
				c0-1.4,0.2-1.9-1.6-2c-0.8,1.4-2.8,1.5-3.9,0.4c-2-2,0.3-6.6,3.8-3.5c0.2,0.3,0.6,0.2,1.1,0.3c0.2,0,1.6,0.4,1.6,0.5
				c1.2,0.5,1.9,0.8,2.3,2.1C40.9-6.2,40.9-5.4,40.9-4.5z"/>
			<circle id="Oval-5" class="st0" cx="9.7" cy="7.8" r="2"/>
		</g>
	</g>
</g>
</svg>
