<?xml version="1.0" encoding="utf-8"?>
<!-- Generator: Adobe Illustrator 22.1.0, SVG Export Plug-In . SVG Version: 6.00 Build 0)  -->
<svg version="1.1" id="Layer_1" xmlns="http://www.w3.org/2000/svg" xmlns:xlink="http://www.w3.org/1999/xlink" x="0px" y="0px"
	 viewBox="0 0 87.5 99.7" style="enable-background:new 0 0 87.5 99.7;" xml:space="preserve">
<style type="text/css">
	.st0{fill:#8F75DD;}
	.st1{fill:#FFFFFF;stroke:#8F75DD;stroke-width:2;}
</style>
<title>icn/healthyfood-completed</title>
<desc>Created with Sketch.</desc>
<g id="icn_x2F_healthyfood-completed">
	<g id="Group" transform="translate(-19.000000, -1.000000)">
		<path id="Polygon" class="st0" d="M19.1,72.6L19,28.7c0-2.1,1.1-4.1,3-5.1L59.7,1.8c1.8-1.1,4.1-1.1,5.9,0l37.9,22.1
			c1.8,1.1,2.9,3,2.9,5.1l0.1,43.9c0,2.1-1.1,4.1-3,5.1L65.9,99.8c-1.8,1.1-4.1,1.1-5.9,0L22,77.7C20.2,76.7,19.1,74.7,19.1,72.6z"
			/>
		<g id="icn_x2F_healthyfood-large" transform="translate(40.000000, 39.000000)">
			<path id="Shape" class="st1" d="M18.7,4.9v-15.1h5.4V5.3c0,5.4-1.6,8.5-5.9,9v19.5h-6.5V14.3c-4.3-0.4-5.9-3.5-5.9-9v-15.5h5.4
				V4.9h1.1v-15.1h5.4V4.9H18.7z M33.6,16.6h-4.4V-1.1c0-2.9,0.3-4.3,1.8-5.8c2.2-2.1,4-3.2,6.7-3.3h1v44h-5.2L33.6,16.6L33.6,16.6z
				"/>
		</g>
	</g>
</g>
</svg>
