<?xml version="1.0" encoding="utf-8"?>
<!-- Generator: Adobe Illustrator 22.1.0, SVG Export Plug-In . SVG Version: 6.00 Build 0)  -->
<svg version="1.1" id="Layer_1" xmlns="http://www.w3.org/2000/svg" xmlns:xlink="http://www.w3.org/1999/xlink" x="0px" y="0px"
	 viewBox="0 0 87.5 99.7" style="enable-background:new 0 0 87.5 99.7;" xml:space="preserve">
<style type="text/css">
	.st0{fill:#3DCDC2;}
	.st1{fill:#FFFFFF;stroke:#3DCDC2;stroke-width:2;}
	.st2{fill:none;stroke:#3DCDC2;stroke-width:2;stroke-linecap:square;}
</style>
<title>icn/med-adherence-completed</title>
<desc>Created with Sketch.</desc>
<g id="icn_x2F_med-adherence-completed">
	<g id="Group-2" transform="translate(-20.000000, 0.000000)">
		<path id="Polygon" class="st0" d="M20.1,71.6L20,27.7c0-2.1,1.1-4.1,3-5.1L60.7,0.8c1.8-1.1,4.1-1.1,5.9,0l37.9,22.1
			c1.8,1.1,2.9,3,2.9,5.1l0.1,43.9c0,2.1-1.1,4.1-3,5.1L66.9,98.8c-1.8,1.1-4.1,1.1-5.9,0L23,76.7C21.2,75.7,20.1,73.7,20.1,71.6z"
			/>
		<g id="icn_x2F_med-adherence-large" transform="translate(41.000000, 38.000000)">
			<path id="Rectangle-8" class="st1" d="M41.9-8.7c-5.6-5.5-14.5-5.5-20.1,0L3.3,9.8c-5.5,5.6-5.5,14.5,0,20.1s14.5,5.5,20.1,0
				l18.5-18.5C47.4,5.8,47.4-3.1,41.9-8.7z"/>
			<path id="Line-2" class="st2" d="M12.8,0.8l19,19"/>
		</g>
	</g>
</g>
</svg>
