<?xml version="1.0" encoding="utf-8"?>
<!-- Generator: Adobe Illustrator 22.1.0, SVG Export Plug-In . SVG Version: 6.00 Build 0)  -->
<svg version="1.1" id="Layer_1" xmlns="http://www.w3.org/2000/svg" xmlns:xlink="http://www.w3.org/1999/xlink" x="0px" y="0px"
	 viewBox="0 0 87.5 99.7" style="enable-background:new 0 0 87.5 99.7;" xml:space="preserve">
<style type="text/css">
	.st0{fill:#FF890A;}
	.st1{fill:#FFFFFF;stroke:#FF890A;stroke-width:2;}
	.st2{fill:none;stroke:#FF890A;stroke-width:2;}
	.st3{fill:none;stroke:#FF890A;stroke-width:2;stroke-linecap:round;}
</style>
<title>icn/weight-management-completed</title>
<desc>Created with Sketch.</desc>
<g id="icn_x2F_weight-management-completed">
	<g id="Group-2" transform="translate(-19.000000, -1.000000)">
		<path id="Polygon" class="st0" d="M19.1,72.6L19,28.7c0-2.1,1.1-4.1,3-5.1L59.7,1.8c1.8-1.1,4.1-1.1,5.9,0l37.9,22.1
			c1.8,1.1,2.9,3,2.9,5.1l0.1,43.9c0,2.1-1.1,4.1-3,5.1L65.9,99.8c-1.8,1.1-4.1,1.1-5.9,0L22,77.7C20.2,76.7,19.1,74.7,19.1,72.6z"
			/>
		<g id="icn_x2F_weight-management-large" transform="translate(40.000000, 37.894882)">
			<path id="Combined-Shape" class="st1" d="M10.6-3.1l-0.3,0.6H7.5c-2.2,0-4.1,1.8-4.1,4.1v28.2c0,2.2,1.8,4.1,4.1,4.1h29.9
				c2.2,0,4.1-1.8,4.1-4.1V1.5c0-2.2-1.8-4.1-4.1-4.1h-2.8l-0.3-0.6c-1.6-4.1-6.4-7-11.8-7S12.3-7.3,10.6-3.1z"/>
			<circle id="Oval-4" class="st2" cx="22.5" cy="3.8" r="9"/>
			<path id="Line-4" class="st3" d="M22.5,3.4l3-4.6"/>
		</g>
	</g>
</g>
</svg>
